<?xml version="1.0" encoding="iso-8859-1"?>
<!-- Generator: Adobe Illustrator 18.0.0, SVG Export Plug-In . SVG Version: 6.00 Build 0)  -->
<!DOCTYPE svg PUBLIC "-//W3C//DTD SVG 1.1//EN" "http://www.w3.org/Graphics/SVG/1.1/DTD/svg11.dtd">
<svg version="1.1" id="Capa_1" xmlns="http://www.w3.org/2000/svg" xmlns:xlink="http://www.w3.org/1999/xlink" x="0px" y="0px"
	 viewBox="0 0 56 56" style="enable-background:new 0 0 56 56;" xml:space="preserve">
<g>
	<g>
		<polygon style="fill:#6B5B4B;" points="0,17 0,34.044 56,34.022 56,17 43,5 13,5 		"/>
	</g>
	<path style="fill:#BFA380;" d="M37.797,17.012C36.866,21.571,32.833,25,28,25c-4.826,0-8.853-3.464-9.792-8.012L0.061,17
		C0.027,17,0,17.027,0,17.061v16.983l56-0.022V17.096C56,17.043,55.957,17,55.904,17L37.797,17.012z"/>
	<path style="fill:#A88E6F;" d="M37.797,34c-0.931,4.558-4.964,7.956-9.797,7.956c-4.826,0-8.853-3.407-9.792-7.956H0v17l56-0.022
		V34H37.797z"/>
	<g>
		<path style="fill:#6B5B4B;" d="M28,41.956c4.833,0,8.866-3.397,9.797-7.956h-19.59C19.147,38.548,23.174,41.956,28,41.956z"/>
	</g>
</g>
<g>
</g>
<g>
</g>
<g>
</g>
<g>
</g>
<g>
</g>
<g>
</g>
<g>
</g>
<g>
</g>
<g>
</g>
<g>
</g>
<g>
</g>
<g>
</g>
<g>
</g>
<g>
</g>
<g>
</g>
</svg>
