<?xml version="1.0" encoding="iso-8859-1"?>
<!-- Generator: Adobe Illustrator 18.0.0, SVG Export Plug-In . SVG Version: 6.00 Build 0)  -->
<!DOCTYPE svg PUBLIC "-//W3C//DTD SVG 1.1//EN" "http://www.w3.org/Graphics/SVG/1.1/DTD/svg11.dtd">
<svg version="1.1" id="Capa_1" xmlns="http://www.w3.org/2000/svg" xmlns:xlink="http://www.w3.org/1999/xlink" x="0px" y="0px"
	 viewBox="0 0 56.967 56.967" style="enable-background:new 0 0 56.967 56.967;" xml:space="preserve">
<g>
	<path style="fill:#1081E0;" d="M39,34.483v7H17v-7H0.052C0.024,34.483,0,34.507,0,34.536v19.563c0,1.317,1.067,2.384,2.384,2.384
		h51.231c1.317,0,2.384-1.067,2.384-2.384V34.536c0-0.029-0.024-0.052-0.052-0.052H39z"/>
	<path style="fill:#13649B;" d="M41,27.483v-7.706c0,0-14.063-2.669-21.924,9.706c0,0-0.411-2.787,0.681-6.602
		c0.342-1.194,0.803-2.325,1.349-3.398H21H10L0.019,34.436c-0.009,0.023,0.008,0.047,0.032,0.047H17v7h22v-7h16.949
		c0.025,0,0.041-0.025,0.032-0.047L47.567,21.83L41,27.483z"/>
	<path style="fill:#A1C8EC;" d="M41,8.483v-8l15.944,13.175c0.03,0.027,0.03,0.073,0,0.099L41,27.483v-7.706
		c0,0-14.063-2.669-21.924,9.706c0,0-0.411-2.787,0.681-6.602C22.18,14.416,30.052,8.806,38.852,8.489
		C39.56,8.463,40.225,8.46,41,8.483z"/>
</g>
<g>
</g>
<g>
</g>
<g>
</g>
<g>
</g>
<g>
</g>
<g>
</g>
<g>
</g>
<g>
</g>
<g>
</g>
<g>
</g>
<g>
</g>
<g>
</g>
<g>
</g>
<g>
</g>
<g>
</g>
</svg>
