<?xml version="1.0" encoding="iso-8859-1"?>
<!-- Generator: Adobe Illustrator 18.0.0, SVG Export Plug-In . SVG Version: 6.00 Build 0)  -->
<!DOCTYPE svg PUBLIC "-//W3C//DTD SVG 1.1//EN" "http://www.w3.org/Graphics/SVG/1.1/DTD/svg11.dtd">
<svg version="1.1" id="Capa_1" xmlns="http://www.w3.org/2000/svg" xmlns:xlink="http://www.w3.org/1999/xlink" x="0px" y="0px"
	 viewBox="0 0 58 58" style="enable-background:new 0 0 58 58;" xml:space="preserve">
<g>
	<rect x="6" style="fill:#F1AF74;" width="46" height="58"/>
	<path style="fill:#FEDAAC;" d="M41.905,14H16.095c-0.061,0.067-0.119,0.043-0.162,0L6.39,0.39C6.246,0.246,6.348,0,6.551,0h44.897
		c0.203,0,0.305,0.246,0.162,0.39L42.067,14C42.024,14.043,41.966,14.067,41.905,14z"/>
	<path style="fill:#FEDAAC;" d="M41.905,50H16.095c-0.061-0.067-0.119-0.043-0.162,0L6.39,57.61C6.246,57.754,6.348,58,6.551,58
		h44.897c0.203,0,0.305-0.246,0.162-0.39L42.067,50C42.024,49.957,41.966,49.933,41.905,50z"/>
	<rect x="28" y="14" style="fill:#C18757;" width="2" height="35.933"/>
</g>
<g>
</g>
<g>
</g>
<g>
</g>
<g>
</g>
<g>
</g>
<g>
</g>
<g>
</g>
<g>
</g>
<g>
</g>
<g>
</g>
<g>
</g>
<g>
</g>
<g>
</g>
<g>
</g>
<g>
</g>
</svg>
