<?xml version="1.0" encoding="iso-8859-1"?>
<!-- Generator: Adobe Illustrator 18.0.0, SVG Export Plug-In . SVG Version: 6.00 Build 0)  -->
<!DOCTYPE svg PUBLIC "-//W3C//DTD SVG 1.1//EN" "http://www.w3.org/Graphics/SVG/1.1/DTD/svg11.dtd">
<svg version="1.1" id="Capa_1" xmlns="http://www.w3.org/2000/svg" xmlns:xlink="http://www.w3.org/1999/xlink" x="0px" y="0px"
	 viewBox="0 0 58 58" style="enable-background:new 0 0 58 58;" xml:space="preserve">
<g>
	<rect x="6" style="fill:#F1AF74;" width="46" height="58"/>
	<path style="fill:#FEDAAC;" d="M41.905,14H16.095c-0.061,0.067-0.119,0.043-0.162,0L6.39,0.39C6.246,0.246,6.348,0,6.551,0h44.897
		c0.203,0,0.305,0.246,0.162,0.39L42.067,14C42.024,14.043,41.966,14.067,41.905,14z"/>
	<path style="fill:#FEDAAC;" d="M41.905,50H16.095c-0.061-0.067-0.119-0.043-0.162,0L6.39,57.61C6.246,57.754,6.348,58,6.551,58
		h44.897c0.203,0,0.305-0.246,0.162-0.39L42.067,50C42.024,49.957,41.966,49.933,41.905,50z"/>
	<path style="fill:#38454F;" d="M32,29c-0.412,0-0.798-0.257-0.943-0.667l-6-17c-0.184-0.521,0.09-1.092,0.61-1.276
		c0.522-0.18,1.092,0.091,1.276,0.61l6,17c0.184,0.521-0.09,1.092-0.61,1.276C32.223,28.981,32.11,29,32,29z"/>
	<path style="fill:#546A79;" d="M26,29c-0.11,0-0.223-0.019-0.333-0.057c-0.521-0.185-0.794-0.756-0.61-1.276l6-17
		c0.185-0.521,0.755-0.79,1.276-0.61c0.521,0.185,0.794,0.756,0.61,1.276l-6,17C26.798,28.743,26.412,29,26,29z"/>
	<circle style="fill:#D73B37;" cx="29" cy="11" r="4"/>
	<circle style="fill:#D73B37;" cx="29" cy="29" r="4"/>
	<circle style="fill:#D9EBFF;" cx="29" cy="11" r="2"/>
	<circle style="fill:#D9EBFF;" cx="29" cy="29" r="2"/>
</g>
<g>
</g>
<g>
</g>
<g>
</g>
<g>
</g>
<g>
</g>
<g>
</g>
<g>
</g>
<g>
</g>
<g>
</g>
<g>
</g>
<g>
</g>
<g>
</g>
<g>
</g>
<g>
</g>
<g>
</g>
</svg>
