<?xml version="1.0" encoding="iso-8859-1"?>
<!-- Generator: Adobe Illustrator 18.0.0, SVG Export Plug-In . SVG Version: 6.00 Build 0)  -->
<!DOCTYPE svg PUBLIC "-//W3C//DTD SVG 1.1//EN" "http://www.w3.org/Graphics/SVG/1.1/DTD/svg11.dtd">
<svg version="1.1" id="Capa_1" xmlns="http://www.w3.org/2000/svg" xmlns:xlink="http://www.w3.org/1999/xlink" x="0px" y="0px"
	 viewBox="0 0 58 58" style="enable-background:new 0 0 58 58;" xml:space="preserve">
<g>
	<rect x="0" y="26.042" style="fill:#C4C2A5;" width="58" height="31.958"/>
	<path style="fill:#E5E5DA;" d="M30.861,0.733c-1.049-0.976-2.674-0.976-3.723,0L0,25.999v0.043h58v-0.043L30.861,0.733z"/>
	<path style="fill:#E5E5DA;" d="M57.909,26.05L0.398,57.761C0.431,57.888,0.427,57.872,0.459,58h57.412
		C57.942,58,58,57.942,58,57.871V26.103C58,26.057,57.95,26.027,57.909,26.05z"/>
	<path style="fill:#D1D0BF;" d="M0.091,26.05L29,41.99L0.398,57.761C0.431,57.888,0.427,57.872,0.459,58H0.129
		C0.058,58,0,57.942,0,57.871l0-31.767C0,26.057,0.05,26.027,0.091,26.05z"/>
	<path style="fill:#FFFFFF;" d="M34,56c-3.309,0-6-2.691-6-6s2.691-6,6-6s6,2.691,6,6S37.309,56,34,56z M34,46c-2.206,0-4,1.794-4,4
		s1.794,4,4,4s4-1.794,4-4S36.206,46,34,46z"/>
	<path style="fill:#FFFFFF;" d="M46,48c-0.287,0-0.572-0.123-0.77-0.361c-0.683-0.824-1.778-0.824-2.461,0
		c-0.353,0.426-0.983,0.484-1.408,0.131c-0.425-0.353-0.484-0.982-0.131-1.408C41.958,45.483,42.942,45,44,45
		s2.042,0.483,2.77,1.361c0.353,0.426,0.294,1.056-0.131,1.408C46.452,47.924,46.226,48,46,48z"/>
	<path style="fill:#FFFFFF;" d="M48,49c-1.058,0-2.042-0.483-2.77-1.361c-0.353-0.426-0.294-1.056,0.131-1.408
		c0.424-0.353,1.055-0.294,1.408,0.131c0.683,0.824,1.778,0.824,2.461,0c0.353-0.425,0.983-0.483,1.408-0.131
		c0.425,0.353,0.484,0.982,0.131,1.408C50.042,48.516,49.058,49,48,49z"/>
	<path style="fill:#FFFFFF;" d="M54,48c-0.287,0-0.572-0.123-0.77-0.361c-0.683-0.824-1.778-0.824-2.461,0
		c-0.353,0.426-0.982,0.484-1.408,0.131c-0.425-0.353-0.484-0.982-0.131-1.408C49.958,45.483,50.942,45,52,45
		s2.042,0.483,2.77,1.361c0.353,0.426,0.294,1.056-0.131,1.408C54.452,47.924,54.226,48,54,48z"/>
	<path style="fill:#FFFFFF;" d="M46,54c-0.287,0-0.572-0.123-0.77-0.361c-0.683-0.824-1.778-0.824-2.461,0
		c-0.353,0.426-0.983,0.484-1.408,0.131c-0.425-0.353-0.484-0.982-0.131-1.408C41.958,51.483,42.942,51,44,51
		s2.042,0.483,2.77,1.361c0.353,0.426,0.294,1.056-0.131,1.408C46.452,53.924,46.226,54,46,54z"/>
	<path style="fill:#FFFFFF;" d="M48,55c-1.058,0-2.042-0.483-2.77-1.361c-0.353-0.426-0.294-1.056,0.131-1.408
		c0.424-0.354,1.055-0.294,1.408,0.131c0.683,0.824,1.778,0.824,2.461,0c0.353-0.425,0.983-0.484,1.408-0.131
		c0.425,0.353,0.484,0.982,0.131,1.408C50.042,54.516,49.058,55,48,55z"/>
	<path style="fill:#FFFFFF;" d="M54,54c-0.287,0-0.572-0.123-0.77-0.361c-0.683-0.824-1.778-0.824-2.461,0
		c-0.353,0.426-0.982,0.484-1.408,0.131c-0.425-0.353-0.484-0.982-0.131-1.408C49.958,51.483,50.942,51,52,51
		s2.042,0.483,2.77,1.361c0.353,0.426,0.294,1.056-0.131,1.408C54.452,53.924,54.226,54,54,54z"/>
</g>
<g>
</g>
<g>
</g>
<g>
</g>
<g>
</g>
<g>
</g>
<g>
</g>
<g>
</g>
<g>
</g>
<g>
</g>
<g>
</g>
<g>
</g>
<g>
</g>
<g>
</g>
<g>
</g>
<g>
</g>
</svg>
