<?xml version="1.0" encoding="iso-8859-1"?>
<!-- Generator: Adobe Illustrator 18.0.0, SVG Export Plug-In . SVG Version: 6.00 Build 0)  -->
<!DOCTYPE svg PUBLIC "-//W3C//DTD SVG 1.1//EN" "http://www.w3.org/Graphics/SVG/1.1/DTD/svg11.dtd">
<svg version="1.1" id="Capa_1" xmlns="http://www.w3.org/2000/svg" xmlns:xlink="http://www.w3.org/1999/xlink" x="0px" y="0px"
	 viewBox="0 0 58 58" style="enable-background:new 0 0 58 58;" xml:space="preserve">
<g>
	<g>
		<polygon style="fill:#52C306;" points="52,20.413 52,29.308 29,41.99 6,29.308 6,20.413 0,25.999 0,58 58,58 58,25.999 		"/>
	</g>
	<path style="fill:#88C057;" d="M0.091,26.05l57.511,31.711c-0.033,0.128-0.029,0.111-0.062,0.239H0.129C0.058,58,0,57.942,0,57.871
		l0-31.767C0,26.057,0.05,26.028,0.091,26.05z"/>
	<path style="fill:#43B05C;" d="M57.909,26.05L29,41.99l28.602,15.771c-0.033,0.127-0.029,0.112-0.062,0.239h0.331
		C57.942,58,58,57.942,58,57.871V26.104C58,26.057,57.95,26.028,57.909,26.05z"/>
	<path style="fill:#88C057;" d="M0.091,26.05l57.511,31.711c-0.033,0.128-0.029,0.111-0.062,0.239H0.129C0.058,58,0,57.942,0,57.871
		l0-31.767C0,26.057,0.05,26.028,0.091,26.05z"/>
	<g>
		<polygon style="fill:#F2ECBF;" points="29,41.99 52,29.308 52,0 6,0 6,29.308 		"/>
	</g>
	<path style="fill:#BAB395;" d="M33,10h-6c-0.553,0-1-0.447-1-1s0.447-1,1-1h6c0.553,0,1,0.447,1,1S33.553,10,33,10z"/>
	<path style="fill:#BAB395;" d="M42,25h-7c-0.553,0-1-0.447-1-1s0.447-1,1-1h7c0.553,0,1,0.447,1,1S42.553,25,42,25z"/>
	<path style="fill:#BAB395;" d="M22,17h-5c-0.553,0-1-0.447-1-1s0.447-1,1-1h5c0.553,0,1,0.447,1,1S22.553,17,22,17z"/>
	<path style="fill:#BAB395;" d="M38,17h-8c-0.553,0-1-0.447-1-1s0.447-1,1-1h8c0.553,0,1,0.447,1,1S38.553,17,38,17z"/>
	<path style="fill:#BAB395;" d="M26,17c-0.26,0-0.521-0.11-0.71-0.29C25.109,16.52,25,16.26,25,16s0.109-0.521,0.29-0.71
		c0.37-0.37,1.05-0.37,1.42,0C26.89,15.479,27,15.74,27,16s-0.11,0.52-0.29,0.71C26.52,16.89,26.26,17,26,17z"/>
	<path style="fill:#BAB395;" d="M31,25H21c-0.553,0-1-0.447-1-1s0.447-1,1-1h10c0.553,0,1,0.447,1,1S31.553,25,31,25z"/>
	<path style="fill:#BAB395;" d="M17,25c-0.26,0-0.521-0.11-0.71-0.29C16.109,24.52,16,24.26,16,24c0-0.271,0.109-0.521,0.29-0.71
		c0.37-0.37,1.04-0.37,1.42,0C17.89,23.479,18,23.74,18,24s-0.11,0.52-0.29,0.71C17.52,24.89,17.26,25,17,25z"/>
	<path style="fill:#BAB395;" d="M42,17c-0.26,0-0.521-0.11-0.71-0.29C41.109,16.52,41,16.26,41,16s0.109-0.521,0.29-0.71
		c0.38-0.37,1.05-0.37,1.42,0C42.89,15.479,43,15.74,43,16s-0.11,0.52-0.29,0.71C42.52,16.89,42.26,17,42,17z"/>
	<path style="fill:#BAB395;" d="M22,33h-5c-0.553,0-1-0.447-1-1s0.447-1,1-1h5c0.553,0,1,0.447,1,1S22.553,33,22,33z"/>
	<path style="fill:#BAB395;" d="M38,33h-8c-0.553,0-1-0.447-1-1s0.447-1,1-1h8c0.553,0,1,0.447,1,1S38.553,33,38,33z"/>
	<path style="fill:#BAB395;" d="M26,33c-0.271,0-0.521-0.11-0.71-0.29C25.109,32.52,25,32.26,25,32c0-0.271,0.109-0.53,0.29-0.71
		c0.359-0.36,1.05-0.37,1.42,0C26.89,31.47,27,31.729,27,32c0,0.26-0.11,0.52-0.29,0.71C26.52,32.89,26.26,33,26,33z"/>
	<path style="fill:#BAB395;" d="M42,33c-0.271,0-0.521-0.11-0.71-0.29C41.109,32.52,41,32.26,41,32c0-0.271,0.109-0.53,0.29-0.71
		c0.359-0.36,1.05-0.37,1.42,0C42.89,31.47,43,31.729,43,32c0,0.26-0.11,0.52-0.29,0.71C42.52,32.89,42.26,33,42,33z"/>
</g>
<g>
</g>
<g>
</g>
<g>
</g>
<g>
</g>
<g>
</g>
<g>
</g>
<g>
</g>
<g>
</g>
<g>
</g>
<g>
</g>
<g>
</g>
<g>
</g>
<g>
</g>
<g>
</g>
<g>
</g>
</svg>
