<?xml version="1.0" encoding="iso-8859-1"?>
<!-- Generator: Adobe Illustrator 18.0.0, SVG Export Plug-In . SVG Version: 6.00 Build 0)  -->
<!DOCTYPE svg PUBLIC "-//W3C//DTD SVG 1.1//EN" "http://www.w3.org/Graphics/SVG/1.1/DTD/svg11.dtd">
<svg version="1.1" id="Capa_1" xmlns="http://www.w3.org/2000/svg" xmlns:xlink="http://www.w3.org/1999/xlink" x="0px" y="0px"
	 viewBox="0 0 58 58" style="enable-background:new 0 0 58 58;" xml:space="preserve">
<g>
	<path style="fill:#23A24D;" d="M30.861,0.733c-1.049-0.976-2.674-0.976-3.723,0L0,25.999v0.104v31.767V58h0.129h57.412h0.331H58
		v-0.129V26.103v-0.104L30.861,0.733z"/>
	<g>
		<circle style="fill:#A4E869;" cx="20" cy="12" r="1"/>
		<circle style="fill:#A4E869;" cx="29" cy="3" r="1"/>
		<circle style="fill:#A4E869;" cx="23" cy="9" r="1"/>
		<circle style="fill:#A4E869;" cx="29" cy="9" r="1"/>
		<circle style="fill:#A4E869;" cx="26" cy="6" r="1"/>
		<circle style="fill:#A4E869;" cx="32" cy="6" r="1"/>
		<circle style="fill:#A4E869;" cx="26" cy="12" r="1"/>
		<circle style="fill:#A4E869;" cx="32" cy="12" r="1"/>
		<circle style="fill:#A4E869;" cx="35" cy="9" r="1"/>
		<circle style="fill:#A4E869;" cx="38" cy="12" r="1"/>
		<circle style="fill:#A4E869;" cx="8" cy="24" r="1"/>
		<circle style="fill:#A4E869;" cx="17" cy="15" r="1"/>
		<circle style="fill:#A4E869;" cx="11" cy="21" r="1"/>
		<circle style="fill:#A4E869;" cx="17" cy="21" r="1"/>
		<circle style="fill:#A4E869;" cx="14" cy="18" r="1"/>
		<circle style="fill:#A4E869;" cx="20" cy="18" r="1"/>
		<circle style="fill:#A4E869;" cx="14" cy="24" r="1"/>
		<circle style="fill:#A4E869;" cx="20" cy="24" r="1"/>
		<circle style="fill:#A4E869;" cx="23" cy="15" r="1"/>
		<circle style="fill:#A4E869;" cx="29" cy="15" r="1"/>
		<circle style="fill:#A4E869;" cx="23" cy="21" r="1"/>
		<circle style="fill:#A4E869;" cx="29" cy="21" r="1"/>
		<circle style="fill:#A4E869;" cx="26" cy="18" r="1"/>
		<circle style="fill:#A4E869;" cx="32" cy="18" r="1"/>
		<circle style="fill:#A4E869;" cx="26" cy="24" r="1"/>
		<circle style="fill:#A4E869;" cx="32" cy="24" r="1"/>
		<circle style="fill:#A4E869;" cx="35" cy="15" r="1"/>
		<circle style="fill:#A4E869;" cx="41" cy="15" r="1"/>
		<circle style="fill:#A4E869;" cx="35" cy="21" r="1"/>
		<circle style="fill:#A4E869;" cx="41" cy="21" r="1"/>
		<circle style="fill:#A4E869;" cx="38" cy="18" r="1"/>
		<circle style="fill:#A4E869;" cx="44" cy="18" r="1"/>
		<circle style="fill:#A4E869;" cx="38" cy="24" r="1"/>
		<circle style="fill:#A4E869;" cx="44" cy="24" r="1"/>
		<circle style="fill:#A4E869;" cx="47" cy="21" r="1"/>
		<circle style="fill:#A4E869;" cx="50" cy="24" r="1"/>
		<circle style="fill:#A4E869;" cx="5" cy="27" r="1"/>
		<circle style="fill:#A4E869;" cx="8" cy="30" r="1"/>
		<circle style="fill:#A4E869;" cx="11" cy="27" r="1"/>
		<circle style="fill:#A4E869;" cx="17" cy="27" r="1"/>
		<circle style="fill:#A4E869;" cx="17" cy="33" r="1"/>
		<circle style="fill:#A4E869;" cx="11" cy="33" r="1"/>
		<circle style="fill:#A4E869;" cx="14" cy="30" r="1"/>
		<circle style="fill:#A4E869;" cx="20" cy="30" r="1"/>
		<circle style="fill:#A4E869;" cx="20" cy="36" r="1"/>
		<circle style="fill:#A4E869;" cx="14" cy="36" r="1"/>
		<circle style="fill:#A4E869;" cx="23" cy="27" r="1"/>
		<circle style="fill:#A4E869;" cx="29" cy="27" r="1"/>
		<circle style="fill:#A4E869;" cx="23" cy="33" r="1"/>
		<circle style="fill:#A4E869;" cx="23" cy="39" r="1"/>
		<circle style="fill:#A4E869;" cx="29" cy="33" r="1"/>
		<circle style="fill:#A4E869;" cx="26" cy="30" r="1"/>
		<circle style="fill:#A4E869;" cx="32" cy="30" r="1"/>
		<circle style="fill:#A4E869;" cx="26" cy="36" r="1"/>
		<circle style="fill:#A4E869;" cx="32" cy="36" r="1"/>
		<circle style="fill:#A4E869;" cx="35" cy="27" r="1"/>
		<circle style="fill:#A4E869;" cx="41" cy="27" r="1"/>
		<circle style="fill:#A4E869;" cx="35" cy="33" r="1"/>
		<circle style="fill:#A4E869;" cx="35" cy="39" r="1"/>
		<circle style="fill:#A4E869;" cx="41" cy="33" r="1"/>
		<circle style="fill:#A4E869;" cx="47" cy="33" r="1"/>
		<circle style="fill:#A4E869;" cx="38" cy="30" r="1"/>
		<circle style="fill:#A4E869;" cx="44" cy="30" r="1"/>
		<circle style="fill:#A4E869;" cx="38" cy="36" r="1"/>
		<circle style="fill:#A4E869;" cx="44" cy="36" r="1"/>
		<circle style="fill:#A4E869;" cx="47" cy="27" r="1"/>
		<circle style="fill:#A4E869;" cx="53" cy="27" r="1"/>
		<circle style="fill:#A4E869;" cx="50" cy="30" r="1"/>
		<circle style="fill:#A4E869;" cx="29" cy="39" r="1"/>
	</g>
	<path style="fill:#388F04;" d="M0,56.709V27.29c0-0.529,0.606-0.829,1.027-0.508L21,42L1.027,57.217
		C0.606,57.538,0,57.238,0,56.709z"/>
	<path style="fill:#88C057;" d="M58,56.709V27.29c0-0.529-0.606-0.829-1.027-0.508L37,42l19.973,15.218
		C57.394,57.538,58,57.238,58,56.709z"/>
	<path style="fill:#57B21B;" d="M56.973,57.217L37,42H21L1.027,57.217C0.606,57.538,0,57.238,0,56.709V58h58v-1.291
		C58,57.238,57.394,57.538,56.973,57.217z"/>
</g>
<g>
</g>
<g>
</g>
<g>
</g>
<g>
</g>
<g>
</g>
<g>
</g>
<g>
</g>
<g>
</g>
<g>
</g>
<g>
</g>
<g>
</g>
<g>
</g>
<g>
</g>
<g>
</g>
<g>
</g>
</svg>
