<?xml version="1.0" encoding="iso-8859-1"?>
<!-- Generator: Adobe Illustrator 18.0.0, SVG Export Plug-In . SVG Version: 6.00 Build 0)  -->
<!DOCTYPE svg PUBLIC "-//W3C//DTD SVG 1.1//EN" "http://www.w3.org/Graphics/SVG/1.1/DTD/svg11.dtd">
<svg version="1.1" id="Capa_1" xmlns="http://www.w3.org/2000/svg" xmlns:xlink="http://www.w3.org/1999/xlink" x="0px" y="0px"
	 viewBox="0 0 58 58" style="enable-background:new 0 0 58 58;" xml:space="preserve">
<g>
	<path style="fill:#9777A8;" d="M58,58H0V25.999L27.139,0.733c1.049-0.977,2.674-0.977,3.723,0L58,25.999V58z"/>
	<circle style="fill:#A485BE;" cx="20" cy="12" r="1"/>
	<circle style="fill:#A485BE;" cx="29" cy="3" r="1"/>
	<circle style="fill:#A485BE;" cx="23" cy="9" r="1"/>
	<circle style="fill:#A485BE;" cx="29" cy="9" r="1"/>
	<circle style="fill:#A485BE;" cx="26" cy="6" r="1"/>
	<circle style="fill:#A485BE;" cx="32" cy="6" r="1"/>
	<circle style="fill:#A485BE;" cx="26" cy="12" r="1"/>
	<circle style="fill:#A485BE;" cx="32" cy="12" r="1"/>
	<circle style="fill:#A485BE;" cx="35" cy="9" r="1"/>
	<circle style="fill:#A485BE;" cx="38" cy="12" r="1"/>
	<circle style="fill:#A485BE;" cx="8" cy="24" r="1"/>
	<circle style="fill:#A485BE;" cx="17" cy="15" r="1"/>
	<circle style="fill:#A485BE;" cx="11" cy="21" r="1"/>
	<circle style="fill:#A485BE;" cx="17" cy="21" r="1"/>
	<circle style="fill:#A485BE;" cx="14" cy="18" r="1"/>
	<circle style="fill:#A485BE;" cx="20" cy="18" r="1"/>
	<circle style="fill:#A485BE;" cx="14" cy="24" r="1"/>
	<circle style="fill:#A485BE;" cx="20" cy="24" r="1"/>
	<circle style="fill:#A485BE;" cx="23" cy="15" r="1"/>
	<circle style="fill:#A485BE;" cx="29" cy="15" r="1"/>
	<circle style="fill:#A485BE;" cx="23" cy="21" r="1"/>
	<circle style="fill:#A485BE;" cx="29" cy="21" r="1"/>
	<circle style="fill:#A485BE;" cx="26" cy="18" r="1"/>
	<circle style="fill:#A485BE;" cx="32" cy="18" r="1"/>
	<circle style="fill:#A485BE;" cx="26" cy="24" r="1"/>
	<circle style="fill:#A485BE;" cx="32" cy="24" r="1"/>
	<circle style="fill:#A485BE;" cx="35" cy="15" r="1"/>
	<circle style="fill:#A485BE;" cx="41" cy="15" r="1"/>
	<circle style="fill:#A485BE;" cx="35" cy="21" r="1"/>
	<circle style="fill:#A485BE;" cx="41" cy="21" r="1"/>
	<circle style="fill:#A485BE;" cx="38" cy="18" r="1"/>
	<circle style="fill:#A485BE;" cx="44" cy="18" r="1"/>
	<circle style="fill:#A485BE;" cx="38" cy="24" r="1"/>
	<circle style="fill:#A485BE;" cx="44" cy="24" r="1"/>
	<circle style="fill:#A485BE;" cx="47" cy="21" r="1"/>
	<circle style="fill:#A485BE;" cx="50" cy="24" r="1"/>
	<circle style="fill:#A485BE;" cx="5" cy="27" r="1"/>
	<circle style="fill:#A485BE;" cx="8" cy="30" r="1"/>
	<circle style="fill:#A485BE;" cx="11" cy="27" r="1"/>
	<circle style="fill:#A485BE;" cx="17" cy="27" r="1"/>
	<circle style="fill:#A485BE;" cx="17" cy="33" r="1"/>
	<circle style="fill:#A485BE;" cx="14" cy="30" r="1"/>
	<circle style="fill:#A485BE;" cx="20" cy="30" r="1"/>
	<circle style="fill:#A485BE;" cx="20" cy="36" r="1"/>
	<circle style="fill:#A485BE;" cx="23" cy="27" r="1"/>
	<circle style="fill:#A485BE;" cx="29" cy="27" r="1"/>
	<circle style="fill:#A485BE;" cx="23" cy="33" r="1"/>
	<circle style="fill:#A485BE;" cx="29" cy="33" r="1"/>
	<circle style="fill:#A485BE;" cx="26" cy="30" r="1"/>
	<circle style="fill:#A485BE;" cx="32" cy="30" r="1"/>
	<circle style="fill:#A485BE;" cx="26" cy="36" r="1"/>
	<circle style="fill:#A485BE;" cx="32" cy="36" r="1"/>
	<circle style="fill:#A485BE;" cx="35" cy="27" r="1"/>
	<circle style="fill:#A485BE;" cx="41" cy="27" r="1"/>
	<circle style="fill:#A485BE;" cx="35" cy="33" r="1"/>
	<circle style="fill:#A485BE;" cx="41" cy="33" r="1"/>
	<circle style="fill:#A485BE;" cx="38" cy="30" r="1"/>
	<circle style="fill:#A485BE;" cx="44" cy="30" r="1"/>
	<circle style="fill:#A485BE;" cx="38" cy="36" r="1"/>
	<circle style="fill:#A485BE;" cx="47" cy="27" r="1"/>
	<circle style="fill:#A485BE;" cx="53" cy="27" r="1"/>
	<circle style="fill:#A485BE;" cx="50" cy="30" r="1"/>
	<circle style="fill:#A485BE;" cx="29" cy="39" r="1"/>
	<path style="fill:#694F87;" d="M57.909,26.05L29,41.99l28.602,15.771c-0.033,0.127-0.029,0.112-0.062,0.239h0.331
		C57.942,58,58,57.942,58,57.871V26.103C58,26.057,57.95,26.027,57.909,26.05z"/>
	<path style="fill:#543877;" d="M0.091,26.05l57.511,31.711c-0.033,0.128-0.029,0.111-0.062,0.239H0.129C0.058,58,0,57.942,0,57.871
		l0-31.767C0,26.057,0.05,26.027,0.091,26.05z"/>
</g>
<g>
</g>
<g>
</g>
<g>
</g>
<g>
</g>
<g>
</g>
<g>
</g>
<g>
</g>
<g>
</g>
<g>
</g>
<g>
</g>
<g>
</g>
<g>
</g>
<g>
</g>
<g>
</g>
<g>
</g>
</svg>
