<?xml version="1.0" encoding="iso-8859-1"?>
<!-- Generator: Adobe Illustrator 18.0.0, SVG Export Plug-In . SVG Version: 6.00 Build 0)  -->
<!DOCTYPE svg PUBLIC "-//W3C//DTD SVG 1.1//EN" "http://www.w3.org/Graphics/SVG/1.1/DTD/svg11.dtd">
<svg version="1.1" id="Capa_1" xmlns="http://www.w3.org/2000/svg" xmlns:xlink="http://www.w3.org/1999/xlink" x="0px" y="0px"
	 viewBox="0 0 58 58" style="enable-background:new 0 0 58 58;" xml:space="preserve">
<g>
	<rect y="18.438" style="fill:#D1D0BF;" width="58" height="34"/>
	<g>
		<path style="fill:#C4C2A5;" d="M56.674,18.438l-3.45-12.875L5.226,18.423c-0.008,0.002-0.007,0.014,0.002,0.014H56.674z"/>
	</g>
	<polygon style="fill:#C4C2A5;" points="47.219,18.438 52.667,27.438 58,35.438 58,18.438 	"/>
	<polygon style="fill:#C4C2A5;" points="0,18.438 0,35.515 0.075,35.438 5.371,27.494 12.074,18.438 	"/>
	<path style="fill:#E5E5DA;" d="M9.935,34.438L0.227,18.779c-0.097-0.146,0.007-0.341,0.183-0.341h57.18
		c0.175,0,0.28,0.195,0.183,0.341l-9.707,15.659H9.935z"/>
	<path style="fill:#D1D0BF;" d="M53.222,5.563L5.226,18.423c-0.008,0.002-0.007,0.014,0.002,0.014h0.614h43.443l3.807-12.487
		L53.222,5.563z"/>
</g>
<g>
</g>
<g>
</g>
<g>
</g>
<g>
</g>
<g>
</g>
<g>
</g>
<g>
</g>
<g>
</g>
<g>
</g>
<g>
</g>
<g>
</g>
<g>
</g>
<g>
</g>
<g>
</g>
<g>
</g>
</svg>
