<?xml version="1.0" encoding="iso-8859-1"?>
<!-- Generator: Adobe Illustrator 18.0.0, SVG Export Plug-In . SVG Version: 6.00 Build 0)  -->
<!DOCTYPE svg PUBLIC "-//W3C//DTD SVG 1.1//EN" "http://www.w3.org/Graphics/SVG/1.1/DTD/svg11.dtd">
<svg version="1.1" id="Capa_1" xmlns="http://www.w3.org/2000/svg" xmlns:xlink="http://www.w3.org/1999/xlink" x="0px" y="0px"
	 viewBox="0 0 52 52" style="enable-background:new 0 0 52 52;" xml:space="preserve">
<g>
	<path style="fill:#6B5B4B;" d="M50.126,51H1.874C0.839,51,0,50.161,0,49.126V26.268C0,26.12,0.12,26,0.268,26h51.464
		C51.88,26,52,26.12,52,26.268v22.858C52,50.161,51.161,51,50.126,51z"/>
	<path style="fill:#493E33;" d="M51.798,26H0.202c-0.097,0-0.164-0.098-0.129-0.188L9.577,2.058C9.832,1.419,10.451,1,11.14,1H40.86
		c0.688,0,1.307,0.419,1.563,1.058l9.504,23.754C51.962,25.902,51.896,26,51.798,26z"/>
	<path style="fill:#BFA380;" d="M45,22H7c-0.553,0-1-0.448-1-1s0.447-1,1-1h38c0.553,0,1,0.448,1,1S45.553,22,45,22z"/>
	<path style="fill:#BFA380;" d="M43,17H9c-0.553,0-1-0.448-1-1s0.447-1,1-1h34c0.553,0,1,0.448,1,1S43.553,17,43,17z"/>
	<path style="fill:#BFA380;" d="M41,12H11c-0.553,0-1-0.448-1-1s0.447-1,1-1h30c0.553,0,1,0.448,1,1S41.553,12,41,12z"/>
	<path style="fill:#BFA380;" d="M39,7H13c-0.553,0-1-0.448-1-1s0.447-1,1-1h26c0.553,0,1,0.448,1,1S39.553,7,39,7z"/>
	<path style="fill:#493E33;" d="M37,40H15c-2.209,0-4-1.791-4-4v0c0-2.209,1.791-4,4-4h22c2.209,0,4,1.791,4,4v0
		C41,38.209,39.209,40,37,40z"/>
</g>
<g>
</g>
<g>
</g>
<g>
</g>
<g>
</g>
<g>
</g>
<g>
</g>
<g>
</g>
<g>
</g>
<g>
</g>
<g>
</g>
<g>
</g>
<g>
</g>
<g>
</g>
<g>
</g>
<g>
</g>
</svg>
