<?xml version="1.0" encoding="iso-8859-1"?>
<!-- Generator: Adobe Illustrator 18.0.0, SVG Export Plug-In . SVG Version: 6.00 Build 0)  -->
<!DOCTYPE svg PUBLIC "-//W3C//DTD SVG 1.1//EN" "http://www.w3.org/Graphics/SVG/1.1/DTD/svg11.dtd">
<svg version="1.1" id="Capa_1" xmlns="http://www.w3.org/2000/svg" xmlns:xlink="http://www.w3.org/1999/xlink" x="0px" y="0px"
	 viewBox="0 0 56 56" style="enable-background:new 0 0 56 56;" xml:space="preserve">
<g>
	<path style="fill:#7383BF;" d="M39,32.5v7H17v-7H0.052C0.024,32.5,0,32.524,0,32.552v19.563C0,53.433,1.067,54.5,2.384,54.5h51.231
		c1.317,0,2.384-1.067,2.384-2.384V32.552c0-0.029-0.024-0.052-0.052-0.052H39z"/>
	<path style="fill:#536396;" d="M46,17.5H35H21H10L0.019,32.453C0.01,32.475,0.027,32.5,0.051,32.5H17v7h22v-7h16.949
		c0.025,0,0.041-0.025,0.032-0.047L46,17.5z"/>
	<path style="fill:#38454F;" d="M36.707,23.793c-0.391-0.391-1.023-0.391-1.414,0L29,30.086V2.5c0-0.552-0.447-1-1-1s-1,0.448-1,1
		v27.586l-6.293-6.293c-0.391-0.391-1.023-0.391-1.414,0s-0.391,1.023,0,1.414l7.999,7.999c0.001,0.001,0.001,0.001,0.002,0.002
		L28,33.914l0.706-0.706c0.001-0.001,0.001-0.001,0.002-0.002l7.999-7.999C37.098,24.816,37.098,24.184,36.707,23.793z"/>
</g>
<g>
</g>
<g>
</g>
<g>
</g>
<g>
</g>
<g>
</g>
<g>
</g>
<g>
</g>
<g>
</g>
<g>
</g>
<g>
</g>
<g>
</g>
<g>
</g>
<g>
</g>
<g>
</g>
<g>
</g>
</svg>
