<?xml version="1.0" encoding="iso-8859-1"?>
<!-- Generator: Adobe Illustrator 18.0.0, SVG Export Plug-In . SVG Version: 6.00 Build 0)  -->
<!DOCTYPE svg PUBLIC "-//W3C//DTD SVG 1.1//EN" "http://www.w3.org/Graphics/SVG/1.1/DTD/svg11.dtd">
<svg version="1.1" id="Capa_1" xmlns="http://www.w3.org/2000/svg" xmlns:xlink="http://www.w3.org/1999/xlink" x="0px" y="0px"
	 viewBox="0 0 56 56" style="enable-background:new 0 0 56 56;" xml:space="preserve">
<g>
	<path style="fill:#25AE88;" d="M39,32.707v7H17v-7H0.052C0.024,32.707,0,32.731,0,32.76v19.563c0,1.317,1.067,2.384,2.384,2.384
		h51.231c1.317,0,2.384-1.067,2.384-2.384V32.76c0-0.029-0.024-0.052-0.052-0.052H39z"/>
	<path style="fill:#1A9172;" d="M46,17.707H35H21H10L0.019,32.66c-0.009,0.023,0.008,0.047,0.032,0.047H17v7h22v-7h16.949
		c0.025,0,0.041-0.025,0.032-0.047L46,17.707z"/>
	<path style="fill:#A4E869;" d="M36.707,10l-7.999-7.999C28.707,2,28.707,2,28.706,1.999L28,1.293l-0.706,0.706
		C27.293,2,27.293,2,27.292,2.001L19.293,10c-0.391,0.391-0.391,1.023,0,1.414s1.023,0.391,1.414,0L27,5.121v27.586
		c0,0.552,0.447,1,1,1s1-0.448,1-1V5.121l6.293,6.293c0.195,0.195,0.451,0.293,0.707,0.293s0.512-0.098,0.707-0.293
		C37.098,11.023,37.098,10.391,36.707,10z"/>
</g>
<g>
</g>
<g>
</g>
<g>
</g>
<g>
</g>
<g>
</g>
<g>
</g>
<g>
</g>
<g>
</g>
<g>
</g>
<g>
</g>
<g>
</g>
<g>
</g>
<g>
</g>
<g>
</g>
<g>
</g>
</svg>
