<?xml version="1.0" encoding="iso-8859-1"?>
<!-- Generator: Adobe Illustrator 18.0.0, SVG Export Plug-In . SVG Version: 6.00 Build 0)  -->
<!DOCTYPE svg PUBLIC "-//W3C//DTD SVG 1.1//EN" "http://www.w3.org/Graphics/SVG/1.1/DTD/svg11.dtd">
<svg version="1.1" id="Capa_1" xmlns="http://www.w3.org/2000/svg" xmlns:xlink="http://www.w3.org/1999/xlink" x="0px" y="0px"
	 viewBox="0 0 56.938 56.938" style="enable-background:new 0 0 56.938 56.938;" xml:space="preserve">
<g>
	<g>
		<path style="fill:#52C306;" d="M53.978,44.372c-1.898-3.587-8.899-7.69-8.899-7.69c-1.584-0.903-3.495-1.004-4.399,0.606
			c0,0-2.274,2.728-2.853,3.12c-2.643,1.791-5.091,1.722-7.562-0.75l-5.743-5.743l-5.743-5.743c-2.472-2.472-2.541-4.919-0.75-7.562
			c0.392-0.579,3.12-2.853,3.12-2.853c1.609-0.904,1.509-2.815,0.606-4.399c0,0-4.103-7.001-7.69-8.899
			c-1.526-0.808-3.4-0.526-4.621,0.695L6.905,7.689c-8.045,8.045-4.084,17.129,3.961,25.174l7.353,7.353l7.353,7.353
			c8.045,8.045,17.129,12.007,25.174,3.961l2.537-2.537C54.503,47.772,54.785,45.898,53.978,44.372z"/>
		<path style="fill:#388F04;" d="M41.156,56.938c-1.054,0-2.128-0.127-3.223-0.38c-4.132-0.956-8.529-3.742-13.069-8.282
			L10.159,33.57c-4.54-4.54-7.326-8.938-8.282-13.069c-1.146-4.957,0.308-9.506,4.321-13.519l2.536-2.537
			c1.541-1.541,3.871-1.892,5.796-0.872c3.796,2.008,7.912,8.98,8.085,9.276c0.734,1.288,0.964,2.61,0.652,3.733
			c-0.233,0.844-0.767,1.531-1.545,1.994c-1.22,1.02-2.646,2.285-2.869,2.595c-1.603,2.364-1.414,4.247,0.631,6.292L30.971,38.95
			c2.043,2.044,3.924,2.233,6.295,0.629c0.307-0.222,1.572-1.647,2.592-2.867c0.463-0.778,1.15-1.312,1.994-1.545
			c1.123-0.313,2.444-0.082,3.723,0.646c0.307,0.18,7.279,4.296,9.287,8.092l0,0c1.02,1.925,0.669,4.254-0.872,5.796l-2.537,2.536
			C48.325,55.364,44.873,56.937,41.156,56.938z M12.219,4.997c-0.757,0-1.503,0.296-2.07,0.862L7.612,8.396
			c-3.542,3.542-4.781,7.354-3.787,11.654c0.87,3.762,3.477,7.834,7.748,12.105l14.705,14.705c4.271,4.271,8.344,6.878,12.105,7.748
			c4.296,0.989,8.112-0.243,11.654-3.787l2.537-2.536c0.916-0.917,1.124-2.302,0.519-3.446l0,0
			c-1.448-2.737-6.642-6.194-8.521-7.296c-0.777-0.442-1.6-0.614-2.187-0.45c-0.36,0.1-0.633,0.323-0.835,0.683l-0.104,0.151
			c-0.712,0.853-2.434,2.883-3.062,3.308c-3.148,2.132-6.119,1.84-8.83-0.871L18.07,28.878c-2.711-2.711-3.004-5.682-0.871-8.83
			c0.425-0.628,2.455-2.35,3.308-3.062l0.151-0.104c0.359-0.202,0.583-0.475,0.683-0.835c0.163-0.588-0.008-1.409-0.457-2.197
			c-0.033-0.057-3.995-6.767-7.289-8.51C13.158,5.109,12.687,4.997,12.219,4.997z"/>
	</g>
	<path style="fill:#388F04;" d="M41.5,45.936c-0.034,0-0.069-0.002-0.104-0.005c-6.895-0.716-11.409-5.097-11.599-5.283
		c-0.393-0.387-0.397-1.019-0.011-1.412c0.386-0.395,1.019-0.4,1.414-0.013c0.041,0.04,4.227,4.077,10.402,4.718
		c0.549,0.058,0.948,0.549,0.892,1.099C42.44,45.553,42.006,45.936,41.5,45.936z"/>
	<path style="fill:#388F04;" d="M19.498,29.936c-0.224,0-0.448-0.075-0.635-0.229c-0.229-0.188-5.638-4.715-6.359-11.668
		c-0.057-0.55,0.343-1.041,0.892-1.099c0.56-0.049,1.041,0.343,1.099,0.892c0.635,6.12,5.592,10.291,5.642,10.332
		c0.425,0.353,0.485,0.982,0.134,1.408C20.071,29.812,19.786,29.936,19.498,29.936z"/>
	<path style="fill:#ED8A19;" d="M47.08,5.402c-0.322-0.452-0.733-0.872-1.293-1.32c-2.021-1.617-2.352-3.172-2.368-3.257
		c-0.007-0.038-0.03-0.068-0.041-0.104c-0.019-0.065-0.041-0.126-0.072-0.185c-0.031-0.059-0.067-0.109-0.108-0.16
		c-0.038-0.047-0.076-0.089-0.122-0.128c-0.054-0.047-0.112-0.084-0.175-0.118c-0.048-0.026-0.094-0.048-0.146-0.066
		c-0.072-0.025-0.144-0.037-0.221-0.045C42.5,0.017,42.47,0,42.435,0c-0.028,0-0.051,0.014-0.078,0.016
		c-0.029,0.003-0.056-0.007-0.086-0.002c-0.04,0.007-0.07,0.03-0.108,0.041c-0.067,0.019-0.129,0.04-0.189,0.072
		c-0.056,0.03-0.105,0.064-0.154,0.103c-0.051,0.041-0.097,0.082-0.139,0.132c-0.041,0.049-0.073,0.1-0.105,0.155
		c-0.031,0.056-0.058,0.111-0.079,0.172c-0.021,0.063-0.031,0.127-0.039,0.195C41.453,0.924,41.435,0.959,41.435,1v16h-3
		c-2.757,0-5,2.243-5,5s2.243,5,5,5s5-2.243,5-5v-1.646V18V4.616c0.32,0.34,0.673,0.684,1.103,1.028
		c0.412,0.33,0.702,0.622,0.914,0.92c0.671,0.939,1.34,2.495,0.714,4.564c-0.16,0.528,0.139,1.086,0.668,1.246
		c0.096,0.029,0.193,0.043,0.289,0.043c0.43,0,0.826-0.278,0.957-0.711C48.985,8.71,47.842,6.47,47.08,5.402z"/>
</g>
<g>
</g>
<g>
</g>
<g>
</g>
<g>
</g>
<g>
</g>
<g>
</g>
<g>
</g>
<g>
</g>
<g>
</g>
<g>
</g>
<g>
</g>
<g>
</g>
<g>
</g>
<g>
</g>
<g>
</g>
</svg>
