<?xml version="1.0" encoding="iso-8859-1"?>
<!-- Generator: Adobe Illustrator 18.0.0, SVG Export Plug-In . SVG Version: 6.00 Build 0)  -->
<!DOCTYPE svg PUBLIC "-//W3C//DTD SVG 1.1//EN" "http://www.w3.org/Graphics/SVG/1.1/DTD/svg11.dtd">
<svg version="1.1" id="Capa_1" xmlns="http://www.w3.org/2000/svg" xmlns:xlink="http://www.w3.org/1999/xlink" x="0px" y="0px"
	 viewBox="0 0 53.943 53.943" style="enable-background:new 0 0 53.943 53.943;" xml:space="preserve">
<g>
	<path style="fill:#1081E0;" d="M40.003,42.941c-0.034,0-0.069-0.002-0.104-0.005c-6.895-0.716-11.409-5.097-11.599-5.283
		c-0.393-0.387-0.397-1.019-0.011-1.412c0.386-0.395,1.019-0.4,1.414-0.013c0.041,0.04,4.227,4.077,10.402,4.718
		c0.549,0.058,0.948,0.549,0.892,1.099C40.943,42.558,40.509,42.941,40.003,42.941z"/>
	<path style="fill:#1081E0;" d="M18.001,26.941c-0.224,0-0.448-0.075-0.635-0.229c-0.229-0.188-5.638-4.715-6.359-11.668
		c-0.057-0.55,0.343-1.041,0.892-1.099c0.553-0.048,1.041,0.343,1.099,0.892c0.635,6.12,5.592,10.291,5.642,10.332
		c0.425,0.353,0.485,0.982,0.134,1.408C18.574,26.817,18.289,26.941,18.001,26.941z"/>
	<g>
		<path style="fill:#A4E869;" d="M52.48,41.377c-1.898-3.588-8.899-7.69-8.899-7.69c-1.584-0.903-3.495-1.003-4.399,0.606
			c0,0-2.274,2.728-2.853,3.12c-2.643,1.791-5.091,1.721-7.563-0.75l-2.382-2.383l-5.657-5.657l-3.447-3.447
			c-2.472-2.472-2.541-4.919-0.75-7.563c0.392-0.579,3.12-2.853,3.12-2.853c1.609-0.904,1.509-2.815,0.606-4.399
			c0,0-4.103-7-7.69-8.899c-1.526-0.808-3.4-0.526-4.621,0.695L5.407,4.694c-8.046,8.045-4.084,17.129,3.961,25.174l5.057,5.057
			l5.657,5.657l3.992,3.992c8.045,8.045,17.129,12.007,25.174,3.961l2.537-2.537C53.006,44.777,53.288,42.903,52.48,41.377z"/>
		<path style="fill:#88C057;" d="M39.659,53.943c-1.054,0-2.129-0.127-3.224-0.38c-4.132-0.956-8.529-3.742-13.068-8.282
			L8.662,30.575c-4.54-4.539-7.326-8.937-8.282-13.068C-0.767,12.549,0.686,8,4.7,3.987L7.237,1.45
			c1.541-1.541,3.868-1.891,5.796-0.872c3.796,2.008,7.912,8.98,8.085,9.276c0.725,1.27,0.96,2.626,0.653,3.732
			c-0.234,0.845-0.768,1.532-1.546,1.995c-1.221,1.021-2.646,2.286-2.871,2.596c-1.601,2.363-1.412,4.246,0.632,6.291l11.487,11.486
			c2.043,2.043,3.924,2.232,6.295,0.629c0.307-0.222,1.571-1.647,2.591-2.867c0.464-0.778,1.151-1.312,1.996-1.546
			c1.121-0.309,2.443-0.081,3.721,0.646c0.307,0.18,7.28,4.296,9.288,8.092l0,0c1.02,1.925,0.669,4.254-0.872,5.795l-2.537,2.537
			C46.828,52.368,43.376,53.943,39.659,53.943z M10.721,2.002c-0.758,0-1.504,0.296-2.07,0.862L6.114,5.402
			c-3.542,3.542-4.78,7.354-3.786,11.654c0.87,3.762,3.477,7.835,7.748,12.105l14.705,14.705c4.271,4.271,8.344,6.878,12.105,7.748
			c4.302,0.99,8.113-0.244,11.654-3.787l2.537-2.537c0.916-0.916,1.124-2.301,0.519-3.445l0,0c-1.448-2.737-6.643-6.194-8.521-7.296
			c-0.775-0.442-1.599-0.615-2.186-0.45c-0.36,0.1-0.634,0.323-0.836,0.684l-0.104,0.149c-0.711,0.854-2.433,2.884-3.061,3.309
			c-3.147,2.133-6.119,1.841-8.83-0.871L16.572,25.883c-2.71-2.711-3.003-5.682-0.871-8.83c0.426-0.629,2.456-2.351,3.309-3.062
			l0.151-0.104c0.359-0.202,0.583-0.475,0.683-0.835c0.163-0.588-0.008-1.409-0.457-2.197c-0.033-0.057-3.995-6.767-7.289-8.51
			C11.661,2.114,11.188,2.002,10.721,2.002z"/>
	</g>
	<path style="fill:#FC3952;" d="M1.937,53.941c-0.256,0-0.512-0.098-0.707-0.293c-0.391-0.391-0.391-1.023,0-1.414l41-41
		c0.391-0.391,1.023-0.391,1.414,0s0.391,1.023,0,1.414l-41,41C2.449,53.843,2.193,53.941,1.937,53.941z"/>
</g>
<g>
</g>
<g>
</g>
<g>
</g>
<g>
</g>
<g>
</g>
<g>
</g>
<g>
</g>
<g>
</g>
<g>
</g>
<g>
</g>
<g>
</g>
<g>
</g>
<g>
</g>
<g>
</g>
<g>
</g>
</svg>
