<?xml version="1.0" encoding="iso-8859-1"?>
<!-- Generator: Adobe Illustrator 18.0.0, SVG Export Plug-In . SVG Version: 6.00 Build 0)  -->
<!DOCTYPE svg PUBLIC "-//W3C//DTD SVG 1.1//EN" "http://www.w3.org/Graphics/SVG/1.1/DTD/svg11.dtd">
<svg version="1.1" id="Capa_1" xmlns="http://www.w3.org/2000/svg" xmlns:xlink="http://www.w3.org/1999/xlink" x="0px" y="0px"
	 viewBox="0 0 59.018 59.018" style="enable-background:new 0 0 59.018 59.018;" xml:space="preserve">
<g>
	<path style="fill:#DD352E;" d="M56.01,26h-20V1c0-0.553,0.448-1,1-1s1,0.447,1,1v23h18c0.552,0,1,0.447,1,1S56.562,26,56.01,26z"/>
	<path style="fill:#DD352E;" d="M28.01,11c-0.256,0-0.512-0.098-0.707-0.293c-0.391-0.391-0.391-1.023,0-1.414l9-9
		c0.391-0.391,1.023-0.391,1.414,0s0.391,1.023,0,1.414l-9,9C28.521,10.902,28.265,11,28.01,11z"/>
	<path style="fill:#DD352E;" d="M46.01,11c-0.256,0-0.512-0.098-0.707-0.293l-9-9c-0.391-0.391-0.391-1.023,0-1.414
		s1.023-0.391,1.414,0l9,9c0.391,0.391,0.391,1.023,0,1.414C46.521,10.902,46.265,11,46.01,11z"/>
	<g>
		<path style="fill:#52C306;" d="M54.488,46.457c-1.898-3.587-8.899-7.69-8.899-7.69c-1.584-0.903-3.495-1.004-4.399,0.606
			c0,0-2.274,2.728-2.853,3.12c-2.643,1.791-5.091,1.722-7.562-0.75L25.031,36l-5.743-5.743c-2.472-2.472-2.541-4.919-0.75-7.562
			c0.392-0.579,3.12-2.853,3.12-2.853c1.609-0.904,1.509-2.815,0.606-4.399c0,0-4.103-7.001-7.69-8.899
			c-1.526-0.808-3.4-0.526-4.621,0.695L7.415,9.774c-8.045,8.045-4.084,17.129,3.961,25.174l7.353,7.353l7.353,7.353
			c8.045,8.045,17.129,12.007,25.174,3.961l2.537-2.537C55.014,49.857,55.296,47.983,54.488,46.457z"/>
		<path style="fill:#388F04;" d="M41.672,59.018c-5.04,0-10.536-2.895-16.298-8.656L10.669,35.655
			c-4.54-4.539-7.326-8.937-8.282-13.068c-1.146-4.957,0.307-9.506,4.321-13.52L9.245,6.53c1.541-1.541,3.871-1.891,5.796-0.872
			c3.795,2.008,7.912,8.981,8.085,9.277c0.734,1.287,0.963,2.608,0.652,3.731c-0.234,0.844-0.768,1.532-1.546,1.996
			c-1.22,1.021-2.646,2.286-2.87,2.596c-1.602,2.363-1.414,4.246,0.631,6.291l11.486,11.486c2.045,2.044,3.927,2.232,6.294,0.629
			c0.306-0.222,1.572-1.647,2.592-2.867c0.463-0.778,1.151-1.312,1.996-1.546c1.124-0.313,2.445-0.082,3.721,0.646
			c0.307,0.18,7.279,4.297,9.288,8.092l0,0c1.019,1.926,0.669,4.255-0.872,5.796l-2.537,2.537
			C48.829,57.456,45.373,59.018,41.672,59.018z M12.729,7.082c-0.757,0-1.503,0.296-2.07,0.862l-2.537,2.537
			c-3.542,3.543-4.781,7.354-3.786,11.655c0.87,3.761,3.476,7.834,7.747,12.104l14.705,14.706
			c9.197,9.196,17.191,10.528,23.76,3.961l2.537-2.537c0.916-0.916,1.125-2.301,0.519-3.446l0,0
			c-1.743-3.293-8.454-7.256-8.521-7.296c-0.777-0.442-1.597-0.609-2.186-0.45c-0.36,0.101-0.634,0.324-0.836,0.684l-0.104,0.151
			c-0.711,0.853-2.433,2.882-3.061,3.308c-3.149,2.133-6.119,1.84-8.831-0.871L18.58,30.964c-2.711-2.711-3.004-5.683-0.871-8.831
			c0.425-0.627,2.455-2.349,3.308-3.061l0.15-0.104c0.36-0.202,0.583-0.476,0.684-0.836c0.163-0.588-0.008-1.409-0.457-2.196
			c-0.034-0.057-3.996-6.768-7.29-8.511C13.669,7.194,13.197,7.082,12.729,7.082z"/>
	</g>
	<path style="fill:#388F04;" d="M42.011,48.021c-0.034,0-0.069-0.002-0.104-0.005c-6.895-0.716-11.41-5.097-11.599-5.283
		c-0.393-0.387-0.397-1.019-0.011-1.412c0.387-0.393,1.021-0.399,1.414-0.013c0.042,0.04,4.228,4.077,10.402,4.718
		c0.549,0.058,0.949,0.549,0.892,1.099C42.951,47.638,42.517,48.021,42.011,48.021z"/>
	<path style="fill:#388F04;" d="M20.008,32.021c-0.223,0-0.448-0.075-0.634-0.229c-0.23-0.188-5.637-4.715-6.359-11.668
		c-0.057-0.55,0.342-1.041,0.892-1.099c0.552-0.043,1.041,0.344,1.098,0.892c0.635,6.12,5.592,10.291,5.642,10.332
		c0.425,0.353,0.485,0.982,0.134,1.408C20.582,31.896,20.296,32.021,20.008,32.021z"/>
</g>
<g>
</g>
<g>
</g>
<g>
</g>
<g>
</g>
<g>
</g>
<g>
</g>
<g>
</g>
<g>
</g>
<g>
</g>
<g>
</g>
<g>
</g>
<g>
</g>
<g>
</g>
<g>
</g>
<g>
</g>
</svg>
