<?xml version="1.0" encoding="iso-8859-1"?>
<!-- Generator: Adobe Illustrator 18.0.0, SVG Export Plug-In . SVG Version: 6.00 Build 0)  -->
<!DOCTYPE svg PUBLIC "-//W3C//DTD SVG 1.1//EN" "http://www.w3.org/Graphics/SVG/1.1/DTD/svg11.dtd">
<svg version="1.1" id="Capa_1" xmlns="http://www.w3.org/2000/svg" xmlns:xlink="http://www.w3.org/1999/xlink" x="0px" y="0px"
	 viewBox="0 0 53.942 53.942" style="enable-background:new 0 0 53.942 53.942;" xml:space="preserve">
<g>
	<path style="fill:#48A0DC;" d="M46.977,19.922c-0.552,0-1-0.447-1-1v-12c0-0.553,0.448-1,1-1s1,0.447,1,1v12
		C47.977,19.475,47.529,19.922,46.977,19.922z"/>
	<path style="fill:#48A0DC;" d="M46.912,7.922h-12c-0.552,0-1-0.447-1-1s0.448-1,1-1h12c0.552,0,1,0.447,1,1
		S47.465,7.922,46.912,7.922z"/>
	<path style="fill:#48A0DC;" d="M29.977,24.922c-0.256,0-0.512-0.098-0.707-0.293c-0.391-0.391-0.391-1.023,0-1.414l17-17
		c0.391-0.391,1.023-0.391,1.414,0s0.391,1.023,0,1.414l-17,17C30.488,24.825,30.233,24.922,29.977,24.922z"/>
	<g>
		<path style="fill:#52C306;" d="M52.48,41.38c-1.898-3.587-8.899-7.69-8.899-7.69c-1.584-0.903-3.495-1.004-4.399,0.606
			c0,0-2.274,2.728-2.853,3.12c-2.643,1.791-5.091,1.722-7.562-0.75l-5.743-5.743l-5.743-5.743c-2.472-2.472-2.541-4.919-0.75-7.562
			c0.392-0.579,3.12-2.853,3.12-2.853c1.609-0.904,1.509-2.815,0.606-4.399c0,0-4.103-7.001-7.69-8.899
			c-1.526-0.808-3.4-0.526-4.621,0.695L5.407,4.697c-8.045,8.045-4.084,17.129,3.961,25.174l7.353,7.353l7.353,7.353
			c8.045,8.045,17.129,12.007,25.174,3.961l2.537-2.537C53.006,44.78,53.288,42.906,52.48,41.38z"/>
		<path style="fill:#388F04;" d="M39.664,53.94c-5.04,0-10.536-2.895-16.298-8.656L8.661,30.578
			c-4.54-4.539-7.326-8.937-8.282-13.068C-0.767,12.552,0.687,8.003,4.7,3.99l2.537-2.537c1.542-1.541,3.87-1.891,5.796-0.872
			c3.795,2.008,7.912,8.981,8.085,9.277c0.734,1.287,0.963,2.608,0.652,3.731c-0.234,0.844-0.768,1.532-1.546,1.996
			c-1.22,1.021-2.646,2.286-2.87,2.596c-1.602,2.363-1.414,4.246,0.631,6.291l11.486,11.486c2.045,2.044,3.926,2.232,6.294,0.629
			c0.306-0.222,1.572-1.647,2.592-2.867c0.463-0.778,1.151-1.312,1.996-1.546c1.125-0.313,2.445-0.082,3.721,0.646
			c0.307,0.18,7.279,4.297,9.288,8.092l0,0c1.019,1.926,0.669,4.255-0.872,5.796l-2.537,2.537
			C46.821,52.378,43.365,53.94,39.664,53.94z M10.721,2.004c-0.757,0-1.503,0.296-2.07,0.862L6.114,5.404
			c-3.542,3.543-4.781,7.354-3.786,11.655c0.87,3.761,3.476,7.834,7.747,12.104L24.78,43.87c9.197,9.196,17.192,10.528,23.76,3.961
			l2.537-2.537c0.916-0.916,1.125-2.301,0.519-3.446l0,0c-1.743-3.293-8.454-7.256-8.521-7.296c-0.777-0.442-1.597-0.609-2.186-0.45
			c-0.36,0.101-0.634,0.324-0.836,0.684l-0.104,0.151c-0.711,0.853-2.433,2.882-3.061,3.308c-3.149,2.133-6.119,1.84-8.831-0.871
			L16.572,25.886c-2.711-2.711-3.004-5.683-0.871-8.831c0.425-0.627,2.455-2.349,3.308-3.061l0.15-0.104
			c0.36-0.202,0.583-0.476,0.684-0.836c0.163-0.588-0.008-1.409-0.457-2.196c-0.034-0.057-3.996-6.768-7.29-8.511
			C11.661,2.117,11.189,2.004,10.721,2.004z"/>
	</g>
	<path style="fill:#388F04;" d="M40.003,42.943c-0.034,0-0.069-0.002-0.104-0.005c-6.895-0.716-11.41-5.097-11.599-5.283
		c-0.393-0.387-0.397-1.019-0.011-1.412c0.387-0.393,1.021-0.399,1.414-0.013c0.042,0.04,4.228,4.077,10.402,4.718
		c0.549,0.058,0.949,0.549,0.892,1.099C40.943,42.56,40.509,42.943,40.003,42.943z"/>
	<path style="fill:#388F04;" d="M18,26.943c-0.223,0-0.448-0.075-0.634-0.229c-0.23-0.188-5.637-4.715-6.359-11.668
		c-0.057-0.55,0.342-1.041,0.892-1.099c0.553-0.043,1.041,0.344,1.098,0.892c0.635,6.12,5.592,10.291,5.642,10.332
		c0.425,0.353,0.485,0.982,0.134,1.408C18.574,26.819,18.288,26.943,18,26.943z"/>
</g>
<g>
</g>
<g>
</g>
<g>
</g>
<g>
</g>
<g>
</g>
<g>
</g>
<g>
</g>
<g>
</g>
<g>
</g>
<g>
</g>
<g>
</g>
<g>
</g>
<g>
</g>
<g>
</g>
<g>
</g>
</svg>
