<?xml version="1.0" encoding="iso-8859-1"?>
<!-- Generator: Adobe Illustrator 18.0.0, SVG Export Plug-In . SVG Version: 6.00 Build 0)  -->
<!DOCTYPE svg PUBLIC "-//W3C//DTD SVG 1.1//EN" "http://www.w3.org/Graphics/SVG/1.1/DTD/svg11.dtd">
<svg version="1.1" id="Capa_1" xmlns="http://www.w3.org/2000/svg" xmlns:xlink="http://www.w3.org/1999/xlink" x="0px" y="0px"
	 viewBox="0 0 58 58" style="enable-background:new 0 0 58 58;" xml:space="preserve">
<g>
	<path style="fill:#F2ECBF;" d="M55,8l-1.108,0.739c-1.146,0.764-2.638,0.764-3.784,0L49,8l0,0c-2.209,2.209-5.791,2.209-8,0l0,0
		l0,0c-2.209,2.209-5.791,2.209-8,0l0,0l0,0c-2.209,2.209-5.791,2.209-8,0l0,0l0,0c-2.209,2.209-5.791,2.209-8,0l0,0l0,0
		c-2.209,2.209-5.791,2.209-8,0l0,0L7.892,8.739c-1.146,0.764-2.638,0.764-3.784,0L3,8l-3,3l0.739,1.108
		c0.764,1.146,0.764,2.638,0,3.784L0,17l0,0c2.209,2.209,2.209,5.791,0,8l0,0l0,0c2.209,2.209,2.209,5.791,0,8l0,0l0,0
		c2.209,2.209,2.209,5.791,0,8l0,0l0,0c1.629,1.086,2.012,3.318,0.837,4.884L0,47l3,3l1.116-0.837C5.682,47.988,7.914,48.371,9,50
		l0,0l0,0c2.209-2.209,5.791-2.209,8,0l0,0l0,0c2.209-2.209,5.791-2.209,8,0l0,0l0,0c2.209-2.209,5.791-2.209,8,0l0,0l0,0
		c2.209-2.209,5.791-2.209,8,0l0,0l0,0c2.209-2.209,5.791-2.209,8,0l0,0l0,0c1.086-1.629,3.318-2.012,4.884-0.837L55,50l3-3
		l-0.837-1.116C55.988,44.318,56.371,42.086,58,41l0,0l0,0c-2.209-2.209-2.209-5.791,0-8l0,0l0,0c-2.209-2.209-2.209-5.791,0-8l0,0
		l0,0c-2.209-2.209-2.209-5.791,0-8l0,0l-0.739-1.108c-0.764-1.146-0.764-2.638,0-3.784L58,11L55,8z"/>
	<rect x="6" y="14" style="fill:#BFA380;" width="46" height="30"/>
	<path style="fill:#556080;" d="M23,41c-3.309,0-6-2.691-6-6s2.691-6,6-6s6,2.691,6,6S26.309,41,23,41z M23,31c-2.206,0-4,1.794-4,4
		s1.794,4,4,4s4-1.794,4-4S25.206,31,23,31z"/>
	<path style="fill:#556080;" d="M35,33c-0.287,0-0.572-0.123-0.77-0.361c-0.683-0.824-1.778-0.824-2.461,0
		c-0.353,0.426-0.983,0.484-1.408,0.131c-0.425-0.353-0.484-0.982-0.131-1.408C30.958,30.483,31.942,30,33,30
		s2.042,0.483,2.77,1.361c0.353,0.426,0.294,1.056-0.131,1.408C35.452,32.925,35.226,33,35,33z"/>
	<path style="fill:#556080;" d="M37,34c-1.058,0-2.042-0.483-2.77-1.361c-0.353-0.426-0.294-1.056,0.131-1.408
		c0.425-0.354,1.055-0.293,1.408,0.131c0.683,0.824,1.778,0.824,2.461,0c0.354-0.424,0.983-0.484,1.408-0.131
		c0.425,0.353,0.484,0.982,0.131,1.408C39.042,33.517,38.058,34,37,34z"/>
	<path style="fill:#556080;" d="M43,33c-0.287,0-0.572-0.123-0.77-0.361c-0.683-0.824-1.778-0.824-2.461,0
		c-0.353,0.426-0.983,0.484-1.408,0.131c-0.425-0.353-0.484-0.982-0.131-1.408C38.958,30.483,39.942,30,41,30
		s2.042,0.483,2.77,1.361c0.353,0.426,0.294,1.056-0.131,1.408C43.452,32.925,43.226,33,43,33z"/>
	<path style="fill:#556080;" d="M45,34c-1.058,0-2.042-0.483-2.77-1.361c-0.353-0.426-0.294-1.056,0.131-1.408
		c0.425-0.354,1.055-0.293,1.408,0.131c0.683,0.824,1.778,0.824,2.461,0c0.351-0.424,0.982-0.485,1.408-0.131
		c0.425,0.353,0.483,0.982,0.131,1.408C47.042,33.517,46.058,34,45,34z"/>
	<path style="fill:#556080;" d="M35,39c-0.287,0-0.572-0.123-0.77-0.361c-0.683-0.824-1.778-0.824-2.461,0
		c-0.353,0.426-0.983,0.485-1.408,0.131c-0.425-0.353-0.484-0.982-0.131-1.408C30.958,36.483,31.942,36,33,36
		s2.042,0.483,2.77,1.361c0.353,0.426,0.294,1.056-0.131,1.408C35.452,38.925,35.226,39,35,39z"/>
	<path style="fill:#556080;" d="M37,40c-1.058,0-2.042-0.483-2.77-1.361c-0.353-0.426-0.294-1.056,0.131-1.408
		c0.425-0.354,1.055-0.293,1.408,0.131c0.683,0.824,1.778,0.824,2.461,0c0.354-0.424,0.983-0.484,1.408-0.131
		c0.425,0.353,0.484,0.982,0.131,1.408C39.042,39.517,38.058,40,37,40z"/>
	<path style="fill:#556080;" d="M43,39c-0.287,0-0.572-0.123-0.77-0.361c-0.683-0.824-1.778-0.824-2.461,0
		c-0.353,0.426-0.983,0.485-1.408,0.131c-0.425-0.353-0.484-0.982-0.131-1.408C38.958,36.483,39.942,36,41,36
		s2.042,0.483,2.77,1.361c0.353,0.426,0.294,1.056-0.131,1.408C43.452,38.925,43.226,39,43,39z"/>
	<path style="fill:#556080;" d="M45,40c-1.058,0-2.042-0.483-2.77-1.361c-0.353-0.426-0.294-1.056,0.131-1.408
		c0.425-0.354,1.055-0.293,1.408,0.131c0.683,0.824,1.778,0.824,2.461,0c0.351-0.424,0.982-0.484,1.408-0.131
		c0.425,0.353,0.483,0.982,0.131,1.408C47.042,39.517,46.058,40,45,40z"/>
	<g>
		<circle style="fill:#998164;" cx="12.468" cy="40.5" r="1"/>
		<circle style="fill:#998164;" cx="12.468" cy="34.5" r="1"/>
		<circle style="fill:#998164;" cx="9.468" cy="37.5" r="1"/>
		<circle style="fill:#998164;" cx="12.468" cy="28.5" r="1"/>
		<circle style="fill:#998164;" cx="9.468" cy="31.5" r="1"/>
		<circle style="fill:#998164;" cx="12.468" cy="22.5" r="1"/>
		<circle style="fill:#998164;" cx="18.468" cy="22.5" r="1"/>
		<circle style="fill:#998164;" cx="24.468" cy="22.5" r="1"/>
		<circle style="fill:#998164;" cx="30.468" cy="22.5" r="1"/>
		<circle style="fill:#998164;" cx="36.468" cy="22.5" r="1"/>
		<circle style="fill:#998164;" cx="42.468" cy="22.5" r="1"/>
		<circle style="fill:#998164;" cx="9.468" cy="25.5" r="1"/>
		<circle style="fill:#998164;" cx="15.468" cy="25.5" r="1"/>
		<circle style="fill:#998164;" cx="21.468" cy="25.5" r="1"/>
		<circle style="fill:#998164;" cx="27.468" cy="25.5" r="1"/>
		<circle style="fill:#998164;" cx="33.468" cy="25.5" r="1"/>
		<circle style="fill:#998164;" cx="39.468" cy="25.5" r="1"/>
		<circle style="fill:#998164;" cx="12.468" cy="16.5" r="1"/>
		<circle style="fill:#998164;" cx="18.468" cy="16.5" r="1"/>
		<circle style="fill:#998164;" cx="24.468" cy="16.5" r="1"/>
		<circle style="fill:#998164;" cx="30.468" cy="16.5" r="1"/>
		<circle style="fill:#998164;" cx="36.468" cy="16.5" r="1"/>
		<circle style="fill:#998164;" cx="42.468" cy="16.5" r="1"/>
		<circle style="fill:#998164;" cx="9.468" cy="19.5" r="1"/>
		<circle style="fill:#998164;" cx="15.468" cy="19.5" r="1"/>
		<circle style="fill:#998164;" cx="21.468" cy="19.5" r="1"/>
		<circle style="fill:#998164;" cx="27.468" cy="19.5" r="1"/>
		<circle style="fill:#998164;" cx="33.468" cy="19.5" r="1"/>
		<circle style="fill:#998164;" cx="39.468" cy="19.5" r="1"/>
		<circle style="fill:#998164;" cx="49" cy="22.5" r="1"/>
		<circle style="fill:#998164;" cx="46" cy="25.5" r="1"/>
		<circle style="fill:#998164;" cx="49" cy="16.5" r="1"/>
		<circle style="fill:#998164;" cx="46" cy="19.5" r="1"/>
	</g>
</g>
<g>
</g>
<g>
</g>
<g>
</g>
<g>
</g>
<g>
</g>
<g>
</g>
<g>
</g>
<g>
</g>
<g>
</g>
<g>
</g>
<g>
</g>
<g>
</g>
<g>
</g>
<g>
</g>
<g>
</g>
</svg>
