<?xml version="1.0" encoding="iso-8859-1"?>
<!-- Generator: Adobe Illustrator 18.0.0, SVG Export Plug-In . SVG Version: 6.00 Build 0)  -->
<!DOCTYPE svg PUBLIC "-//W3C//DTD SVG 1.1//EN" "http://www.w3.org/Graphics/SVG/1.1/DTD/svg11.dtd">
<svg version="1.1" id="Capa_1" xmlns="http://www.w3.org/2000/svg" xmlns:xlink="http://www.w3.org/1999/xlink" x="0px" y="0px"
	 viewBox="0 0 56 56" style="enable-background:new 0 0 56 56;" xml:space="preserve">
<g>
	<path style="fill:#E7ECED;" d="M56,16c0-1.299-0.619-2.454-1.579-3.184c-0.549-0.418-0.549-1.213,0-1.631
		C55.381,10.454,56,9.299,56,8c0-1.954-1.401-3.581-3.254-3.931c-0.417-0.079-0.736-0.398-0.815-0.815C51.581,1.401,49.954,0,48,0
		c-1.299,0-2.454,0.619-3.184,1.579c-0.418,0.549-1.213,0.549-1.631,0C42.454,0.619,41.299,0,40,0s-2.454,0.619-3.184,1.579
		c-0.418,0.549-1.213,0.549-1.631,0C34.454,0.619,33.299,0,32,0c-1.299,0-2.454,0.619-3.184,1.579c-0.418,0.549-1.213,0.549-1.631,0
		C26.454,0.619,25.299,0,24,0s-2.454,0.619-3.184,1.579c-0.418,0.549-1.213,0.549-1.631,0C18.454,0.619,17.299,0,16,0
		s-2.454,0.619-3.184,1.579c-0.418,0.549-1.213,0.549-1.631,0C10.454,0.619,9.299,0,8,0C6.046,0,4.419,1.401,4.069,3.254
		C3.991,3.672,3.672,3.991,3.254,4.069C1.401,4.419,0,6.046,0,8c0,1.299,0.619,2.454,1.579,3.184c0.549,0.418,0.549,1.213,0,1.631
		C0.619,13.546,0,14.701,0,16c0,1.299,0.619,2.454,1.579,3.184c0.549,0.418,0.549,1.213,0,1.631C0.619,21.546,0,22.701,0,24
		c0,1.299,0.619,2.454,1.579,3.184c0.549,0.418,0.549,1.213,0,1.631C0.619,29.546,0,30.701,0,32c0,1.299,0.619,2.454,1.579,3.184
		c0.549,0.418,0.549,1.213,0,1.631C0.619,37.546,0,38.701,0,40c0,1.299,0.619,2.454,1.579,3.184c0.549,0.418,0.549,1.213,0,1.631
		C0.619,45.546,0,46.701,0,48c0,1.954,1.402,3.581,3.254,3.931c0.417,0.079,0.736,0.398,0.815,0.815C4.419,54.598,6.046,56,8,56
		c1.299,0,2.454-0.619,3.184-1.579c0.418-0.549,1.213-0.549,1.631,0C13.546,55.381,14.701,56,16,56s2.454-0.619,3.184-1.579
		c0.418-0.549,1.213-0.549,1.631,0C21.546,55.381,22.701,56,24,56s2.454-0.619,3.184-1.579c0.418-0.549,1.213-0.549,1.631,0
		C29.546,55.381,30.701,56,32,56s2.454-0.619,3.184-1.579c0.418-0.549,1.213-0.549,1.631,0C37.546,55.381,38.701,56,40,56
		s2.454-0.619,3.184-1.579c0.418-0.549,1.213-0.549,1.631,0C45.546,55.381,46.701,56,48,56c1.954,0,3.581-1.402,3.931-3.254
		c0.079-0.417,0.398-0.736,0.815-0.815C54.598,51.581,56,49.954,56,48c0-1.299-0.619-2.454-1.579-3.184
		c-0.549-0.418-0.549-1.213,0-1.631C55.381,42.454,56,41.299,56,40c0-1.299-0.619-2.454-1.579-3.184
		c-0.549-0.418-0.549-1.213,0-1.631C55.381,34.454,56,33.299,56,32c0-1.299-0.619-2.454-1.579-3.184
		c-0.549-0.418-0.549-1.213,0-1.631C55.381,26.454,56,25.299,56,24c0-1.299-0.619-2.454-1.579-3.184
		c-0.549-0.418-0.549-1.213,0-1.631C55.381,18.454,56,17.299,56,16z"/>
	<path style="fill:#1081E0;" d="M47.282,49H8.718C7.769,49,7,48.231,7,47.282V8.718C7,7.769,7.769,7,8.718,7h38.565
		C48.231,7,49,7.769,49,8.718v38.565C49,48.231,48.231,49,47.282,49z"/>
	<path style="fill:#FFFFFF;" d="M23,45c-3.309,0-6-2.691-6-6s2.691-6,6-6s6,2.691,6,6S26.309,45,23,45z M23,35c-2.206,0-4,1.794-4,4
		s1.794,4,4,4s4-1.794,4-4S25.206,35,23,35z"/>
	<path style="fill:#FFFFFF;" d="M35.001,37c-0.288,0-0.573-0.123-0.771-0.361c-0.684-0.824-1.777-0.824-2.461,0
		c-0.351,0.424-0.982,0.485-1.408,0.131c-0.425-0.353-0.483-0.982-0.131-1.408C30.958,34.483,31.942,34,33,34
		s2.042,0.483,2.77,1.361c0.353,0.426,0.294,1.056-0.131,1.408C35.452,36.925,35.226,37,35.001,37z"/>
	<path style="fill:#FFFFFF;" d="M37,38c-1.058,0-2.042-0.483-2.77-1.361c-0.353-0.426-0.294-1.056,0.131-1.408
		c0.425-0.354,1.057-0.294,1.408,0.131c0.684,0.824,1.777,0.824,2.461,0c0.352-0.424,0.983-0.484,1.408-0.131
		c0.425,0.353,0.483,0.982,0.131,1.408C39.042,37.517,38.058,38,37,38z"/>
	<path style="fill:#FFFFFF;" d="M43.001,37c-0.288,0-0.573-0.123-0.771-0.361c-0.684-0.824-1.777-0.824-2.461,0
		c-0.351,0.424-0.981,0.485-1.408,0.131c-0.425-0.353-0.483-0.982-0.131-1.408C38.958,34.483,39.942,34,41,34
		s2.042,0.483,2.77,1.361c0.353,0.426,0.294,1.056-0.131,1.408C43.452,36.925,43.226,37,43.001,37z"/>
	<path style="fill:#FFFFFF;" d="M35.001,43c-0.288,0-0.573-0.123-0.771-0.361c-0.684-0.824-1.777-0.824-2.461,0
		c-0.351,0.425-0.982,0.486-1.408,0.131c-0.425-0.353-0.483-0.982-0.131-1.408C30.958,40.483,31.942,40,33,40
		s2.042,0.483,2.77,1.361c0.353,0.426,0.294,1.056-0.131,1.408C35.452,42.925,35.226,43,35.001,43z"/>
	<path style="fill:#FFFFFF;" d="M37,44c-1.058,0-2.042-0.483-2.77-1.361c-0.353-0.426-0.294-1.056,0.131-1.408
		c0.425-0.354,1.057-0.294,1.408,0.131c0.684,0.824,1.777,0.824,2.461,0c0.352-0.424,0.983-0.484,1.408-0.131
		c0.425,0.353,0.483,0.982,0.131,1.408C39.042,43.517,38.058,44,37,44z"/>
	<path style="fill:#FFFFFF;" d="M43.001,43c-0.288,0-0.573-0.123-0.771-0.361c-0.684-0.824-1.777-0.824-2.461,0
		c-0.351,0.425-0.981,0.486-1.408,0.131c-0.425-0.353-0.483-0.982-0.131-1.408C38.958,40.483,39.942,40,41,40
		s2.042,0.483,2.77,1.361c0.353,0.426,0.294,1.056-0.131,1.408C43.452,42.925,43.226,43,43.001,43z"/>
	<g>
		<circle style="fill:#72A6BF;" cx="14.5" cy="45" r="1"/>
		<circle style="fill:#72A6BF;" cx="14.5" cy="39" r="1"/>
		<circle style="fill:#72A6BF;" cx="11.5" cy="42" r="1"/>
		<circle style="fill:#72A6BF;" cx="14.5" cy="33" r="1"/>
		<circle style="fill:#72A6BF;" cx="11.5" cy="36" r="1"/>
		<circle style="fill:#72A6BF;" cx="14.5" cy="27" r="1"/>
		<circle style="fill:#72A6BF;" cx="20.5" cy="27" r="1"/>
		<circle style="fill:#72A6BF;" cx="26.5" cy="27" r="1"/>
		<circle style="fill:#72A6BF;" cx="32.5" cy="27" r="1"/>
		<circle style="fill:#72A6BF;" cx="38.5" cy="27" r="1"/>
		<circle style="fill:#72A6BF;" cx="44.5" cy="27" r="1"/>
		<circle style="fill:#72A6BF;" cx="11.5" cy="30" r="1"/>
		<circle style="fill:#72A6BF;" cx="17.5" cy="30" r="1"/>
		<circle style="fill:#72A6BF;" cx="23.5" cy="30" r="1"/>
		<circle style="fill:#72A6BF;" cx="29.5" cy="30" r="1"/>
		<circle style="fill:#72A6BF;" cx="35.5" cy="30" r="1"/>
		<circle style="fill:#72A6BF;" cx="41.5" cy="30" r="1"/>
		<circle style="fill:#72A6BF;" cx="14.5" cy="21" r="1"/>
		<circle style="fill:#72A6BF;" cx="20.5" cy="21" r="1"/>
		<circle style="fill:#72A6BF;" cx="26.5" cy="21" r="1"/>
		<circle style="fill:#72A6BF;" cx="32.5" cy="21" r="1"/>
		<circle style="fill:#72A6BF;" cx="38.5" cy="21" r="1"/>
		<circle style="fill:#72A6BF;" cx="44.5" cy="21" r="1"/>
		<circle style="fill:#72A6BF;" cx="11.5" cy="24" r="1"/>
		<circle style="fill:#72A6BF;" cx="17.5" cy="24" r="1"/>
		<circle style="fill:#72A6BF;" cx="23.5" cy="24" r="1"/>
		<circle style="fill:#72A6BF;" cx="29.5" cy="24" r="1"/>
		<circle style="fill:#72A6BF;" cx="35.5" cy="24" r="1"/>
		<circle style="fill:#72A6BF;" cx="41.5" cy="24" r="1"/>
		<circle style="fill:#72A6BF;" cx="14.5" cy="15" r="1"/>
		<circle style="fill:#72A6BF;" cx="20.5" cy="15" r="1"/>
		<circle style="fill:#72A6BF;" cx="26.5" cy="15" r="1"/>
		<circle style="fill:#72A6BF;" cx="32.5" cy="15" r="1"/>
		<circle style="fill:#72A6BF;" cx="38.5" cy="15" r="1"/>
		<circle style="fill:#72A6BF;" cx="44.5" cy="15" r="1"/>
		<circle style="fill:#72A6BF;" cx="11.5" cy="18" r="1"/>
		<circle style="fill:#72A6BF;" cx="17.5" cy="18" r="1"/>
		<circle style="fill:#72A6BF;" cx="23.5" cy="18" r="1"/>
		<circle style="fill:#72A6BF;" cx="29.5" cy="18" r="1"/>
		<circle style="fill:#72A6BF;" cx="35.5" cy="18" r="1"/>
		<circle style="fill:#72A6BF;" cx="41.5" cy="18" r="1"/>
		<circle style="fill:#72A6BF;" cx="11.5" cy="12" r="1"/>
		<circle style="fill:#72A6BF;" cx="17.5" cy="12" r="1"/>
		<circle style="fill:#72A6BF;" cx="23.5" cy="12" r="1"/>
		<circle style="fill:#72A6BF;" cx="29.5" cy="12" r="1"/>
		<circle style="fill:#72A6BF;" cx="35.5" cy="12" r="1"/>
		<circle style="fill:#72A6BF;" cx="41.5" cy="12" r="1"/>
	</g>
</g>
<g>
</g>
<g>
</g>
<g>
</g>
<g>
</g>
<g>
</g>
<g>
</g>
<g>
</g>
<g>
</g>
<g>
</g>
<g>
</g>
<g>
</g>
<g>
</g>
<g>
</g>
<g>
</g>
<g>
</g>
</svg>
