<svg xmlns="http://www.w3.org/2000/svg" height="512pt" version="1.1" viewBox="0 0 512 512" width="512pt">
<g id="surface1">
<path d="M 512 256 C 512 397.386719 397.386719 512 256 512 C 114.613281 512 0 397.386719 0 256 C 0 114.613281 114.613281 0 256 0 C 397.386719 0 512 114.613281 512 256 Z M 512 256 " style=" stroke:none;fill-rule:nonzero;fill:rgb(99.607843%,41.568627%,8.627451%);fill-opacity:1;" />
<path d="M 512 256 C 512 240.195312 510.558594 224.726562 507.816406 209.714844 L 415.101562 117 L 327.988281 251.78125 L 289.566406 213.359375 L 275.367188 259.695312 L 226.132812 210.070312 L 132.675781 117 L 163.925781 242.144531 L 0.492188 271.667969 L 117.105469 388.28125 L 94.355469 395 L 206.570312 507.214844 C 222.566406 510.34375 239.089844 512 256 512 C 397.386719 512 512 397.386719 512 256 Z M 512 256 " style=" stroke:none;fill-rule:nonzero;fill:rgb(94.901961%,27.058824%,0%);fill-opacity:1;" />
<path d="M 0 256 C 0 261.261719 0.179688 266.484375 0.492188 271.667969 L 511.507812 271.667969 C 511.820312 266.484375 512 261.261719 512 256 C 512 250.738281 511.820312 245.515625 511.507812 240.332031 L 0.492188 240.332031 C 0.179688 245.515625 0 250.738281 0 256 Z M 0 256 " style=" stroke:none;fill-rule:nonzero;fill:rgb(91.372549%,92.941176%,96.078431%);fill-opacity:1;" />
<path d="M 512 256 C 512 250.738281 511.820312 245.515625 511.507812 240.332031 L 255.761719 240.332031 L 255.761719 271.664062 L 511.507812 271.664062 C 511.820312 266.484375 512 261.261719 512 256 Z M 512 256 " style=" stroke:none;fill-rule:nonzero;fill:rgb(91.372549%,92.941176%,96.078431%);fill-opacity:1;" />
<path d="M 132.675781 117 L 71.816406 117 L 160.097656 294.601562 C 160.910156 296.234375 161.878906 297.75 162.96875 299.15625 L 198.558594 249.542969 Z M 132.675781 117 " style=" stroke:none;fill-rule:nonzero;fill:rgb(91.372549%,92.941176%,96.078431%);fill-opacity:1;" />
<path d="M 155.214844 395 L 94.355469 395 L 182.636719 217.398438 C 187.242188 208.136719 196.695312 202.277344 207.039062 202.277344 C 227.269531 202.277344 240.445312 223.542969 231.441406 241.65625 Z M 155.214844 395 " style=" stroke:none;fill-rule:nonzero;fill:rgb(100%,100%,100%);fill-opacity:1;" />
<path d="M 267.769531 202.445312 C 257.425781 202.445312 247.972656 208.300781 243.367188 217.566406 L 217.050781 270.511719 C 208.046875 288.625 221.222656 309.886719 241.453125 309.886719 C 251.796875 309.886719 261.246094 304.03125 265.851562 294.769531 L 292.171875 241.824219 C 301.175781 223.710938 288 202.445312 267.769531 202.445312 Z M 267.769531 202.445312 " style=" stroke:none;fill-rule:nonzero;fill:rgb(86.27451%,88.235294%,92.156863%);fill-opacity:1;" />
<path d="M 267.769531 202.445312 C 263.523438 202.445312 259.433594 203.445312 255.761719 205.25 L 255.761719 305.828125 C 260.011719 303.203125 263.542969 299.414062 265.851562 294.769531 L 292.171875 241.824219 C 301.175781 223.710938 288 202.445312 267.769531 202.445312 Z M 267.769531 202.445312 " style=" stroke:none;fill-rule:nonzero;fill:rgb(80.392157%,82.352941%,88.235294%);fill-opacity:1;" />
<path d="M 440.183594 395 L 353.957031 221.53125 L 311.75 259.054688 L 379.324219 395 Z M 440.183594 395 " style=" stroke:none;fill-rule:nonzero;fill:rgb(91.372549%,92.941176%,96.078431%);fill-opacity:1;" />
<path d="M 354.242188 117 L 415.101562 117 L 326.820312 294.601562 C 322.214844 303.863281 312.761719 309.722656 302.417969 309.722656 C 282.191406 309.722656 269.015625 288.457031 278.019531 270.34375 Z M 354.242188 117 " style=" stroke:none;fill-rule:nonzero;fill:rgb(86.27451%,88.235294%,92.156863%);fill-opacity:1;" />
</g>
</svg>