<svg xmlns="http://www.w3.org/2000/svg" height="512pt" version="1.1" viewBox="0 0 512 512" width="512pt">
<g id="surface1">
<path d="M 512 256 C 512 397.386719 397.386719 512 256 512 C 114.613281 512 0 397.386719 0 256 C 0 114.613281 114.613281 0 256 0 C 397.386719 0 512 114.613281 512 256 Z M 512 256 " style=" stroke:none;fill-rule:nonzero;fill:rgb(9.803922%,81.176471%,98.823529%);fill-opacity:1;" />
<path d="M 512 256 C 512 238.496094 510.238281 221.40625 506.890625 204.890625 L 407 105 L 105 407 L 204.890625 506.890625 C 221.40625 510.238281 238.496094 512 256 512 C 397.386719 512 512 397.386719 512 256 Z M 512 256 " style=" stroke:none;fill-rule:nonzero;fill:rgb(29.019608%,72.156863%,96.862745%);fill-opacity:1;" />
<path d="M 130.5 395.574219 L 179.832031 395.574219 L 179.832031 427 L 130.5 427 Z M 130.5 395.574219 " style=" stroke:none;fill-rule:nonzero;fill:rgb(20%,22.352941%,25.098039%);fill-opacity:1;" />
<path d="M 332.167969 395.574219 L 381.5 395.574219 L 381.5 427 L 332.167969 427 Z M 332.167969 395.574219 " style=" stroke:none;fill-rule:nonzero;fill:rgb(20%,22.352941%,25.098039%);fill-opacity:1;" />
<path d="M 105 105 L 407 105 L 407 407 L 105 407 Z M 105 105 " style=" stroke:none;fill-rule:nonzero;fill:rgb(25.490196%,28.627451%,32.156863%);fill-opacity:1;" />
<path d="M 255.761719 105 L 407 105 L 407 407 L 255.761719 407 Z M 255.761719 105 " style=" stroke:none;fill-rule:nonzero;fill:rgb(20%,22.352941%,25.098039%);fill-opacity:1;" />
<path d="M 130.5 130.5 L 381.5 130.5 L 381.5 381.5 L 130.5 381.5 Z M 130.5 130.5 " style=" stroke:none;fill-rule:nonzero;fill:rgb(38.823529%,41.176471%,47.058824%);fill-opacity:1;" />
<path d="M 255.761719 130.5 L 381.5 130.5 L 381.5 381.5 L 255.761719 381.5 Z M 255.761719 130.5 " style=" stroke:none;fill-rule:nonzero;fill:rgb(33.333333%,35.294118%,40%);fill-opacity:1;" />
<path d="M 341 188.5 L 361 188.5 L 361 323.5 L 341 323.5 Z M 341 188.5 " style=" stroke:none;fill-rule:nonzero;fill:rgb(56.862745%,58.823529%,66.666667%);fill-opacity:1;" />
<path d="M 160 188.5 L 322.644531 188.5 L 322.644531 323.5 L 160 323.5 Z M 160 188.5 " style=" stroke:none;fill-rule:nonzero;fill:rgb(68.627451%,70.588235%,78.431373%);fill-opacity:1;" />
<path d="M 255.761719 188.5 L 322.644531 188.5 L 322.644531 323.5 L 255.761719 323.5 Z M 255.761719 188.5 " style=" stroke:none;fill-rule:nonzero;fill:rgb(56.862745%,58.823529%,66.666667%);fill-opacity:1;" />
<path d="M 170.332031 201.667969 L 197.664062 201.667969 L 197.664062 229 L 170.332031 229 Z M 170.332031 201.667969 " style=" stroke:none;fill-rule:nonzero;fill:rgb(86.27451%,88.235294%,92.156863%);fill-opacity:1;" />
<path d="M 170.332031 283 L 197.664062 283 L 197.664062 310.332031 L 170.332031 310.332031 Z M 170.332031 283 " style=" stroke:none;fill-rule:nonzero;fill:rgb(86.27451%,88.235294%,92.156863%);fill-opacity:1;" />
<path d="M 170.332031 242.332031 L 197.664062 242.332031 L 197.664062 269.664062 L 170.332031 269.664062 Z M 170.332031 242.332031 " style=" stroke:none;fill-rule:nonzero;fill:rgb(86.27451%,88.235294%,92.156863%);fill-opacity:1;" />
<path d="M 208.667969 201.667969 L 236 201.667969 L 236 229 L 208.667969 229 Z M 208.667969 201.667969 " style=" stroke:none;fill-rule:nonzero;fill:rgb(86.27451%,88.235294%,92.156863%);fill-opacity:1;" />
<path d="M 208.667969 283 L 236 283 L 236 310.332031 L 208.667969 310.332031 Z M 208.667969 283 " style=" stroke:none;fill-rule:nonzero;fill:rgb(86.27451%,88.235294%,92.156863%);fill-opacity:1;" />
<path d="M 208.667969 242.332031 L 236 242.332031 L 236 269.664062 L 208.667969 269.664062 Z M 208.667969 242.332031 " style=" stroke:none;fill-rule:nonzero;fill:rgb(86.27451%,88.235294%,92.156863%);fill-opacity:1;" />
<path d="M 248.332031 201.667969 L 275.664062 201.667969 L 275.664062 229 L 248.332031 229 Z M 248.332031 201.667969 " style=" stroke:none;fill-rule:nonzero;fill:rgb(86.27451%,88.235294%,92.156863%);fill-opacity:1;" />
<path d="M 255.761719 201.667969 L 275.667969 201.667969 L 275.667969 229 L 255.761719 229 Z M 255.761719 201.667969 " style=" stroke:none;fill-rule:nonzero;fill:rgb(80.392157%,82.352941%,88.235294%);fill-opacity:1;" />
<path d="M 248.332031 283 L 275.664062 283 L 275.664062 310.332031 L 248.332031 310.332031 Z M 248.332031 283 " style=" stroke:none;fill-rule:nonzero;fill:rgb(86.27451%,88.235294%,92.156863%);fill-opacity:1;" />
<path d="M 255.761719 283 L 275.667969 283 L 275.667969 310.332031 L 255.761719 310.332031 Z M 255.761719 283 " style=" stroke:none;fill-rule:nonzero;fill:rgb(80.392157%,82.352941%,88.235294%);fill-opacity:1;" />
<path d="M 284.332031 242.332031 L 311.664062 242.332031 L 311.664062 310.332031 L 284.332031 310.332031 Z M 284.332031 242.332031 " style=" stroke:none;fill-rule:nonzero;fill:rgb(8.235294%,90.980392%,45.490196%);fill-opacity:1;" />
<path d="M 248.332031 242.332031 L 275.664062 242.332031 L 275.664062 269.664062 L 248.332031 269.664062 Z M 248.332031 242.332031 " style=" stroke:none;fill-rule:nonzero;fill:rgb(86.27451%,88.235294%,92.156863%);fill-opacity:1;" />
<path d="M 255.761719 242.332031 L 275.667969 242.332031 L 275.667969 269.664062 L 255.761719 269.664062 Z M 255.761719 242.332031 " style=" stroke:none;fill-rule:nonzero;fill:rgb(80.392157%,82.352941%,88.235294%);fill-opacity:1;" />
<path d="M 120.332031 153 L 141.664062 153 L 141.664062 188.5 L 120.332031 188.5 Z M 120.332031 153 " style=" stroke:none;fill-rule:nonzero;fill:rgb(33.333333%,35.294118%,40%);fill-opacity:1;" />
<path d="M 120.332031 310.332031 L 141.664062 310.332031 L 141.664062 345.832031 L 120.332031 345.832031 Z M 120.332031 310.332031 " style=" stroke:none;fill-rule:nonzero;fill:rgb(33.333333%,35.294118%,40%);fill-opacity:1;" />
</g>
</svg>