<svg xmlns="http://www.w3.org/2000/svg" height="512pt" version="1.1" viewBox="0 0 512 512" width="512pt">
<g id="surface1">
<path d="M 512 256 C 512 397.386719 397.386719 512 256 512 C 114.613281 512 0 397.386719 0 256 C 0 114.613281 114.613281 0 256 0 C 397.386719 0 512 114.613281 512 256 Z M 512 256 " style=" stroke:none;fill-rule:nonzero;fill:rgb(25.490196%,28.627451%,32.156863%);fill-opacity:1;" />
<path d="M 445.542969 213.402344 L 70.160156 302.957031 L 278.230469 511.027344 C 401.675781 500.40625 500.070312 402.195312 510.976562 278.835938 Z M 445.542969 213.402344 " style=" stroke:none;fill-rule:nonzero;fill:rgb(20%,22.352941%,25.098039%);fill-opacity:1;" />
<path d="M 397.996094 322.003906 L 114.003906 322.003906 C 80.863281 322.003906 54 295.136719 54 261.996094 L 54 250.003906 C 54 216.863281 80.863281 189.996094 114.003906 189.996094 L 397.996094 189.996094 C 431.136719 189.996094 458 216.863281 458 250.003906 L 458 261.996094 C 458 295.136719 431.136719 322.003906 397.996094 322.003906 Z M 397.996094 322.003906 " style=" stroke:none;fill-rule:nonzero;fill:rgb(3.529412%,80.784314%,40.392157%);fill-opacity:1;" />
<path d="M 397.996094 189.996094 L 255.761719 189.996094 L 255.761719 322.003906 L 397.996094 322.003906 C 431.136719 322.003906 458 295.136719 458 261.996094 L 458 250 C 458 216.863281 431.136719 189.996094 397.996094 189.996094 Z M 397.996094 189.996094 " style=" stroke:none;fill-rule:nonzero;fill:rgb(10.196078%,67.843137%,36.078431%);fill-opacity:1;" />
<path d="M 173.082031 243.347656 L 160.582031 221.695312 L 138.667969 234.347656 L 138.667969 209.042969 L 113.667969 209.042969 L 113.667969 234.347656 L 91.75 221.695312 L 79.25 243.347656 L 101.164062 256 L 79.25 268.652344 L 91.75 290.304688 L 113.667969 277.652344 L 113.667969 302.957031 L 138.667969 302.957031 L 138.667969 277.652344 L 160.582031 290.304688 L 173.082031 268.652344 L 151.167969 256 Z M 173.082031 243.347656 " style=" stroke:none;fill-rule:nonzero;fill:rgb(100%,100%,100%);fill-opacity:1;" />
<path d="M 302.917969 243.347656 L 290.417969 221.695312 L 268.5 234.347656 L 268.5 209.042969 L 243.5 209.042969 L 243.5 234.347656 L 221.582031 221.695312 L 209.082031 243.347656 L 231 256 L 209.082031 268.652344 L 221.582031 290.304688 L 243.5 277.652344 L 243.5 302.957031 L 268.5 302.957031 L 268.5 277.652344 L 290.414062 290.304688 L 302.914062 268.652344 L 281 256 Z M 302.917969 243.347656 " style=" stroke:none;fill-rule:nonzero;fill:rgb(100%,100%,100%);fill-opacity:1;" />
<path d="M 302.917969 243.347656 L 290.417969 221.695312 L 268.5 234.347656 L 268.5 209.042969 L 255.761719 209.042969 L 255.761719 302.957031 L 268.5 302.957031 L 268.5 277.652344 L 290.414062 290.304688 L 302.914062 268.652344 L 281 256 Z M 302.917969 243.347656 " style=" stroke:none;fill-rule:nonzero;fill:rgb(91.372549%,92.941176%,96.078431%);fill-opacity:1;" />
<path d="M 432.75 243.347656 L 420.25 221.695312 L 398.332031 234.347656 L 398.332031 209.042969 L 373.332031 209.042969 L 373.332031 234.347656 L 351.417969 221.695312 L 338.917969 243.347656 L 360.832031 256 L 338.917969 268.652344 L 351.417969 290.304688 L 373.332031 277.652344 L 373.332031 302.957031 L 398.332031 302.957031 L 398.332031 277.652344 L 420.25 290.304688 L 432.75 268.652344 L 410.832031 256 Z M 432.75 243.347656 " style=" stroke:none;fill-rule:nonzero;fill:rgb(91.372549%,92.941176%,96.078431%);fill-opacity:1;" />
</g>
</svg>