<svg xmlns="http://www.w3.org/2000/svg" height="512pt" version="1.1" viewBox="0 0 512 512" width="512pt">
<g id="surface1">
<path d="M 512 256 C 512 397.386719 397.386719 512 256 512 C 114.613281 512 0 397.386719 0 256 C 0 114.613281 114.613281 0 256 0 C 397.386719 0 512 114.613281 512 256 Z M 512 256 " style=" stroke:none;fill-rule:nonzero;fill:rgb(3.529412%,80.784314%,40.392157%);fill-opacity:1;" />
<path d="M 512 256 C 512 247.855469 511.601562 239.808594 510.859375 231.859375 L 429 150 L 413.003906 189.136719 L 295.824219 71.960938 L 223.125 68.230469 L 182.023438 338.113281 L 83 362 L 231.859375 510.859375 C 239.808594 511.601562 247.855469 512 256 512 C 397.386719 512 512 397.386719 512 256 Z M 512 256 " style=" stroke:none;fill-rule:nonzero;fill:rgb(10.196078%,67.843137%,36.078431%);fill-opacity:1;" />
<path d="M 83 150 L 429 150 L 429 362 L 83 362 Z M 83 150 " style=" stroke:none;fill-rule:nonzero;fill:rgb(100%,100%,100%);fill-opacity:1;" />
<path d="M 256 150 L 429 150 L 429 362 L 256 362 Z M 256 150 " style=" stroke:none;fill-rule:nonzero;fill:rgb(91.372549%,92.941176%,96.078431%);fill-opacity:1;" />
<path d="M 83 362 L 256 227 L 429 362 Z M 83 362 " style=" stroke:none;fill-rule:nonzero;fill:rgb(80.392157%,82.352941%,88.235294%);fill-opacity:1;" />
<path d="M 256 227 L 256 362 L 429 362 Z M 256 227 " style=" stroke:none;fill-rule:nonzero;fill:rgb(74.509804%,76.470588%,82.352941%);fill-opacity:1;" />
<path d="M 429 150 L 256 256 L 83 150 Z M 429 150 " style=" stroke:none;fill-rule:nonzero;fill:rgb(99.607843%,41.568627%,8.627451%);fill-opacity:1;" />
<path d="M 256 150 L 256 256 L 429 150 Z M 256 150 " style=" stroke:none;fill-rule:nonzero;fill:rgb(94.901961%,27.058824%,0%);fill-opacity:1;" />
<path d="M 307.589844 190.578125 L 289.761719 190.578125 L 289.761719 104.71875 C 289.761719 86.101562 274.617188 70.957031 256 70.957031 C 237.382812 70.957031 222.238281 86.101562 222.238281 104.71875 L 222.238281 190.578125 L 204.410156 190.578125 L 204.410156 104.71875 C 204.410156 76.269531 227.554688 53.128906 256 53.128906 C 284.445312 53.128906 307.589844 76.269531 307.589844 104.71875 Z M 307.589844 190.578125 " style=" stroke:none;fill-rule:nonzero;fill:rgb(100%,100%,100%);fill-opacity:1;" />
<path d="M 256 53.128906 L 256 70.957031 C 274.617188 70.957031 289.761719 86.101562 289.761719 104.71875 L 289.761719 190.578125 L 307.589844 190.578125 L 307.589844 104.71875 C 307.589844 76.269531 284.445312 53.128906 256 53.128906 Z M 256 53.128906 " style=" stroke:none;fill-rule:nonzero;fill:rgb(91.372549%,92.941176%,96.078431%);fill-opacity:1;" />
<path d="M 288.03125 237 L 223.96875 237 C 204.9375 237 189.507812 221.570312 189.507812 202.539062 L 189.507812 156.316406 C 189.507812 137.28125 204.9375 121.851562 223.96875 121.851562 L 288.03125 121.851562 C 307.066406 121.851562 322.492188 137.28125 322.492188 156.316406 L 322.492188 202.539062 C 322.492188 221.570312 307.066406 237 288.03125 237 Z M 288.03125 237 " style=" stroke:none;fill-rule:nonzero;fill:rgb(33.333333%,35.294118%,40%);fill-opacity:1;" />
<path d="M 288.03125 121.851562 L 256 121.851562 L 256 237 L 288.03125 237 C 307.066406 237 322.492188 221.570312 322.492188 202.539062 L 322.492188 156.316406 C 322.492188 137.28125 307.066406 121.851562 288.03125 121.851562 Z M 288.03125 121.851562 " style=" stroke:none;fill-rule:nonzero;fill:rgb(25.490196%,28.627451%,32.156863%);fill-opacity:1;" />
<path d="M 273.390625 166.089844 C 273.390625 156.488281 265.605469 148.703125 256 148.703125 C 246.394531 148.703125 238.609375 156.488281 238.609375 166.089844 C 238.609375 169.886719 239.832031 173.398438 241.898438 176.257812 L 241.898438 206.726562 L 270.101562 206.726562 L 270.101562 176.257812 C 272.167969 173.398438 273.390625 169.890625 273.390625 166.089844 Z M 273.390625 166.089844 " style=" stroke:none;fill-rule:nonzero;fill:rgb(20%,22.352941%,25.098039%);fill-opacity:1;" />
<path d="M 256 148.703125 L 256 206.726562 L 270.101562 206.726562 L 270.101562 176.257812 C 272.167969 173.398438 273.390625 169.890625 273.390625 166.089844 C 273.390625 156.488281 265.605469 148.703125 256 148.703125 Z M 256 148.703125 " style=" stroke:none;fill-rule:nonzero;fill:rgb(13.72549%,15.294118%,16.862745%);fill-opacity:1;" />
</g>
</svg>