<svg xmlns="http://www.w3.org/2000/svg" height="512pt" version="1.1" viewBox="0 0 512 512" width="512pt">
<g id="surface1">
<path d="M 512 256 C 512 397.386719 397.386719 512 256 512 C 114.613281 512 0 397.386719 0 256 C 0 114.613281 114.613281 0 256 0 C 397.386719 0 512 114.613281 512 256 Z M 512 256 " style=" stroke:none;fill-rule:nonzero;fill:rgb(25.490196%,28.627451%,32.156863%);fill-opacity:1;" />
<path d="M 512 256 C 512 254.230469 511.96875 252.464844 511.933594 250.703125 L 351.230469 90 L 102.230469 435 L 161.019531 493.789062 C 190.390625 505.53125 222.4375 512 256 512 C 397.386719 512 512 397.386719 512 256 Z M 512 256 " style=" stroke:none;fill-rule:nonzero;fill:rgb(20%,22.352941%,25.098039%);fill-opacity:1;" />
<path d="M 165.230469 90 L 102.230469 153 L 102.230469 435 L 351.230469 435 L 351.230469 90 Z M 165.230469 90 " style=" stroke:none;fill-rule:nonzero;fill:rgb(100%,100%,100%);fill-opacity:1;" />
<path d="M 226.59375 90 L 351.230469 90 L 351.230469 435 L 226.59375 435 Z M 226.59375 90 " style=" stroke:none;fill-rule:nonzero;fill:rgb(91.372549%,92.941176%,96.078431%);fill-opacity:1;" />
<path d="M 165.230469 153 L 165.230469 90 L 102.230469 153 Z M 165.230469 153 " style=" stroke:none;fill-rule:nonzero;fill:rgb(99.607843%,41.568627%,8.627451%);fill-opacity:1;" />
<path d="M 393.691406 347.335938 L 351.230469 378.03125 L 308.769531 347.335938 C 287.921875 332.265625 274.71875 308.824219 272.632812 283.183594 L 263.820312 186.875 C 263.820312 186.875 328.515625 153 351.230469 153 C 373.945312 153 438.640625 186.875 438.640625 186.875 L 429.828125 283.183594 C 427.742188 308.824219 414.539062 332.265625 393.691406 347.335938 Z M 393.691406 347.335938 " style=" stroke:none;fill-rule:nonzero;fill:rgb(3.529412%,80.784314%,40.392157%);fill-opacity:1;" />
<path d="M 351.230469 153 C 351.15625 153 351.074219 153.003906 351 153.003906 L 351 377.863281 L 351.230469 378.03125 L 393.691406 347.335938 C 414.539062 332.265625 427.742188 308.824219 429.828125 283.183594 L 438.640625 186.875 C 438.640625 186.875 373.945312 153 351.230469 153 Z M 351.230469 153 " style=" stroke:none;fill-rule:nonzero;fill:rgb(10.196078%,67.843137%,36.078431%);fill-opacity:1;" />
<path d="M 386.210938 330.144531 L 351.230469 355.433594 L 316.25 330.144531 C 299.074219 317.730469 288.195312 298.417969 286.480469 277.296875 L 279.21875 197.953125 C 279.21875 197.953125 332.515625 170.046875 351.230469 170.046875 C 369.945312 170.046875 423.242188 197.953125 423.242188 197.953125 L 415.980469 277.296875 C 414.265625 298.417969 403.386719 317.730469 386.210938 330.144531 Z M 386.210938 330.144531 " style=" stroke:none;fill-rule:nonzero;fill:rgb(8.235294%,90.980392%,45.490196%);fill-opacity:1;" />
<path d="M 351.230469 170.046875 C 351.15625 170.046875 351.074219 170.050781 351 170.050781 L 351 355.265625 L 351.230469 355.433594 L 386.210938 330.144531 C 403.386719 317.730469 414.265625 298.417969 415.980469 277.296875 L 423.242188 197.953125 C 423.242188 197.953125 369.945312 170.046875 351.230469 170.046875 Z M 351.230469 170.046875 " style=" stroke:none;fill-rule:nonzero;fill:rgb(3.529412%,80.784314%,40.392157%);fill-opacity:1;" />
</g>
</svg>