<svg xmlns="http://www.w3.org/2000/svg" height="512pt" version="1.1" viewBox="0 0 512 512" width="512pt">
<g id="surface1">
<path d="M 512 256 C 512 397.386719 397.386719 512 256 512 C 114.613281 512 0 397.386719 0 256 C 0 114.613281 114.613281 0 256 0 C 397.386719 0 512 114.613281 512 256 Z M 512 256 " style=" stroke:none;fill-rule:nonzero;fill:rgb(99.607843%,41.568627%,8.627451%);fill-opacity:1;" />
<path d="M 512 256 C 512 248.550781 511.664062 241.183594 511.039062 233.894531 L 398.035156 120.890625 L 119.882812 393.550781 L 237.671875 511.339844 C 243.726562 511.769531 249.835938 512 256 512 C 397.386719 512 512 397.386719 512 256 Z M 512 256 " style=" stroke:none;fill-rule:nonzero;fill:rgb(94.901961%,27.058824%,0%);fill-opacity:1;" />
<path d="M 226.109375 211.332031 L 193.769531 178.335938 L 108.820312 178.335938 L 108.820312 364.03125 C 108.820312 388.867188 128.953125 409 153.789062 409 L 369.144531 409 C 393.980469 409 414.113281 388.867188 414.113281 364.03125 L 414.113281 211.332031 Z M 226.109375 211.332031 " style=" stroke:none;fill-rule:nonzero;fill:rgb(25.490196%,28.627451%,32.156863%);fill-opacity:1;" />
<path d="M 255.167969 211.332031 L 255.167969 409 L 369.144531 409 C 393.980469 409 414.113281 388.867188 414.113281 364.03125 L 414.113281 211.332031 Z M 255.167969 211.332031 " style=" stroke:none;fill-rule:nonzero;fill:rgb(20%,22.352941%,25.098039%);fill-opacity:1;" />
<path d="M 357.046875 267.21875 L 318.324219 295.210938 L 279.605469 267.21875 C 260.59375 253.476562 248.550781 232.097656 246.652344 208.71875 L 238.613281 120.894531 C 238.613281 120.894531 297.609375 90 318.324219 90 C 339.039062 90 398.035156 120.894531 398.035156 120.894531 L 390 208.71875 C 388.097656 232.097656 376.058594 253.476562 357.046875 267.21875 Z M 357.046875 267.21875 " style=" stroke:none;fill-rule:nonzero;fill:rgb(3.529412%,80.784314%,40.392157%);fill-opacity:1;" />
<path d="M 318.324219 90 C 318.320312 90 318.316406 90 318.3125 90 L 318.3125 295.199219 L 318.324219 295.210938 L 357.046875 267.21875 C 376.058594 253.476562 388.097656 232.097656 390 208.71875 L 398.035156 120.894531 C 398.035156 120.890625 339.039062 90 318.324219 90 Z M 318.324219 90 " style=" stroke:none;fill-rule:nonzero;fill:rgb(10.196078%,67.843137%,36.078431%);fill-opacity:1;" />
<path d="M 350.226562 251.542969 L 318.324219 274.601562 L 286.425781 251.542969 C 270.765625 240.21875 260.84375 222.609375 259.277344 203.347656 L 252.65625 130.992188 C 252.65625 130.992188 301.261719 105.546875 318.328125 105.546875 C 335.390625 105.546875 383.996094 130.992188 383.996094 130.992188 L 377.375 203.347656 C 375.808594 222.609375 365.886719 240.21875 350.226562 251.542969 Z M 350.226562 251.542969 " style=" stroke:none;fill-rule:nonzero;fill:rgb(8.235294%,90.980392%,45.490196%);fill-opacity:1;" />
<path d="M 318.324219 105.542969 C 318.320312 105.542969 318.316406 105.542969 318.3125 105.542969 L 318.3125 274.59375 L 318.324219 274.601562 L 350.226562 251.542969 C 365.886719 240.21875 375.808594 222.609375 377.371094 203.347656 L 383.992188 130.992188 C 383.992188 130.992188 335.390625 105.542969 318.324219 105.542969 Z M 318.324219 105.542969 " style=" stroke:none;fill-rule:nonzero;fill:rgb(3.529412%,80.784314%,40.392157%);fill-opacity:1;" />
<path d="M 139.667969 324.03125 L 268.335938 324.03125 L 268.335938 372.332031 L 139.667969 372.332031 Z M 139.667969 324.03125 " style=" stroke:none;fill-rule:nonzero;fill:rgb(100%,83.137255%,0%);fill-opacity:1;" />
<path d="M 255.167969 324.03125 L 268.335938 324.03125 L 268.335938 372.332031 L 255.167969 372.332031 Z M 255.167969 324.03125 " style=" stroke:none;fill-rule:nonzero;fill:rgb(99.215686%,72.941176%,7.058824%);fill-opacity:1;" />
</g>
</svg>