<svg xmlns="http://www.w3.org/2000/svg" height="512pt" version="1.1" viewBox="0 0 512 512" width="512pt">
<g id="surface1">
<path d="M 512 256 C 512 397.386719 397.386719 512 256 512 C 114.613281 512 0 397.386719 0 256 C 0 114.613281 114.613281 0 256 0 C 397.386719 0 512 114.613281 512 256 Z M 512 256 " style=" stroke:none;fill-rule:nonzero;fill:rgb(9.803922%,81.176471%,98.823529%);fill-opacity:1;" />
<path d="M 127.378906 301.089844 L 328.003906 501.71875 C 411.667969 477.238281 477.578125 411.207031 501.875 327.46875 L 296.910156 122.5 Z M 127.378906 301.089844 " style=" stroke:none;fill-rule:nonzero;fill:rgb(29.019608%,72.156863%,96.862745%);fill-opacity:1;" />
<path d="M 259.167969 310.988281 L 311.066406 259.09375 L 418.378906 366.40625 L 366.484375 418.304688 Z M 259.167969 310.988281 " style=" stroke:none;fill-rule:nonzero;fill:rgb(25.490196%,28.627451%,32.156863%);fill-opacity:1;" />
<path d="M 285.300781 284.855469 L 311.0625 259.089844 L 418.378906 366.40625 L 392.617188 392.167969 Z M 285.300781 284.855469 " style=" stroke:none;fill-rule:nonzero;fill:rgb(20%,22.352941%,25.098039%);fill-opacity:1;" />
<path d="M 294 119.484375 C 245.828125 71.3125 167.730469 71.3125 119.5625 119.484375 C 71.390625 167.652344 71.390625 245.753906 119.5625 293.921875 C 167.730469 342.09375 245.828125 342.09375 294 293.921875 C 342.167969 245.753906 342.167969 167.652344 294 119.484375 Z M 294 119.484375 " style=" stroke:none;fill-rule:nonzero;fill:rgb(38.823529%,41.176471%,47.058824%);fill-opacity:1;" />
<path d="M 294.003906 119.484375 C 245.894531 71.375 167.9375 71.316406 119.753906 119.300781 L 294.1875 293.734375 C 342.171875 245.550781 342.109375 167.589844 294.003906 119.484375 Z M 294.003906 119.484375 " style=" stroke:none;fill-rule:nonzero;fill:rgb(33.333333%,35.294118%,40%);fill-opacity:1;" />
<path d="M 274.691406 138.789062 C 237.1875 101.285156 176.375 101.285156 138.867188 138.789062 C 101.363281 176.296875 101.363281 237.109375 138.867188 274.613281 C 176.375 312.121094 237.1875 312.121094 274.691406 274.613281 C 312.199219 237.109375 312.199219 176.296875 274.691406 138.789062 Z M 274.691406 138.789062 " style=" stroke:none;fill-rule:nonzero;fill:rgb(100%,83.137255%,0%);fill-opacity:1;" />
<path d="M 274.203125 138.789062 C 236.757812 101.34375 176.089844 101.289062 138.570312 138.609375 L 274.386719 274.425781 C 311.703125 236.902344 311.648438 176.234375 274.203125 138.789062 Z M 274.203125 138.789062 " style=" stroke:none;fill-rule:nonzero;fill:rgb(99.215686%,72.941176%,7.058824%);fill-opacity:1;" />
<path d="M 193.117188 144.84375 L 220.449219 144.84375 L 220.449219 226.898438 L 193.117188 226.898438 Z M 193.117188 144.84375 " style=" stroke:none;fill-rule:nonzero;fill:rgb(25.490196%,28.627451%,32.156863%);fill-opacity:1;" />
<path d="M 207.546875 144.84375 L 220.449219 144.84375 L 220.449219 226.898438 L 207.546875 226.898438 Z M 207.546875 144.84375 " style=" stroke:none;fill-rule:nonzero;fill:rgb(20%,22.352941%,25.098039%);fill-opacity:1;" />
<path d="M 193.117188 241.230469 L 220.449219 241.230469 L 220.449219 268.5625 L 193.117188 268.5625 Z M 193.117188 241.230469 " style=" stroke:none;fill-rule:nonzero;fill:rgb(25.490196%,28.627451%,32.156863%);fill-opacity:1;" />
<path d="M 207.546875 241.230469 L 220.449219 241.230469 L 220.449219 268.5625 L 207.546875 268.5625 Z M 207.546875 241.230469 " style=" stroke:none;fill-rule:nonzero;fill:rgb(20%,22.352941%,25.098039%);fill-opacity:1;" />
</g>
</svg>