<svg xmlns="http://www.w3.org/2000/svg" height="512pt" version="1.1" viewBox="0 0 512 512" width="512pt">
<g id="surface1">
<path d="M 512 256 C 512 397.386719 397.386719 512 256 512 C 114.613281 512 0 397.386719 0 256 C 0 114.613281 114.613281 0 256 0 C 397.386719 0 512 114.613281 512 256 Z M 512 256 " style=" stroke:none;fill-rule:nonzero;fill:rgb(9.803922%,81.176471%,98.823529%);fill-opacity:1;" />
<path d="M 512 256 C 512 249.058594 511.714844 242.183594 511.171875 235.382812 L 365.152344 89.363281 L 147.691406 423.484375 L 235.378906 511.171875 C 242.179688 511.714844 249.058594 512 256 512 C 397.386719 512 512 397.386719 512 256 Z M 512 256 " style=" stroke:none;fill-rule:nonzero;fill:rgb(29.019608%,72.156863%,96.862745%);fill-opacity:1;" />
<path d="M 347.285156 430.332031 L 164.714844 430.332031 C 151.125 430.332031 140.109375 419.316406 140.109375 405.726562 L 140.109375 106.273438 C 140.109375 92.683594 151.125 81.667969 164.714844 81.667969 L 347.285156 81.667969 C 360.878906 81.667969 371.894531 92.683594 371.894531 106.273438 L 371.894531 405.726562 C 371.894531 419.316406 360.875 430.332031 347.285156 430.332031 Z M 347.285156 430.332031 " style=" stroke:none;fill-rule:nonzero;fill:rgb(25.490196%,28.627451%,32.156863%);fill-opacity:1;" />
<path d="M 347.285156 81.667969 L 255.761719 81.667969 L 255.761719 430.335938 L 347.285156 430.335938 C 360.875 430.335938 371.890625 419.316406 371.890625 405.726562 L 371.890625 106.273438 C 371.894531 92.683594 360.875 81.667969 347.285156 81.667969 Z M 347.285156 81.667969 " style=" stroke:none;fill-rule:nonzero;fill:rgb(20%,22.352941%,25.098039%);fill-opacity:1;" />
<path d="M 301.488281 106.207031 L 298.460938 112.46875 C 296.609375 116.292969 292.734375 118.722656 288.484375 118.722656 L 223.515625 118.722656 C 219.265625 118.722656 215.394531 116.296875 213.542969 112.46875 L 210.511719 106.207031 C 208.664062 102.382812 204.789062 99.953125 200.539062 99.953125 L 167.460938 99.953125 C 161.339844 99.953125 156.378906 104.914062 156.378906 111.03125 L 156.378906 400.96875 C 156.378906 407.085938 161.339844 412.046875 167.460938 412.046875 L 344.539062 412.046875 C 350.660156 412.046875 355.621094 407.085938 355.621094 400.96875 L 355.621094 111.03125 C 355.621094 104.914062 350.660156 99.953125 344.539062 99.953125 L 311.464844 99.953125 C 307.214844 99.953125 303.339844 102.382812 301.488281 106.207031 Z M 301.488281 106.207031 " style=" stroke:none;fill-rule:nonzero;fill:rgb(100%,100%,100%);fill-opacity:1;" />
<path d="M 344.539062 99.953125 L 311.464844 99.953125 C 307.214844 99.953125 303.339844 102.382812 301.488281 106.207031 L 298.460938 112.46875 C 296.609375 116.292969 292.734375 118.722656 288.488281 118.722656 L 255.765625 118.722656 L 255.765625 412.046875 L 344.542969 412.046875 C 350.660156 412.046875 355.621094 407.089844 355.621094 400.96875 L 355.621094 111.03125 C 355.617188 104.914062 350.660156 99.953125 344.539062 99.953125 Z M 344.539062 99.953125 " style=" stroke:none;fill-rule:nonzero;fill:rgb(91.372549%,92.941176%,96.078431%);fill-opacity:1;" />
<path d="M 298.460938 347.335938 L 255.761719 377.859375 L 213.539062 347.335938 C 192.691406 332.265625 179.488281 308.824219 177.402344 283.183594 L 168.589844 186.875 C 168.589844 186.875 233.285156 153 256 153 C 278.714844 153 343.410156 186.875 343.410156 186.875 L 334.597656 283.183594 C 332.511719 308.824219 319.308594 332.265625 298.460938 347.335938 Z M 298.460938 347.335938 " style=" stroke:none;fill-rule:nonzero;fill:rgb(3.529412%,80.784314%,40.392157%);fill-opacity:1;" />
<path d="M 256 153 C 255.921875 153 255.839844 153.003906 255.761719 153.003906 L 255.761719 377.859375 L 298.460938 347.335938 C 319.308594 332.265625 332.511719 308.824219 334.597656 283.183594 L 343.410156 186.875 C 343.410156 186.875 278.714844 153 256 153 Z M 256 153 " style=" stroke:none;fill-rule:nonzero;fill:rgb(10.196078%,67.843137%,36.078431%);fill-opacity:1;" />
<path d="M 290.980469 330.144531 L 255.761719 355.265625 L 221.019531 330.144531 C 203.84375 317.730469 192.964844 298.417969 191.25 277.296875 L 183.988281 197.953125 C 183.988281 197.953125 237.285156 170.046875 256 170.046875 C 274.714844 170.046875 328.011719 197.953125 328.011719 197.953125 L 320.75 277.296875 C 319.035156 298.417969 308.15625 317.730469 290.980469 330.144531 Z M 290.980469 330.144531 " style=" stroke:none;fill-rule:nonzero;fill:rgb(8.235294%,90.980392%,45.490196%);fill-opacity:1;" />
<path d="M 256 170.046875 C 255.921875 170.046875 255.839844 170.050781 255.761719 170.050781 L 255.761719 355.265625 L 290.980469 330.144531 C 308.15625 317.730469 319.035156 298.417969 320.75 277.296875 L 328.011719 197.953125 C 328.011719 197.953125 274.714844 170.046875 256 170.046875 Z M 256 170.046875 " style=" stroke:none;fill-rule:nonzero;fill:rgb(3.529412%,80.784314%,40.392157%);fill-opacity:1;" />
</g>
</svg>