<svg xmlns="http://www.w3.org/2000/svg" height="512pt" version="1.1" viewBox="0 0 512 512" width="512pt">
<g id="surface1">
<path d="M 512 256 C 512 397.386719 397.386719 512 256 512 C 114.613281 512 0 397.386719 0 256 C 0 114.613281 114.613281 0 256 0 C 397.386719 0 512 114.613281 512 256 Z M 512 256 " style=" stroke:none;fill-rule:nonzero;fill:rgb(99.607843%,41.568627%,8.627451%);fill-opacity:1;" />
<path d="M 512 256 C 512 249.0625 511.714844 242.191406 511.171875 235.394531 L 363.964844 88.1875 L 147.707031 423.5 L 235.378906 511.171875 C 242.179688 511.714844 249.058594 512 256 512 C 397.386719 512 512 397.386719 512 256 Z M 512 256 " style=" stroke:none;fill-rule:nonzero;fill:rgb(94.901961%,27.058824%,0%);fill-opacity:1;" />
<path d="M 347.285156 430.332031 L 164.714844 430.332031 C 151.125 430.332031 140.109375 419.316406 140.109375 405.726562 L 140.109375 106.273438 C 140.109375 92.683594 151.125 81.667969 164.714844 81.667969 L 347.285156 81.667969 C 360.878906 81.667969 371.894531 92.683594 371.894531 106.273438 L 371.894531 405.726562 C 371.894531 419.316406 360.875 430.332031 347.285156 430.332031 Z M 347.285156 430.332031 " style=" stroke:none;fill-rule:nonzero;fill:rgb(25.490196%,28.627451%,32.156863%);fill-opacity:1;" />
<path d="M 347.285156 81.667969 L 255.761719 81.667969 L 255.761719 430.335938 L 347.285156 430.335938 C 360.875 430.335938 371.890625 419.316406 371.890625 405.726562 L 371.890625 106.273438 C 371.894531 92.683594 360.875 81.667969 347.285156 81.667969 Z M 347.285156 81.667969 " style=" stroke:none;fill-rule:nonzero;fill:rgb(20%,22.352941%,25.098039%);fill-opacity:1;" />
<path d="M 301.488281 106.207031 L 298.460938 112.46875 C 296.609375 116.292969 292.734375 118.722656 288.484375 118.722656 L 223.515625 118.722656 C 219.265625 118.722656 215.394531 116.296875 213.542969 112.46875 L 210.511719 106.207031 C 208.664062 102.382812 204.789062 99.953125 200.539062 99.953125 L 167.460938 99.953125 C 161.339844 99.953125 156.378906 104.914062 156.378906 111.03125 L 156.378906 400.96875 C 156.378906 407.085938 161.339844 412.046875 167.460938 412.046875 L 344.539062 412.046875 C 350.660156 412.046875 355.621094 407.085938 355.621094 400.96875 L 355.621094 111.03125 C 355.621094 104.914062 350.660156 99.953125 344.539062 99.953125 L 311.464844 99.953125 C 307.214844 99.953125 303.339844 102.382812 301.488281 106.207031 Z M 301.488281 106.207031 " style=" stroke:none;fill-rule:nonzero;fill:rgb(100%,100%,100%);fill-opacity:1;" />
<path d="M 344.539062 99.953125 L 311.464844 99.953125 C 307.214844 99.953125 303.339844 102.382812 301.488281 106.207031 L 298.460938 112.46875 C 296.609375 116.292969 292.734375 118.722656 288.488281 118.722656 L 255.765625 118.722656 L 255.765625 412.046875 L 344.542969 412.046875 C 350.660156 412.046875 355.621094 407.089844 355.621094 400.96875 L 355.621094 111.03125 C 355.617188 104.914062 350.660156 99.953125 344.539062 99.953125 Z M 344.539062 99.953125 " style=" stroke:none;fill-rule:nonzero;fill:rgb(91.372549%,92.941176%,96.078431%);fill-opacity:1;" />
<path d="M 283.222656 199.789062 C 283.222656 184.753906 271.035156 172.566406 256 172.566406 C 240.964844 172.566406 228.777344 184.753906 228.777344 199.789062 C 228.777344 205.734375 230.691406 211.230469 233.925781 215.707031 L 233.925781 263.398438 L 278.078125 263.398438 L 278.078125 215.707031 C 281.308594 211.226562 283.222656 205.734375 283.222656 199.789062 Z M 283.222656 199.789062 " style=" stroke:none;fill-rule:nonzero;fill:rgb(20%,22.352941%,25.098039%);fill-opacity:1;" />
<path d="M 256 172.566406 C 255.921875 172.566406 255.84375 172.570312 255.761719 172.574219 L 255.761719 263.398438 L 278.078125 263.398438 L 278.078125 215.703125 C 281.308594 211.226562 283.222656 205.734375 283.222656 199.789062 C 283.222656 184.753906 271.035156 172.566406 256 172.566406 Z M 256 172.566406 " style=" stroke:none;fill-rule:nonzero;fill:rgb(13.72549%,15.294118%,16.862745%);fill-opacity:1;" />
<path d="M 224.332031 308.667969 C 224.332031 319.898438 215.230469 329 204 329 C 192.769531 329 183.667969 319.898438 183.667969 308.667969 C 183.667969 297.4375 192.769531 288.335938 204 288.335938 C 215.230469 288.335938 224.332031 297.4375 224.332031 308.667969 Z M 224.332031 308.667969 " style=" stroke:none;fill-rule:nonzero;fill:rgb(9.803922%,81.176471%,98.823529%);fill-opacity:1;" />
<path d="M 327.664062 308.667969 C 327.664062 319.898438 318.5625 329 307.332031 329 C 296.101562 329 287 319.898438 287 308.667969 C 287 297.4375 296.101562 288.335938 307.332031 288.335938 C 318.5625 288.335938 327.664062 297.4375 327.664062 308.667969 Z M 327.664062 308.667969 " style=" stroke:none;fill-rule:nonzero;fill:rgb(29.019608%,72.156863%,96.862745%);fill-opacity:1;" />
<path d="M 276.332031 308.667969 C 276.332031 319.898438 267.230469 329 256 329 C 244.769531 329 235.667969 319.898438 235.667969 308.667969 C 235.667969 297.4375 244.769531 288.335938 256 288.335938 C 267.230469 288.335938 276.332031 297.4375 276.332031 308.667969 Z M 276.332031 308.667969 " style=" stroke:none;fill-rule:nonzero;fill:rgb(9.803922%,81.176471%,98.823529%);fill-opacity:1;" />
<path d="M 256 288.332031 C 255.921875 288.332031 255.84375 288.34375 255.761719 288.34375 L 255.761719 328.988281 C 255.84375 328.988281 255.921875 329 256 329 C 267.230469 329 276.332031 319.894531 276.332031 308.667969 C 276.332031 297.4375 267.230469 288.332031 256 288.332031 Z M 256 288.332031 " style=" stroke:none;fill-rule:nonzero;fill:rgb(29.019608%,72.156863%,96.862745%);fill-opacity:1;" />
<path d="M 224.332031 365.601562 C 224.332031 376.832031 215.230469 385.933594 204 385.933594 C 192.769531 385.933594 183.667969 376.832031 183.667969 365.601562 C 183.667969 354.371094 192.769531 345.269531 204 345.269531 C 215.230469 345.269531 224.332031 354.371094 224.332031 365.601562 Z M 224.332031 365.601562 " style=" stroke:none;fill-rule:nonzero;fill:rgb(9.803922%,81.176471%,98.823529%);fill-opacity:1;" />
<path d="M 327.664062 365.601562 C 327.664062 376.832031 318.5625 385.933594 307.332031 385.933594 C 296.101562 385.933594 287 376.832031 287 365.601562 C 287 354.371094 296.101562 345.269531 307.332031 345.269531 C 318.5625 345.269531 327.664062 354.371094 327.664062 365.601562 Z M 327.664062 365.601562 " style=" stroke:none;fill-rule:nonzero;fill:rgb(29.019608%,72.156863%,96.862745%);fill-opacity:1;" />
<path d="M 276.332031 365.601562 C 276.332031 376.832031 267.230469 385.933594 256 385.933594 C 244.769531 385.933594 235.667969 376.832031 235.667969 365.601562 C 235.667969 354.371094 244.769531 345.269531 256 345.269531 C 267.230469 345.269531 276.332031 354.371094 276.332031 365.601562 Z M 276.332031 365.601562 " style=" stroke:none;fill-rule:nonzero;fill:rgb(9.803922%,81.176471%,98.823529%);fill-opacity:1;" />
<path d="M 256 345.269531 C 255.921875 345.269531 255.84375 345.277344 255.761719 345.28125 L 255.761719 385.921875 C 255.84375 385.925781 255.921875 385.933594 256 385.933594 C 267.230469 385.933594 276.332031 376.832031 276.332031 365.601562 C 276.332031 354.371094 267.230469 345.269531 256 345.269531 Z M 256 345.269531 " style=" stroke:none;fill-rule:nonzero;fill:rgb(29.019608%,72.156863%,96.862745%);fill-opacity:1;" />
</g>
</svg>