<svg xmlns="http://www.w3.org/2000/svg" height="512pt" version="1.1" viewBox="0 0 512 512" width="512pt">
<g id="surface1">
<path d="M 512 256 C 512 397.386719 397.386719 512 256 512 C 114.613281 512 0 397.386719 0 256 C 0 114.613281 114.613281 0 256 0 C 397.386719 0 512 114.613281 512 256 Z M 512 256 " style=" stroke:none;fill-rule:nonzero;fill:rgb(25.490196%,28.627451%,32.156863%);fill-opacity:1;" />
<path d="M 512 256 C 512 245.4375 511.347656 235.03125 510.105469 224.804688 L 421.648438 136.351562 L 113.582031 245.808594 L 199.441406 331.667969 L 123.515625 407.589844 L 137.257812 482.835938 C 172.75 501.453125 213.140625 512 256 512 C 397.386719 512 512 397.386719 512 256 Z M 512 256 " style=" stroke:none;fill-rule:nonzero;fill:rgb(20%,22.352941%,25.098039%);fill-opacity:1;" />
<path d="M 400.875 185.800781 L 447.003906 200.058594 L 431.5 250.21875 L 385.371094 235.960938 Z M 400.875 185.800781 " style=" stroke:none;fill-rule:nonzero;fill:rgb(56.862745%,58.823529%,66.666667%);fill-opacity:1;" />
<path d="M 180 231 L 233.5 231 L 233.5 298.5 L 180 298.5 Z M 180 231 " style=" stroke:none;fill-rule:nonzero;fill:rgb(68.627451%,70.588235%,78.431373%);fill-opacity:1;" />
<path d="M 190.199219 298.71875 L 228.03125 336.546875 L 138.792969 425.785156 L 100.960938 387.957031 Z M 190.199219 298.71875 " style=" stroke:none;fill-rule:nonzero;fill:rgb(68.627451%,70.588235%,78.431373%);fill-opacity:1;" />
<path d="M 364.964844 158.339844 L 429.769531 178.371094 L 405.777344 255.992188 L 340.972656 235.960938 Z M 364.964844 158.339844 " style=" stroke:none;fill-rule:nonzero;fill:rgb(86.27451%,88.235294%,92.156863%);fill-opacity:1;" />
<path d="M 327.855469 255.101562 L 138.550781 255.101562 C 119.484375 255.101562 103.339844 241.042969 100.714844 222.160156 L 96.441406 191.367188 L 369.96875 191.367188 L 365.691406 222.160156 C 363.066406 241.042969 346.921875 255.101562 327.855469 255.101562 Z M 327.855469 255.101562 " style=" stroke:none;fill-rule:nonzero;fill:rgb(86.27451%,88.235294%,92.156863%);fill-opacity:1;" />
<path d="M 255.761719 191.367188 L 255.761719 255.101562 L 327.855469 255.101562 C 346.921875 255.101562 363.066406 241.042969 365.691406 222.160156 L 369.964844 191.367188 Z M 255.761719 191.367188 " style=" stroke:none;fill-rule:nonzero;fill:rgb(80.392157%,82.352941%,88.235294%);fill-opacity:1;" />
<path d="M 369.816406 214.792969 L 136.832031 214.792969 C 113.363281 214.792969 93.492188 197.488281 90.265625 174.246094 L 85 136.351562 L 421.648438 136.351562 L 416.386719 174.246094 C 413.15625 197.488281 393.285156 214.792969 369.816406 214.792969 Z M 369.816406 214.792969 " style=" stroke:none;fill-rule:nonzero;fill:rgb(100%,100%,100%);fill-opacity:1;" />
<path d="M 255.761719 136.351562 L 255.761719 214.792969 L 369.816406 214.792969 C 393.285156 214.792969 413.15625 197.488281 416.386719 174.246094 L 421.648438 136.347656 L 255.761719 136.347656 Z M 255.761719 136.351562 " style=" stroke:none;fill-rule:nonzero;fill:rgb(91.372549%,92.941176%,96.078431%);fill-opacity:1;" />
<path d="M 249.5 318.25 C 249.5 341.859375 230.359375 361 206.75 361 C 183.140625 361 164 341.859375 164 318.25 C 164 294.640625 183.140625 275.5 206.75 275.5 C 230.359375 275.5 249.5 294.640625 249.5 318.25 Z M 249.5 318.25 " style=" stroke:none;fill-rule:nonzero;fill:rgb(100%,100%,100%);fill-opacity:1;" />
<path d="M 230 318.25 C 230 331.089844 219.589844 341.5 206.75 341.5 C 193.910156 341.5 183.5 331.089844 183.5 318.25 C 183.5 305.410156 193.910156 295 206.75 295 C 219.589844 295 230 305.410156 230 318.25 Z M 230 318.25 " style=" stroke:none;fill-rule:nonzero;fill:rgb(86.27451%,88.235294%,92.156863%);fill-opacity:1;" />
<path d="M 100.660156 364.210938 C 91.972656 355.523438 77.886719 355.523438 69.195312 364.210938 L 39.984375 393.425781 C 63.980469 431.066406 97.550781 462.003906 137.257812 482.832031 L 162.535156 457.550781 C 171.226562 448.863281 171.226562 434.777344 162.535156 426.089844 Z M 100.660156 364.210938 " style=" stroke:none;fill-rule:nonzero;fill:rgb(86.27451%,88.235294%,92.156863%);fill-opacity:1;" />
</g>
</svg>