<svg xmlns="http://www.w3.org/2000/svg" height="512pt" version="1.1" viewBox="0 0 512 512" width="512pt">
<g id="surface1">
<path d="M 512 256 C 512 397.386719 397.386719 512 256 512 C 114.613281 512 0 397.386719 0 256 C 0 114.613281 114.613281 0 256 0 C 397.386719 0 512 114.613281 512 256 Z M 512 256 " style=" stroke:none;fill-rule:nonzero;fill:rgb(3.529412%,80.784314%,40.392157%);fill-opacity:1;" />
<path d="M 322.675781 124.746094 L 450.214844 252.285156 L 436.777344 256 L 382.824219 202.046875 L 352.316406 245.769531 L 200.140625 93.589844 L 118.261719 104.613281 L 104.511719 189.222656 L 166.625 251.335938 L 52.25 266.699219 L 107.195312 321.644531 L 93.488281 407.386719 L 189.304688 503.207031 C 210.570312 508.929688 232.925781 512 256 512 C 397.386719 512 512 397.386719 512 256 C 512 233.027344 508.957031 210.769531 503.28125 189.589844 L 418.304688 104.613281 Z M 322.675781 124.746094 " style=" stroke:none;fill-rule:nonzero;fill:rgb(10.196078%,67.843137%,36.078431%);fill-opacity:1;" />
<path d="M 428.652344 256 C 428.652344 256 351.308594 373.023438 255.898438 373.023438 C 160.484375 373.023438 83.140625 256 83.140625 256 C 83.140625 256 160.484375 138.976562 255.898438 138.976562 C 351.308594 138.976562 428.652344 256 428.652344 256 Z M 428.652344 256 " style=" stroke:none;fill-rule:nonzero;fill:rgb(100%,100%,100%);fill-opacity:1;" />
<path d="M 255.898438 138.976562 C 255.851562 138.976562 255.808594 138.976562 255.761719 138.976562 L 255.761719 373.023438 C 255.808594 373.023438 255.851562 373.023438 255.898438 373.023438 C 351.308594 373.023438 428.652344 256 428.652344 256 C 428.652344 256 351.308594 138.976562 255.898438 138.976562 Z M 255.898438 138.976562 " style=" stroke:none;fill-rule:nonzero;fill:rgb(91.372549%,92.941176%,96.078431%);fill-opacity:1;" />
<path d="M 351.789062 256 C 351.789062 308.960938 308.855469 351.890625 255.898438 351.890625 C 202.9375 351.890625 160.007812 308.960938 160.007812 256 C 160.007812 203.039062 202.9375 160.109375 255.898438 160.109375 C 308.855469 160.109375 351.789062 203.039062 351.789062 256 Z M 351.789062 256 " style=" stroke:none;fill-rule:nonzero;fill:rgb(9.803922%,81.176471%,98.823529%);fill-opacity:1;" />
<path d="M 255.898438 160.109375 C 255.851562 160.109375 255.808594 160.109375 255.761719 160.109375 L 255.761719 351.886719 C 255.808594 351.886719 255.851562 351.890625 255.898438 351.890625 C 308.855469 351.890625 351.789062 308.957031 351.789062 256 C 351.789062 203.039062 308.855469 160.109375 255.898438 160.109375 Z M 255.898438 160.109375 " style=" stroke:none;fill-rule:nonzero;fill:rgb(29.019608%,72.156863%,96.862745%);fill-opacity:1;" />
<path d="M 299.355469 256 C 299.355469 280 279.898438 299.457031 255.898438 299.457031 C 231.894531 299.457031 212.4375 280 212.4375 256 C 212.4375 232 231.894531 212.542969 255.898438 212.542969 C 279.898438 212.542969 299.355469 232 299.355469 256 Z M 299.355469 256 " style=" stroke:none;fill-rule:nonzero;fill:rgb(25.490196%,28.627451%,32.156863%);fill-opacity:1;" />
<path d="M 255.898438 212.542969 C 255.851562 212.542969 255.808594 212.546875 255.761719 212.546875 L 255.761719 299.453125 C 255.808594 299.453125 255.851562 299.457031 255.898438 299.457031 C 279.898438 299.457031 299.355469 280 299.355469 256 C 299.355469 231.996094 279.898438 212.542969 255.898438 212.542969 Z M 255.898438 212.542969 " style=" stroke:none;fill-rule:nonzero;fill:rgb(20%,22.352941%,25.098039%);fill-opacity:1;" />
<path d="M 83.140625 256 C 83.140625 256 160.484375 138.976562 255.898438 138.976562 C 351.308594 138.976562 428.652344 256 428.652344 256 Z M 83.140625 256 " style=" stroke:none;fill-rule:nonzero;fill:rgb(91.372549%,92.941176%,96.078431%);fill-opacity:1;" />
<path d="M 83.140625 256 C 83.140625 256 160.484375 138.976562 255.898438 138.976562 C 351.308594 138.976562 428.652344 256 428.652344 256 Z M 83.140625 256 " style=" stroke:none;fill-rule:nonzero;fill:rgb(91.372549%,92.941176%,96.078431%);fill-opacity:1;" />
<path d="M 255.761719 138.984375 L 255.761719 256 L 428.652344 256 C 428.652344 256 351.554688 139.359375 255.761719 138.984375 Z M 255.761719 138.984375 " style=" stroke:none;fill-rule:nonzero;fill:rgb(86.27451%,88.235294%,92.156863%);fill-opacity:1;" />
<path d="M 160.007812 256 C 160.007812 203.039062 202.9375 160.109375 255.898438 160.109375 C 308.855469 160.109375 351.789062 203.039062 351.789062 256 Z M 160.007812 256 " style=" stroke:none;fill-rule:nonzero;fill:rgb(70.980392%,93.72549%,100%);fill-opacity:1;" />
<path d="M 255.898438 160.109375 C 255.851562 160.109375 255.808594 160.109375 255.761719 160.109375 L 255.761719 256 L 351.789062 256 C 351.789062 203.039062 308.855469 160.109375 255.898438 160.109375 Z M 255.898438 160.109375 " style=" stroke:none;fill-rule:nonzero;fill:rgb(58.823529%,90.980392%,100%);fill-opacity:1;" />
<path d="M 212.4375 256 C 212.4375 232 231.894531 212.542969 255.898438 212.542969 C 279.898438 212.542969 299.355469 232 299.355469 256 Z M 212.4375 256 " style=" stroke:none;fill-rule:nonzero;fill:rgb(49.411765%,52.156863%,58.823529%);fill-opacity:1;" />
<path d="M 255.898438 212.542969 C 255.851562 212.542969 255.808594 212.546875 255.761719 212.546875 L 255.761719 256 L 299.355469 256 C 299.355469 232 279.898438 212.542969 255.898438 212.542969 Z M 255.898438 212.542969 " style=" stroke:none;fill-rule:nonzero;fill:rgb(43.921569%,46.666667%,53.72549%);fill-opacity:1;" />
<path d="M 52.25 245.300781 L 452.25 245.300781 L 452.25 266.695312 L 52.25 266.695312 Z M 52.25 245.300781 " style=" stroke:none;fill-rule:nonzero;fill:rgb(99.607843%,41.568627%,8.627451%);fill-opacity:1;" />
<path d="M 255.761719 245.300781 L 452.25 245.300781 L 452.25 266.695312 L 255.761719 266.695312 Z M 255.761719 245.300781 " style=" stroke:none;fill-rule:nonzero;fill:rgb(94.901961%,27.058824%,0%);fill-opacity:1;" />
<path d="M 124.640625 113.722656 L 200.140625 113.722656 L 200.140625 93.589844 L 104.511719 93.589844 L 104.511719 189.222656 L 124.640625 189.222656 Z M 124.640625 113.722656 " style=" stroke:none;fill-rule:nonzero;fill:rgb(91.372549%,92.941176%,96.078431%);fill-opacity:1;" />
<path d="M 113.621094 387.253906 L 113.621094 311.757812 L 93.488281 311.757812 L 93.488281 407.386719 L 189.117188 407.386719 L 189.117188 387.253906 Z M 113.621094 387.253906 " style=" stroke:none;fill-rule:nonzero;fill:rgb(91.372549%,92.941176%,96.078431%);fill-opacity:1;" />
<path d="M 398.171875 124.746094 L 398.171875 200.242188 L 418.304688 200.242188 L 418.304688 104.613281 L 322.675781 104.613281 L 322.675781 124.746094 Z M 398.171875 124.746094 " style=" stroke:none;fill-rule:nonzero;fill:rgb(86.27451%,88.235294%,92.156863%);fill-opacity:1;" />
<path d="M 387.152344 398.277344 L 311.652344 398.277344 L 311.652344 418.410156 L 407.285156 418.410156 L 407.285156 322.777344 L 387.152344 322.777344 Z M 387.152344 398.277344 " style=" stroke:none;fill-rule:nonzero;fill:rgb(86.27451%,88.235294%,92.156863%);fill-opacity:1;" />
</g>
</svg>