<svg xmlns="http://www.w3.org/2000/svg" height="512pt" version="1.1" viewBox="0 0 512 512" width="512pt">
<g id="surface1">
<path d="M 512 256 C 512 397.386719 397.386719 512 256 512 C 114.613281 512 0 397.386719 0 256 C 0 114.613281 114.613281 0 256 0 C 397.386719 0 512 114.613281 512 256 Z M 512 256 " style=" stroke:none;fill-rule:nonzero;fill:rgb(3.529412%,80.784314%,40.392157%);fill-opacity:1;" />
<path d="M 511.933594 261.386719 L 331.371094 80.824219 L 193.855469 77 L 143.425781 424.246094 L 229.863281 510.683594 C 238.457031 511.554688 247.175781 512 256 512 C 395.585938 512 509.0625 400.28125 511.933594 261.386719 Z M 511.933594 261.386719 " style=" stroke:none;fill-rule:nonzero;fill:rgb(10.196078%,67.843137%,36.078431%);fill-opacity:1;" />
<path d="M 357.273438 316.9375 L 322.273438 316.9375 L 322.273438 148.390625 C 322.273438 111.847656 292.542969 82.117188 256 82.117188 C 219.457031 82.117188 189.726562 111.847656 189.726562 148.390625 L 189.726562 316.9375 L 154.726562 316.9375 L 154.726562 148.390625 C 154.726562 92.550781 200.15625 47.117188 256 47.117188 C 311.84375 47.117188 357.273438 92.550781 357.273438 148.390625 Z M 357.273438 316.9375 " style=" stroke:none;fill-rule:nonzero;fill:rgb(100%,100%,100%);fill-opacity:1;" />
<path d="M 256 47.117188 C 255.921875 47.117188 255.839844 47.121094 255.761719 47.121094 L 255.761719 82.121094 C 255.84375 82.121094 255.921875 82.117188 256 82.117188 C 292.542969 82.117188 322.273438 111.847656 322.273438 148.390625 L 322.273438 316.9375 L 357.273438 316.9375 L 357.273438 148.390625 C 357.273438 92.550781 311.84375 47.117188 256 47.117188 Z M 256 47.117188 " style=" stroke:none;fill-rule:nonzero;fill:rgb(91.372549%,92.941176%,96.078431%);fill-opacity:1;" />
<path d="M 318.878906 446 L 193.121094 446 C 155.757812 446 125.472656 415.710938 125.472656 378.351562 L 125.472656 287.613281 C 125.472656 250.25 155.757812 219.960938 193.121094 219.960938 L 318.878906 219.960938 C 356.242188 219.960938 386.527344 250.25 386.527344 287.613281 L 386.527344 378.351562 C 386.53125 415.710938 356.242188 446 318.878906 446 Z M 318.878906 446 " style=" stroke:none;fill-rule:nonzero;fill:rgb(33.333333%,35.294118%,40%);fill-opacity:1;" />
<path d="M 318.878906 219.960938 L 255.761719 219.960938 L 255.761719 446 L 318.878906 446 C 356.242188 446 386.527344 415.710938 386.527344 378.351562 L 386.527344 287.613281 C 386.53125 250.25 356.242188 219.960938 318.878906 219.960938 Z M 318.878906 219.960938 " style=" stroke:none;fill-rule:nonzero;fill:rgb(25.490196%,28.627451%,32.156863%);fill-opacity:1;" />
<path d="M 290.136719 306.804688 C 290.136719 287.949219 274.851562 272.667969 256 272.667969 C 237.148438 272.667969 221.863281 287.949219 221.863281 306.804688 C 221.863281 314.257812 224.261719 321.148438 228.316406 326.765625 L 228.316406 386.570312 L 283.683594 386.570312 L 283.683594 326.765625 C 287.738281 321.148438 290.136719 314.257812 290.136719 306.804688 Z M 290.136719 306.804688 " style=" stroke:none;fill-rule:nonzero;fill:rgb(20%,22.352941%,25.098039%);fill-opacity:1;" />
<path d="M 256 272.667969 C 255.921875 272.667969 255.84375 272.671875 255.761719 272.675781 L 255.761719 386.570312 L 283.683594 386.570312 L 283.683594 326.765625 C 287.738281 321.148438 290.136719 314.257812 290.136719 306.804688 C 290.136719 287.949219 274.851562 272.667969 256 272.667969 Z M 256 272.667969 " style=" stroke:none;fill-rule:nonzero;fill:rgb(13.72549%,15.294118%,16.862745%);fill-opacity:1;" />
</g>
</svg>