<svg xmlns="http://www.w3.org/2000/svg" height="512pt" version="1.1" viewBox="0 0 512 512" width="512pt">
<g id="surface1">
<path d="M 512 256 C 512 397.386719 397.386719 512 256 512 C 114.613281 512 0 397.386719 0 256 C 0 114.613281 114.613281 0 256 0 C 397.386719 0 512 114.613281 512 256 Z M 512 256 " style=" stroke:none;fill-rule:nonzero;fill:rgb(99.607843%,41.568627%,8.627451%);fill-opacity:1;" />
<path d="M 512 256 C 512 248.109375 511.625 240.3125 510.925781 232.605469 L 363.582031 85.261719 L 107.265625 294.246094 L 168.074219 355.054688 L 148.417969 442.261719 L 214.847656 508.691406 C 228.246094 510.855469 241.988281 512 256 512 C 397.386719 512 512 397.386719 512 256 Z M 512 256 " style=" stroke:none;fill-rule:nonzero;fill:rgb(94.901961%,27.058824%,0%);fill-opacity:1;" />
<path d="M 202.855469 85.261719 L 148.417969 139.699219 L 148.417969 442.261719 L 169.699219 442.261719 L 169.699219 294.316406 L 186.851562 294.316406 L 186.851562 442.261719 L 208.5625 442.261719 L 208.5625 294.316406 L 225.714844 294.316406 L 225.714844 442.261719 L 247.421875 442.261719 L 247.421875 294.316406 L 264.578125 294.316406 L 264.578125 442.261719 L 286.285156 442.261719 L 286.285156 294.316406 L 303.4375 294.316406 L 303.4375 442.261719 L 325.148438 442.261719 L 325.148438 294.316406 L 342.300781 294.316406 L 342.300781 442.261719 L 363.582031 442.261719 L 363.582031 85.261719 Z M 202.855469 85.261719 " style=" stroke:none;fill-rule:nonzero;fill:rgb(100%,100%,100%);fill-opacity:1;" />
<path d="M 255.761719 85.261719 L 255.761719 294.316406 L 264.578125 294.316406 L 264.578125 442.261719 L 286.285156 442.261719 L 286.285156 294.316406 L 303.4375 294.316406 L 303.4375 442.261719 L 325.148438 442.261719 L 325.148438 294.316406 L 342.300781 294.316406 L 342.300781 442.261719 L 363.582031 442.261719 L 363.582031 85.261719 Z M 255.761719 85.261719 " style=" stroke:none;fill-rule:nonzero;fill:rgb(91.372549%,92.941176%,96.078431%);fill-opacity:1;" />
<path d="M 202.855469 139.699219 L 202.855469 85.261719 L 148.417969 139.699219 Z M 202.855469 139.699219 " style=" stroke:none;fill-rule:nonzero;fill:rgb(68.627451%,70.588235%,78.431373%);fill-opacity:1;" />
<path d="M 386.859375 302.414062 L 125.140625 302.414062 C 112.074219 302.414062 101.480469 291.820312 101.480469 278.757812 L 101.480469 215.292969 C 101.480469 202.226562 112.074219 191.632812 125.140625 191.632812 L 386.859375 191.632812 C 399.925781 191.632812 410.519531 202.226562 410.519531 215.292969 L 410.519531 278.757812 C 410.519531 291.820312 399.925781 302.414062 386.859375 302.414062 Z M 386.859375 302.414062 " style=" stroke:none;fill-rule:nonzero;fill:rgb(25.490196%,28.627451%,32.156863%);fill-opacity:1;" />
<path d="M 386.859375 191.632812 L 255.761719 191.632812 L 255.761719 302.414062 L 386.859375 302.414062 C 399.925781 302.414062 410.519531 291.824219 410.519531 278.757812 L 410.519531 215.292969 C 410.519531 202.226562 399.925781 191.632812 386.859375 191.632812 Z M 386.859375 191.632812 " style=" stroke:none;fill-rule:nonzero;fill:rgb(20%,22.352941%,25.098039%);fill-opacity:1;" />
<path d="M 388.28125 222.695312 C 388.28125 228.929688 383.226562 233.980469 376.996094 233.980469 C 370.761719 233.980469 365.710938 228.929688 365.710938 222.695312 C 365.710938 216.460938 370.761719 211.410156 376.996094 211.410156 C 383.226562 211.410156 388.28125 216.460938 388.28125 222.695312 Z M 388.28125 222.695312 " style=" stroke:none;fill-rule:nonzero;fill:rgb(9.803922%,81.176471%,98.823529%);fill-opacity:1;" />
<path d="M 357.546875 222.695312 C 357.546875 228.929688 352.496094 233.980469 346.261719 233.980469 C 340.027344 233.980469 334.976562 228.929688 334.976562 222.695312 C 334.976562 216.460938 340.027344 211.410156 346.261719 211.410156 C 352.496094 211.410156 357.546875 216.460938 357.546875 222.695312 Z M 357.546875 222.695312 " style=" stroke:none;fill-rule:nonzero;fill:rgb(3.529412%,80.784314%,40.392157%);fill-opacity:1;" />
</g>
</svg>