<svg xmlns="http://www.w3.org/2000/svg" height="512pt" version="1.1" viewBox="0 0 512 512" width="512pt">
<g id="surface1">
<path d="M 512 256 C 512 397.386719 397.386719 512 256 512 C 114.613281 512 0 397.386719 0 256 C 0 114.613281 114.613281 0 256 0 C 397.386719 0 512 114.613281 512 256 Z M 512 256 " style=" stroke:none;fill-rule:nonzero;fill:rgb(25.490196%,28.627451%,32.156863%);fill-opacity:1;" />
<path d="M 512 256 C 512 249.71875 511.761719 243.496094 511.320312 237.328125 L 388.347656 114.359375 L 215.285156 114.359375 L 131.921875 199.953125 L 131.921875 404.953125 L 238.351562 511.382812 C 244.183594 511.78125 250.066406 512 256 512 C 397.386719 512 512 397.386719 512 256 Z M 512 256 " style=" stroke:none;fill-rule:nonzero;fill:rgb(20%,22.352941%,25.098039%);fill-opacity:1;" />
<path d="M 256 62.136719 C 148.933594 62.136719 62.136719 148.933594 62.136719 256 C 62.136719 363.066406 148.933594 449.863281 256 449.863281 C 363.066406 449.863281 449.863281 363.066406 449.863281 256 C 449.863281 148.933594 363.066406 62.136719 256 62.136719 Z M 256 372 C 191.933594 372 140 320.066406 140 256 C 140 191.933594 191.933594 140 256 140 C 320.066406 140 372 191.933594 372 256 C 372 320.066406 320.066406 372 256 372 Z M 256 372 " style=" stroke:none;fill-rule:nonzero;fill:rgb(100%,100%,100%);fill-opacity:1;" />
<path d="M 256 62.136719 C 255.921875 62.136719 255.839844 62.140625 255.761719 62.140625 L 255.761719 140.003906 C 255.84375 140.003906 255.921875 140 256 140 C 320.066406 140 372 191.933594 372 256 C 372 320.066406 320.066406 372 256 372 C 255.921875 372 255.839844 371.996094 255.761719 371.996094 L 255.761719 449.859375 C 255.84375 449.859375 255.921875 449.863281 256 449.863281 C 363.066406 449.863281 449.863281 363.066406 449.863281 256 C 449.863281 148.933594 363.066406 62.136719 256 62.136719 Z M 256 62.136719 " style=" stroke:none;fill-rule:nonzero;fill:rgb(91.372549%,92.941176%,96.078431%);fill-opacity:1;" />
<path d="M 140 256 C 140 237.566406 144.308594 220.144531 151.957031 204.667969 L 69.019531 204.667969 C 64.539062 221.019531 62.136719 238.226562 62.136719 256 C 62.136719 273.773438 64.539062 290.980469 69.019531 307.332031 L 151.957031 307.332031 C 144.304688 291.855469 140 274.433594 140 256 Z M 140 256 " style=" stroke:none;fill-rule:nonzero;fill:rgb(99.607843%,41.568627%,8.627451%);fill-opacity:1;" />
<path d="M 372 256 C 372 274.433594 367.691406 291.855469 360.042969 307.332031 L 442.980469 307.332031 C 447.460938 290.980469 449.863281 273.773438 449.863281 256 C 449.863281 238.226562 447.460938 221.019531 442.980469 204.667969 L 360.042969 204.667969 C 367.695312 220.144531 372 237.566406 372 256 Z M 372 256 " style=" stroke:none;fill-rule:nonzero;fill:rgb(94.901961%,27.058824%,0%);fill-opacity:1;" />
<path d="M 204.667969 69.019531 L 204.667969 151.957031 C 220.144531 144.308594 237.566406 140 256 140 C 274.433594 140 291.855469 144.304688 307.332031 151.957031 L 307.332031 69.019531 C 290.980469 64.542969 273.773438 62.136719 256 62.136719 C 238.226562 62.136719 221.019531 64.542969 204.667969 69.019531 Z M 204.667969 69.019531 " style=" stroke:none;fill-rule:nonzero;fill:rgb(99.607843%,41.568627%,8.627451%);fill-opacity:1;" />
<path d="M 256 62.136719 C 255.921875 62.136719 255.84375 62.140625 255.761719 62.140625 L 255.761719 140.003906 C 255.84375 140.003906 255.921875 140 256 140 C 274.433594 140 291.855469 144.308594 307.332031 151.957031 L 307.332031 69.019531 C 290.980469 64.542969 273.773438 62.136719 256 62.136719 Z M 256 62.136719 " style=" stroke:none;fill-rule:nonzero;fill:rgb(94.901961%,27.058824%,0%);fill-opacity:1;" />
<path d="M 307.332031 442.980469 L 307.332031 360.042969 C 291.855469 367.695312 274.433594 372 256 372 C 237.566406 372 220.144531 367.691406 204.667969 360.042969 L 204.667969 442.980469 C 221.019531 447.460938 238.226562 449.863281 256 449.863281 C 273.773438 449.863281 290.980469 447.457031 307.332031 442.980469 Z M 307.332031 442.980469 " style=" stroke:none;fill-rule:nonzero;fill:rgb(99.607843%,41.568627%,8.627451%);fill-opacity:1;" />
<path d="M 256 372 C 255.921875 372 255.839844 371.996094 255.761719 371.996094 L 255.761719 449.859375 C 255.84375 449.859375 255.921875 449.863281 256 449.863281 C 273.773438 449.863281 290.980469 447.460938 307.332031 442.980469 L 307.332031 360.042969 C 291.855469 367.695312 274.433594 372 256 372 Z M 256 372 " style=" stroke:none;fill-rule:nonzero;fill:rgb(94.901961%,27.058824%,0%);fill-opacity:1;" />
</g>
</svg>