<svg xmlns="http://www.w3.org/2000/svg" height="512pt" version="1.1" viewBox="0 0 512 512" width="512pt">
<g id="surface1">
<path d="M 512 256 C 512 397.386719 397.386719 512 256 512 C 114.613281 512 0 397.386719 0 256 C 0 114.613281 114.613281 0 256 0 C 397.386719 0 512 114.613281 512 256 Z M 512 256 " style=" stroke:none;fill-rule:nonzero;fill:rgb(99.607843%,41.568627%,8.627451%);fill-opacity:1;" />
<path d="M 509.355469 292.804688 L 389.113281 172.566406 L 385.839844 178.644531 L 267.191406 60 L 164.371094 429.292969 L 246.898438 511.820312 C 249.921875 511.925781 252.953125 512 256 512 C 384.886719 512 491.507812 416.75 509.355469 292.804688 Z M 509.355469 292.804688 " style=" stroke:none;fill-rule:nonzero;fill:rgb(94.901961%,27.058824%,0%);fill-opacity:1;" />
<path d="M 165.191406 60 L 267.191406 60 L 267.191406 150 L 165.191406 150 Z M 165.191406 60 " style=" stroke:none;fill-rule:nonzero;fill:rgb(100%,100%,100%);fill-opacity:1;" />
<path d="M 215.882812 60 L 267.195312 60 L 267.195312 150 L 215.882812 150 Z M 215.882812 60 " style=" stroke:none;fill-rule:nonzero;fill:rgb(91.372549%,92.941176%,96.078431%);fill-opacity:1;" />
<path d="M 216.195312 452 C 177.257812 452 145.695312 420.4375 145.695312 381.5 L 145.695312 131 L 286.695312 131 L 286.695312 381.5 C 286.691406 420.4375 255.128906 452 216.195312 452 Z M 216.195312 452 " style=" stroke:none;fill-rule:nonzero;fill:rgb(100%,83.137255%,0%);fill-opacity:1;" />
<path d="M 215.882812 131 L 215.882812 451.992188 C 215.984375 451.992188 216.089844 452 216.191406 452 C 255.128906 452 286.691406 420.4375 286.691406 381.5 L 286.691406 131 Z M 215.882812 131 " style=" stroke:none;fill-rule:nonzero;fill:rgb(99.215686%,72.941176%,7.058824%);fill-opacity:1;" />
<path d="M 179.691406 71.5 L 198.191406 71.5 L 198.191406 119 L 179.691406 119 Z M 179.691406 71.5 " style=" stroke:none;fill-rule:nonzero;fill:rgb(68.627451%,70.588235%,78.431373%);fill-opacity:1;" />
<path d="M 234.191406 71.5 L 252.691406 71.5 L 252.691406 119 L 234.191406 119 Z M 234.191406 71.5 " style=" stroke:none;fill-rule:nonzero;fill:rgb(56.862745%,58.823529%,66.666667%);fill-opacity:1;" />
<path d="M 408.65625 334.308594 L 385.003906 334.308594 L 385.003906 220.398438 C 385.003906 195.703125 364.910156 175.609375 340.214844 175.609375 C 315.515625 175.609375 295.425781 195.703125 295.425781 220.398438 L 295.425781 334.308594 L 271.769531 334.308594 L 271.769531 220.398438 C 271.769531 182.660156 302.472656 151.957031 340.214844 151.957031 C 377.953125 151.957031 408.65625 182.660156 408.65625 220.398438 Z M 408.65625 334.308594 " style=" stroke:none;fill-rule:nonzero;fill:rgb(100%,100%,100%);fill-opacity:1;" />
<path d="M 340.214844 151.957031 C 340.039062 151.957031 339.863281 151.96875 339.691406 151.96875 L 339.691406 175.625 C 339.863281 175.621094 340.039062 175.609375 340.214844 175.609375 C 364.910156 175.609375 385.003906 195.703125 385.003906 220.398438 L 385.003906 334.304688 L 408.65625 334.304688 L 408.65625 220.398438 C 408.65625 182.660156 377.953125 151.957031 340.214844 151.957031 Z M 340.214844 151.957031 " style=" stroke:none;fill-rule:nonzero;fill:rgb(91.372549%,92.941176%,96.078431%);fill-opacity:1;" />
<path d="M 382.710938 395.894531 L 297.71875 395.894531 C 272.46875 395.894531 252 375.425781 252 350.171875 L 252 288.851562 C 252 263.601562 272.46875 243.132812 297.71875 243.132812 L 382.710938 243.132812 C 407.960938 243.132812 428.429688 263.601562 428.429688 288.851562 L 428.429688 350.171875 C 428.429688 375.425781 407.960938 395.894531 382.710938 395.894531 Z M 382.710938 395.894531 " style=" stroke:none;fill-rule:nonzero;fill:rgb(33.333333%,35.294118%,40%);fill-opacity:1;" />
<path d="M 382.710938 243.132812 L 339.691406 243.132812 L 339.691406 395.894531 L 382.710938 395.894531 C 407.960938 395.894531 428.429688 375.425781 428.429688 350.175781 L 428.429688 288.851562 C 428.429688 263.601562 407.960938 243.132812 382.710938 243.132812 Z M 382.710938 243.132812 " style=" stroke:none;fill-rule:nonzero;fill:rgb(25.490196%,28.627451%,32.156863%);fill-opacity:1;" />
<path d="M 363.285156 301.820312 C 363.285156 289.082031 352.953125 278.753906 340.214844 278.753906 C 327.472656 278.753906 317.144531 289.082031 317.144531 301.820312 C 317.144531 306.859375 318.765625 311.515625 321.503906 315.3125 L 321.503906 355.730469 L 358.921875 355.730469 L 358.921875 315.3125 C 361.664062 311.515625 363.285156 306.859375 363.285156 301.820312 Z M 363.285156 301.820312 " style=" stroke:none;fill-rule:nonzero;fill:rgb(20%,22.352941%,25.098039%);fill-opacity:1;" />
<path d="M 340.214844 278.753906 C 340.039062 278.753906 339.863281 278.761719 339.691406 278.765625 L 339.691406 355.730469 L 358.925781 355.730469 L 358.925781 315.308594 C 361.664062 311.515625 363.285156 306.859375 363.285156 301.820312 C 363.285156 289.082031 352.957031 278.753906 340.214844 278.753906 Z M 340.214844 278.753906 " style=" stroke:none;fill-rule:nonzero;fill:rgb(13.72549%,15.294118%,16.862745%);fill-opacity:1;" />
</g>
</svg>