<svg xmlns="http://www.w3.org/2000/svg" height="512pt" version="1.1" viewBox="0 0 512 512" width="512pt">
<g id="surface1">
<path d="M 512 256 C 512 397.386719 397.386719 512 256 512 C 114.613281 512 0 397.386719 0 256 C 0 114.613281 114.613281 0 256 0 C 397.386719 0 512 114.613281 512 256 Z M 512 256 " style=" stroke:none;fill-rule:nonzero;fill:rgb(100%,83.137255%,0%);fill-opacity:1;" />
<path d="M 512 256 C 512 246.351562 511.449219 236.832031 510.40625 227.460938 L 414.566406 131.617188 L 390.03125 207.253906 L 293.660156 110.882812 L 222.429688 110.882812 L 83.25 346.5 L 248.636719 511.886719 C 251.085938 511.957031 253.535156 512 256 512 C 397.386719 512 512 397.386719 512 256 Z M 512 256 " style=" stroke:none;fill-rule:nonzero;fill:rgb(99.215686%,72.941176%,7.058824%);fill-opacity:1;" />
<path d="M 97.433594 131.617188 L 414.566406 131.617188 L 414.566406 333.761719 L 97.433594 333.761719 Z M 97.433594 131.617188 " style=" stroke:none;fill-rule:nonzero;fill:rgb(25.490196%,28.627451%,32.156863%);fill-opacity:1;" />
<path d="M 255.761719 131.617188 L 414.566406 131.617188 L 414.566406 333.761719 L 255.761719 333.761719 Z M 255.761719 131.617188 " style=" stroke:none;fill-rule:nonzero;fill:rgb(20%,22.352941%,25.098039%);fill-opacity:1;" />
<path d="M 112.332031 144.519531 L 399.664062 144.519531 L 399.664062 320.863281 L 112.332031 320.863281 Z M 112.332031 144.519531 " style=" stroke:none;fill-rule:nonzero;fill:rgb(3.529412%,80.784314%,40.392157%);fill-opacity:1;" />
<path d="M 255.761719 144.519531 L 399.667969 144.519531 L 399.667969 320.863281 L 255.761719 320.863281 Z M 255.761719 144.519531 " style=" stroke:none;fill-rule:nonzero;fill:rgb(10.196078%,67.843137%,36.078431%);fill-opacity:1;" />
<path d="M 83.25 307.636719 L 428.75 307.636719 L 428.75 346.5 L 83.25 346.5 Z M 83.25 307.636719 " style=" stroke:none;fill-rule:nonzero;fill:rgb(20%,22.352941%,25.098039%);fill-opacity:1;" />
<path d="M 255.761719 307.636719 L 428.75 307.636719 L 428.75 346.5 L 255.761719 346.5 Z M 255.761719 307.636719 " style=" stroke:none;fill-rule:nonzero;fill:rgb(13.72549%,15.294118%,16.862745%);fill-opacity:1;" />
<path d="M 206 307.636719 L 306 307.636719 L 306 322 L 206 322 Z M 206 307.636719 " style=" stroke:none;fill-rule:nonzero;fill:rgb(43.921569%,46.666667%,53.72549%);fill-opacity:1;" />
<path d="M 255.761719 307.636719 L 306 307.636719 L 306 322 L 255.761719 322 Z M 255.761719 307.636719 " style=" stroke:none;fill-rule:nonzero;fill:rgb(38.823529%,41.176471%,47.058824%);fill-opacity:1;" />
<path d="M 307.589844 231.949219 L 289.761719 231.949219 L 289.761719 146.089844 C 289.761719 127.472656 274.617188 112.328125 256 112.328125 C 237.382812 112.328125 222.238281 127.472656 222.238281 146.089844 L 222.238281 231.949219 L 204.410156 231.949219 L 204.410156 146.089844 C 204.410156 117.644531 227.554688 94.5 256 94.5 C 284.445312 94.5 307.589844 117.640625 307.589844 146.089844 Z M 307.589844 231.949219 " style=" stroke:none;fill-rule:nonzero;fill:rgb(100%,100%,100%);fill-opacity:1;" />
<path d="M 256 94.5 C 255.921875 94.5 255.84375 94.507812 255.761719 94.507812 L 255.761719 112.335938 C 255.84375 112.335938 255.921875 112.328125 256 112.328125 C 274.617188 112.328125 289.761719 127.472656 289.761719 146.089844 L 289.761719 231.949219 L 307.589844 231.949219 L 307.589844 146.089844 C 307.589844 117.644531 284.445312 94.5 256 94.5 Z M 256 94.5 " style=" stroke:none;fill-rule:nonzero;fill:rgb(91.372549%,92.941176%,96.078431%);fill-opacity:1;" />
<path d="M 288.03125 278.371094 L 223.96875 278.371094 C 204.9375 278.371094 189.507812 262.945312 189.507812 243.910156 L 189.507812 197.6875 C 189.507812 178.65625 204.9375 163.226562 223.96875 163.226562 L 288.03125 163.226562 C 307.066406 163.226562 322.492188 178.65625 322.492188 197.6875 L 322.492188 243.910156 C 322.492188 262.945312 307.066406 278.371094 288.03125 278.371094 Z M 288.03125 278.371094 " style=" stroke:none;fill-rule:nonzero;fill:rgb(33.333333%,35.294118%,40%);fill-opacity:1;" />
<path d="M 288.03125 163.226562 L 255.761719 163.226562 L 255.761719 278.371094 L 288.03125 278.371094 C 307.0625 278.371094 322.492188 262.945312 322.492188 243.910156 L 322.492188 197.6875 C 322.492188 178.652344 307.0625 163.226562 288.03125 163.226562 Z M 288.03125 163.226562 " style=" stroke:none;fill-rule:nonzero;fill:rgb(25.490196%,28.627451%,32.156863%);fill-opacity:1;" />
<path d="M 273.390625 207.464844 C 273.390625 197.859375 265.605469 190.074219 256 190.074219 C 246.394531 190.074219 238.609375 197.859375 238.609375 207.464844 C 238.609375 211.261719 239.832031 214.773438 241.898438 217.632812 L 241.898438 248.097656 L 270.101562 248.097656 L 270.101562 217.632812 C 272.167969 214.773438 273.390625 211.261719 273.390625 207.464844 Z M 273.390625 207.464844 " style=" stroke:none;fill-rule:nonzero;fill:rgb(20%,22.352941%,25.098039%);fill-opacity:1;" />
<path d="M 256 190.074219 C 255.921875 190.074219 255.84375 190.085938 255.761719 190.085938 L 255.761719 248.097656 L 270.101562 248.097656 L 270.101562 217.632812 C 272.167969 214.773438 273.390625 211.261719 273.390625 207.464844 C 273.390625 197.859375 265.605469 190.074219 256 190.074219 Z M 256 190.074219 " style=" stroke:none;fill-rule:nonzero;fill:rgb(13.72549%,15.294118%,16.862745%);fill-opacity:1;" />
</g>
</svg>