<svg xmlns="http://www.w3.org/2000/svg" height="512pt" version="1.1" viewBox="0 0 512 512" width="512pt">
<g id="surface1">
<path d="M 512 256 C 512 397.386719 397.386719 512 256 512 C 114.613281 512 0 397.386719 0 256 C 0 114.613281 114.613281 0 256 0 C 397.386719 0 512 114.613281 512 256 Z M 512 256 " style=" stroke:none;fill-rule:nonzero;fill:rgb(9.803922%,81.176471%,98.823529%);fill-opacity:1;" />
<path d="M 512 256 C 512 251.253906 511.859375 246.539062 511.605469 241.855469 L 345.390625 75.640625 L 101.046875 414.1875 L 190.347656 503.488281 C 211.300781 509.03125 233.304688 512 256 512 C 397.386719 512 512 397.386719 512 256 Z M 512 256 " style=" stroke:none;fill-rule:nonzero;fill:rgb(29.019608%,72.156863%,96.862745%);fill-opacity:1;" />
<path d="M 162.867188 75.640625 L 101.046875 137.464844 L 101.046875 414.1875 L 345.390625 414.1875 L 345.390625 75.640625 Z M 162.867188 75.640625 " style=" stroke:none;fill-rule:nonzero;fill:rgb(100%,100%,100%);fill-opacity:1;" />
<path d="M 221.832031 75.640625 L 345.390625 75.640625 L 345.390625 414.1875 L 221.832031 414.1875 Z M 221.832031 75.640625 " style=" stroke:none;fill-rule:nonzero;fill:rgb(91.372549%,92.941176%,96.078431%);fill-opacity:1;" />
<path d="M 162.867188 137.464844 L 162.867188 75.640625 L 101.046875 137.464844 Z M 162.867188 137.464844 " style=" stroke:none;fill-rule:nonzero;fill:rgb(99.607843%,41.568627%,8.627451%);fill-opacity:1;" />
<path d="M 185.472656 213.722656 C 206.425781 213.722656 225.339844 223.121094 238.78125 238.21875 C 237.59375 165.277344 317.71875 107.078125 289.007812 107.078125 C 199.46875 107.078125 133.351562 165.277344 132.164062 238.21875 C 145.601562 223.121094 164.515625 213.722656 185.472656 213.722656 Z M 185.472656 213.722656 " style=" stroke:none;fill-rule:nonzero;fill:rgb(25.490196%,28.627451%,32.156863%);fill-opacity:1;" />
<path d="M 264.96875 432.359375 C 246.113281 432.359375 230.773438 417.019531 230.773438 398.160156 L 230.773438 391.839844 L 246.773438 391.839844 L 246.773438 398.160156 C 246.773438 408.195312 254.9375 416.359375 264.96875 416.359375 C 275.003906 416.359375 283.167969 408.195312 283.167969 398.160156 L 283.167969 89.898438 L 299.167969 89.898438 L 299.167969 398.160156 C 299.167969 417.019531 283.824219 432.359375 264.96875 432.359375 Z M 264.96875 432.359375 " style=" stroke:none;fill-rule:nonzero;fill:rgb(43.921569%,46.666667%,53.72549%);fill-opacity:1;" />
<path d="M 299.167969 89.898438 L 290.882812 89.898438 L 290.882812 420.441406 C 296.039062 414.449219 299.167969 406.667969 299.167969 398.160156 Z M 299.167969 89.898438 " style=" stroke:none;fill-rule:nonzero;fill:rgb(38.823529%,41.176471%,47.058824%);fill-opacity:1;" />
<path d="M 398.691406 213.722656 C 377.734375 213.722656 358.820312 223.121094 345.382812 238.21875 C 346.570312 165.277344 266.441406 107.078125 295.152344 107.078125 C 384.691406 107.078125 450.8125 165.277344 452 238.21875 C 438.5625 223.121094 419.644531 213.722656 398.691406 213.722656 Z M 398.691406 213.722656 " style=" stroke:none;fill-rule:nonzero;fill:rgb(20%,22.352941%,25.098039%);fill-opacity:1;" />
<path d="M 292.082031 213.722656 C 313.035156 213.722656 331.949219 223.121094 345.390625 238.21875 C 344.203125 165.277344 320.792969 107.078125 292.082031 107.078125 C 263.371094 107.078125 239.960938 165.277344 238.773438 238.21875 C 252.210938 223.121094 271.125 213.722656 292.082031 213.722656 Z M 292.082031 213.722656 " style=" stroke:none;fill-rule:nonzero;fill:rgb(100%,83.137255%,0%);fill-opacity:1;" />
<path d="M 292.082031 107.074219 C 291.679688 107.074219 291.28125 107.089844 290.882812 107.113281 L 290.882812 213.757812 C 291.28125 213.75 291.679688 213.722656 292.082031 213.722656 C 313.035156 213.722656 331.949219 223.121094 345.390625 238.21875 C 344.203125 165.277344 320.792969 107.074219 292.082031 107.074219 Z M 292.082031 107.074219 " style=" stroke:none;fill-rule:nonzero;fill:rgb(99.215686%,72.941176%,7.058824%);fill-opacity:1;" />
</g>
</svg>