<svg xmlns="http://www.w3.org/2000/svg" height="512pt" version="1.1" viewBox="0 0 512 512" width="512pt">
<g id="surface1">
<path d="M 512 256 C 512 397.386719 397.386719 512 256 512 C 114.613281 512 0 397.386719 0 256 C 0 114.613281 114.613281 0 256 0 C 397.386719 0 512 114.613281 512 256 Z M 512 256 " style=" stroke:none;fill-rule:nonzero;fill:rgb(3.529412%,80.784314%,40.392157%);fill-opacity:1;" />
<path d="M 403.574219 214.945312 L 398.640625 224.058594 L 282.332031 107.75 L 256.832031 156.667969 L 232 172.332031 L 77 392.25 L 187.457031 502.703125 C 209.273438 508.753906 232.257812 512 256 512 C 376.636719 512 477.769531 428.546875 504.855469 316.226562 Z M 403.574219 214.945312 " style=" stroke:none;fill-rule:nonzero;fill:rgb(10.196078%,67.843137%,36.078431%);fill-opacity:1;" />
<path d="M 252.332031 253.8125 L 282.332031 253.8125 L 282.332031 285.183594 L 252.332031 285.183594 Z M 252.332031 253.8125 " style=" stroke:none;fill-rule:nonzero;fill:rgb(100%,100%,100%);fill-opacity:1;" />
<path d="M 251.964844 316.550781 L 251.964844 285.183594 L 220.964844 285.183594 L 220.964844 253.8125 L 251.964844 253.8125 L 251.964844 222.441406 L 220.964844 222.441406 L 220.964844 191.074219 L 251.964844 191.074219 L 251.964844 159.703125 L 220.964844 159.703125 L 220.964844 128.332031 L 252.332031 128.332031 L 252.332031 159.703125 L 282.332031 159.703125 L 282.332031 107.75 L 128.953125 107.75 L 77 159.703125 L 77 392.25 L 282.332031 392.25 L 282.332031 316.550781 Z M 251.964844 316.550781 " style=" stroke:none;fill-rule:nonzero;fill:rgb(100%,100%,100%);fill-opacity:1;" />
<path d="M 252.332031 191.074219 L 282.332031 191.074219 L 282.332031 222.441406 L 252.332031 222.441406 Z M 252.332031 191.074219 " style=" stroke:none;fill-rule:nonzero;fill:rgb(100%,100%,100%);fill-opacity:1;" />
<path d="M 424.429688 164.875 L 372.203125 112.648438 L 340.832031 144.019531 L 506.371094 309.554688 C 510.050781 292.28125 512 274.371094 512 256 C 512 251.921875 511.894531 247.867188 511.703125 243.835938 L 427.570312 159.703125 Z M 424.429688 164.875 " style=" stroke:none;fill-rule:nonzero;fill:rgb(10.196078%,67.843137%,36.078431%);fill-opacity:1;" />
<path d="M 77 253.8125 L 282.332031 253.8125 L 282.332031 392.25 L 77 392.25 Z M 77 253.8125 " style=" stroke:none;fill-rule:nonzero;fill:rgb(91.372549%,92.941176%,96.078431%);fill-opacity:1;" />
<path d="M 128.953125 159.703125 L 128.953125 107.75 L 77 159.703125 Z M 128.953125 159.703125 " style=" stroke:none;fill-rule:nonzero;fill:rgb(25.490196%,28.627451%,32.156863%);fill-opacity:1;" />
<path d="M 282.332031 159.703125 L 314.703125 159.703125 L 314.703125 191.074219 L 282.332031 191.074219 Z M 282.332031 159.703125 " style=" stroke:none;fill-rule:nonzero;fill:rgb(100%,100%,100%);fill-opacity:1;" />
<path d="M 340.832031 112.648438 L 372.203125 112.648438 L 372.203125 144.019531 L 340.832031 144.019531 Z M 340.832031 112.648438 " style=" stroke:none;fill-rule:nonzero;fill:rgb(100%,100%,100%);fill-opacity:1;" />
<path d="M 282.332031 347.921875 L 313.703125 347.921875 L 313.703125 379.289062 L 282.332031 379.289062 Z M 282.332031 347.921875 " style=" stroke:none;fill-rule:nonzero;fill:rgb(91.372549%,92.941176%,96.078431%);fill-opacity:1;" />
<path d="M 372.203125 214.945312 L 403.574219 214.945312 L 403.574219 246.316406 L 372.203125 246.316406 Z M 372.203125 214.945312 " style=" stroke:none;fill-rule:nonzero;fill:rgb(100%,100%,100%);fill-opacity:1;" />
<path d="M 340.832031 246.316406 L 372.203125 246.316406 L 372.203125 277.683594 L 340.832031 277.683594 Z M 340.832031 246.316406 " style=" stroke:none;fill-rule:nonzero;fill:rgb(100%,100%,100%);fill-opacity:1;" />
<path d="M 340.832031 255.90625 L 372.203125 255.90625 L 372.203125 277.683594 L 340.832031 277.683594 Z M 340.832031 255.90625 " style=" stroke:none;fill-rule:nonzero;fill:rgb(91.372549%,92.941176%,96.078431%);fill-opacity:1;" />
<path d="M 282.332031 285.183594 L 313.703125 285.183594 L 313.703125 316.550781 L 282.332031 316.550781 Z M 282.332031 285.183594 " style=" stroke:none;fill-rule:nonzero;fill:rgb(91.372549%,92.941176%,96.078431%);fill-opacity:1;" />
<path d="M 356.519531 299.210938 L 387.886719 299.210938 L 387.886719 330.578125 L 356.519531 330.578125 Z M 356.519531 299.210938 " style=" stroke:none;fill-rule:nonzero;fill:rgb(91.372549%,92.941176%,96.078431%);fill-opacity:1;" />
<path d="M 356.519531 362.101562 L 387.886719 362.101562 L 387.886719 393.472656 L 356.519531 393.472656 Z M 356.519531 362.101562 " style=" stroke:none;fill-rule:nonzero;fill:rgb(91.372549%,92.941176%,96.078431%);fill-opacity:1;" />
<path d="M 387.886719 330.578125 L 419.257812 330.578125 L 419.257812 361.949219 L 387.886719 361.949219 Z M 387.886719 330.578125 " style=" stroke:none;fill-rule:nonzero;fill:rgb(91.372549%,92.941176%,96.078431%);fill-opacity:1;" />
<path d="M 314.703125 191.074219 L 346.074219 191.074219 L 346.074219 222.441406 L 314.703125 222.441406 Z M 314.703125 191.074219 " style=" stroke:none;fill-rule:nonzero;fill:rgb(100%,100%,100%);fill-opacity:1;" />
<path d="M 396.203125 159.703125 L 427.574219 159.703125 L 427.574219 191.074219 L 396.203125 191.074219 Z M 396.203125 159.703125 " style=" stroke:none;fill-rule:nonzero;fill:rgb(100%,100%,100%);fill-opacity:1;" />
<path d="M 220.964844 253.8125 L 252.335938 253.8125 L 252.335938 285.183594 L 220.964844 285.183594 Z M 220.964844 253.8125 " style=" stroke:none;fill-rule:nonzero;fill:rgb(10.196078%,67.843137%,36.078431%);fill-opacity:1;" />
</g>
</svg>