<svg xmlns="http://www.w3.org/2000/svg" height="512pt" version="1.1" viewBox="0 0 512 512.001" width="512pt">
<g id="surface1">
<path d="M 512 256 C 512 397.386719 397.386719 512 256 512 C 114.617188 512 0 397.386719 0 256 C 0 114.613281 114.617188 0 256 0 C 397.386719 0 512 114.613281 512 256 Z M 512 256 " style=" stroke:none;fill-rule:nonzero;fill:rgb(3.529412%,80.784314%,40.392157%);fill-opacity:1;" />
<path d="M 510.957031 279.054688 L 331.0625 99.15625 L 195.046875 93.402344 L 135 415.414062 L 230.308594 510.722656 C 238.757812 511.5625 247.328125 512 256 512 C 389.613281 512 499.296875 409.632812 510.957031 279.054688 Z M 510.957031 279.054688 " style=" stroke:none;fill-rule:nonzero;fill:rgb(10.196078%,67.843137%,36.078431%);fill-opacity:1;" />
<path d="M 355.773438 330.855469 L 321.292969 330.855469 L 321.292969 164.808594 C 321.292969 128.808594 292.003906 99.519531 256 99.519531 C 220 99.519531 190.710938 128.808594 190.710938 164.808594 L 190.710938 330.855469 L 156.230469 330.855469 L 156.230469 164.808594 C 156.230469 109.796875 200.988281 65.039062 256 65.039062 C 311.015625 65.039062 355.773438 109.796875 355.773438 164.808594 Z M 355.773438 330.855469 " style=" stroke:none;fill-rule:nonzero;fill:rgb(100%,100%,100%);fill-opacity:1;" />
<path d="M 256 65.039062 C 255.921875 65.039062 255.839844 65.042969 255.761719 65.042969 L 255.761719 99.523438 C 255.84375 99.523438 255.921875 99.519531 256 99.519531 C 292 99.519531 321.292969 128.808594 321.292969 164.808594 L 321.292969 330.851562 L 355.773438 330.851562 L 355.773438 164.808594 C 355.773438 109.796875 311.015625 65.039062 256 65.039062 Z M 256 65.039062 " style=" stroke:none;fill-rule:nonzero;fill:rgb(91.372549%,92.941176%,96.078431%);fill-opacity:1;" />
<path d="M 135 213.011719 L 377 213.011719 L 377 415.410156 L 135 415.410156 Z M 135 213.011719 " style=" stroke:none;fill-rule:nonzero;fill:rgb(100%,83.137255%,0%);fill-opacity:1;" />
<path d="M 255.761719 213.011719 L 377 213.011719 L 377 415.410156 L 255.761719 415.410156 Z M 255.761719 213.011719 " style=" stroke:none;fill-rule:nonzero;fill:rgb(99.215686%,72.941176%,7.058824%);fill-opacity:1;" />
<path d="M 320 238.210938 L 398 238.210938 L 398 277.207031 L 320 277.207031 Z M 320 238.210938 " style=" stroke:none;fill-rule:nonzero;fill:rgb(99.607843%,41.568627%,8.627451%);fill-opacity:1;" />
<path d="M 320 294.714844 L 398 294.714844 L 398 333.710938 L 320 333.710938 Z M 320 294.714844 " style=" stroke:none;fill-rule:nonzero;fill:rgb(99.607843%,41.568627%,8.627451%);fill-opacity:1;" />
<path d="M 320 351.21875 L 398 351.21875 L 398 390.214844 L 320 390.214844 Z M 320 351.21875 " style=" stroke:none;fill-rule:nonzero;fill:rgb(99.607843%,41.568627%,8.627451%);fill-opacity:1;" />
</g>
</svg>