<svg xmlns="http://www.w3.org/2000/svg" height="512pt" version="1.1" viewBox="0 0 512 512" width="512pt">
<g id="surface1">
<path d="M 512 256 C 512 397.386719 397.386719 512 256 512 C 114.613281 512 0 397.386719 0 256 C 0 114.613281 114.613281 0 256 0 C 397.386719 0 512 114.613281 512 256 Z M 512 256 " style=" stroke:none;fill-rule:nonzero;fill:rgb(99.607843%,41.568627%,8.627451%);fill-opacity:1;" />
<path d="M 512 256 C 512 252.507812 511.910156 249.035156 511.769531 245.578125 L 416.261719 150.066406 L 410.355469 170.578125 L 356.519531 116.742188 L 97.433594 188.632812 L 178.734375 269.933594 L 97.433594 279.253906 L 178.035156 359.855469 L 97.433594 369.875 L 238.984375 511.425781 C 244.609375 511.792969 250.28125 512 256 512 C 397.386719 512 512 397.386719 512 256 Z M 512 256 " style=" stroke:none;fill-rule:nonzero;fill:rgb(94.901961%,27.058824%,0%);fill-opacity:1;" />
<path d="M 110.457031 152.6875 L 343.5 152.6875 L 343.5 348.046875 L 110.457031 348.046875 Z M 110.457031 152.6875 " style=" stroke:none;fill-rule:nonzero;fill:rgb(74.509804%,76.470588%,82.352941%);fill-opacity:1;" />
<path d="M 226 152.6875 L 343.5 152.6875 L 343.5 348.046875 L 226 348.046875 Z M 226 152.6875 " style=" stroke:none;fill-rule:nonzero;fill:rgb(68.627451%,70.588235%,78.431373%);fill-opacity:1;" />
<path d="M 97.433594 116.742188 L 356.523438 116.742188 L 356.523438 188.632812 L 97.433594 188.632812 Z M 97.433594 116.742188 " style=" stroke:none;fill-rule:nonzero;fill:rgb(100%,100%,100%);fill-opacity:1;" />
<path d="M 226 116.742188 L 356.519531 116.742188 L 356.519531 188.632812 L 226 188.632812 Z M 226 116.742188 " style=" stroke:none;fill-rule:nonzero;fill:rgb(91.372549%,92.941176%,96.078431%);fill-opacity:1;" />
<path d="M 97.433594 297.984375 L 356.523438 297.984375 L 356.523438 369.875 L 97.433594 369.875 Z M 97.433594 297.984375 " style=" stroke:none;fill-rule:nonzero;fill:rgb(80.392157%,82.352941%,88.235294%);fill-opacity:1;" />
<path d="M 226 297.984375 L 356.519531 297.984375 L 356.519531 369.875 L 226 369.875 Z M 226 297.984375 " style=" stroke:none;fill-rule:nonzero;fill:rgb(74.509804%,76.470588%,82.352941%);fill-opacity:1;" />
<path d="M 97.433594 207.363281 L 356.523438 207.363281 L 356.523438 279.253906 L 97.433594 279.253906 Z M 97.433594 207.363281 " style=" stroke:none;fill-rule:nonzero;fill:rgb(91.372549%,92.941176%,96.078431%);fill-opacity:1;" />
<path d="M 226 207.363281 L 356.519531 207.363281 L 356.519531 279.253906 L 226 279.253906 Z M 226 207.363281 " style=" stroke:none;fill-rule:nonzero;fill:rgb(86.27451%,88.235294%,92.156863%);fill-opacity:1;" />
<path d="M 434.519531 294.054688 L 413.605469 294.054688 L 413.605469 193.339844 C 413.605469 171.503906 395.839844 153.738281 374.003906 153.738281 C 352.164062 153.738281 334.402344 171.503906 334.402344 193.339844 L 334.402344 294.054688 L 313.488281 294.054688 L 313.488281 193.339844 C 313.488281 159.972656 340.632812 132.824219 374.003906 132.824219 C 407.371094 132.824219 434.519531 159.972656 434.519531 193.339844 Z M 434.519531 294.054688 " style=" stroke:none;fill-rule:nonzero;fill:rgb(100%,83.137255%,0%);fill-opacity:1;" />
<path d="M 374.003906 132.824219 C 373.875 132.824219 373.746094 132.832031 373.617188 132.835938 L 373.617188 153.746094 C 373.746094 153.746094 373.875 153.738281 374.003906 153.738281 C 395.839844 153.738281 413.605469 171.503906 413.605469 193.339844 L 413.605469 294.054688 L 434.519531 294.054688 L 434.519531 193.339844 C 434.519531 159.972656 407.371094 132.824219 374.003906 132.824219 Z M 374.003906 132.824219 " style=" stroke:none;fill-rule:nonzero;fill:rgb(99.215686%,72.941176%,7.058824%);fill-opacity:1;" />
<path d="M 411.574219 348.507812 L 336.429688 348.507812 C 314.105469 348.507812 296.007812 330.40625 296.007812 308.082031 L 296.007812 253.863281 C 296.007812 231.535156 314.105469 213.4375 336.429688 213.4375 L 411.574219 213.4375 C 433.902344 213.4375 452 231.539062 452 253.863281 L 452 308.082031 C 452 330.410156 433.902344 348.507812 411.574219 348.507812 Z M 411.574219 348.507812 " style=" stroke:none;fill-rule:nonzero;fill:rgb(33.333333%,35.294118%,40%);fill-opacity:1;" />
<path d="M 411.574219 213.4375 L 373.617188 213.4375 L 373.617188 348.507812 L 411.574219 348.507812 C 433.902344 348.507812 452 330.40625 452 308.082031 L 452 253.863281 C 452 231.535156 433.902344 213.4375 411.574219 213.4375 Z M 411.574219 213.4375 " style=" stroke:none;fill-rule:nonzero;fill:rgb(25.490196%,28.627451%,32.156863%);fill-opacity:1;" />
<path d="M 394.398438 265.332031 C 394.398438 254.066406 385.269531 244.933594 374.003906 244.933594 C 362.738281 244.933594 353.605469 254.066406 353.605469 265.332031 C 353.605469 269.785156 355.035156 273.902344 357.460938 277.257812 L 357.460938 312.996094 L 390.542969 312.996094 L 390.542969 277.257812 C 392.96875 273.902344 394.398438 269.785156 394.398438 265.332031 Z M 394.398438 265.332031 " style=" stroke:none;fill-rule:nonzero;fill:rgb(20%,22.352941%,25.098039%);fill-opacity:1;" />
<path d="M 374.003906 244.933594 C 373.875 244.933594 373.746094 244.949219 373.617188 244.953125 L 373.617188 312.996094 L 390.546875 312.996094 L 390.546875 277.257812 C 392.96875 273.902344 394.398438 269.785156 394.398438 265.332031 C 394.398438 254.066406 385.269531 244.933594 374.003906 244.933594 Z M 374.003906 244.933594 " style=" stroke:none;fill-rule:nonzero;fill:rgb(13.72549%,15.294118%,16.862745%);fill-opacity:1;" />
</g>
</svg>