<svg xmlns="http://www.w3.org/2000/svg" height="512pt" version="1.1" viewBox="0 0 512 512" width="512pt">
<g id="surface1">
<path d="M 512 256 C 512 397.386719 397.386719 512 256 512 C 114.613281 512 0 397.386719 0 256 C 0 114.613281 114.613281 0 256 0 C 397.386719 0 512 114.613281 512 256 Z M 512 256 " style=" stroke:none;fill-rule:nonzero;fill:rgb(100%,83.137255%,0%);fill-opacity:1;" />
<path d="M 512 256 C 512 240.851562 510.675781 226.015625 508.152344 211.59375 L 406.804688 110.242188 L 67 294.957031 L 119.648438 347.605469 L 88.46875 361.046875 L 238.835938 511.414062 C 244.511719 511.789062 250.230469 512 256 512 C 397.386719 512 512 397.386719 512 256 Z M 512 256 " style=" stroke:none;fill-rule:nonzero;fill:rgb(99.215686%,72.941176%,7.058824%);fill-opacity:1;" />
<path d="M 135.898438 110.242188 L 406.804688 110.242188 L 406.804688 249.734375 L 135.898438 249.734375 Z M 135.898438 110.242188 " style=" stroke:none;fill-rule:nonzero;fill:rgb(3.529412%,80.784314%,40.392157%);fill-opacity:1;" />
<path d="M 270.644531 110.242188 L 406.804688 110.242188 L 406.804688 249.734375 L 270.644531 249.734375 Z M 270.644531 110.242188 " style=" stroke:none;fill-rule:nonzero;fill:rgb(10.196078%,67.843137%,36.078431%);fill-opacity:1;" />
<path d="M 385.667969 179.988281 C 385.667969 159.980469 371.789062 143.757812 354.667969 143.757812 C 337.546875 143.757812 323.667969 159.980469 323.667969 179.988281 C 323.667969 200 337.546875 216.21875 354.667969 216.21875 C 371.789062 216.21875 385.667969 200 385.667969 179.988281 Z M 385.667969 179.988281 " style=" stroke:none;fill-rule:nonzero;fill:rgb(8.627451%,56.862745%,29.019608%);fill-opacity:1;" />
<path d="M 217 179.988281 C 217 159.980469 203.121094 143.757812 186 143.757812 C 168.878906 143.757812 155 159.980469 155 179.988281 C 155 200 168.878906 216.21875 186 216.21875 C 203.121094 216.21875 217 200 217 179.988281 Z M 217 179.988281 " style=" stroke:none;fill-rule:nonzero;fill:rgb(10.196078%,67.843137%,36.078431%);fill-opacity:1;" />
<path d="M 311.378906 179.988281 C 311.378906 148.191406 293.457031 122.417969 271.351562 122.417969 C 249.242188 122.417969 231.320312 148.191406 231.320312 179.988281 C 231.320312 211.785156 249.242188 237.5625 271.351562 237.5625 C 293.457031 237.5625 311.378906 211.785156 311.378906 179.988281 Z M 311.378906 179.988281 " style=" stroke:none;fill-rule:nonzero;fill:rgb(10.196078%,67.843137%,36.078431%);fill-opacity:1;" />
<path d="M 271.351562 122.417969 C 271.113281 122.417969 270.878906 122.4375 270.644531 122.441406 L 270.644531 237.535156 C 270.878906 237.542969 271.113281 237.5625 271.351562 237.5625 C 293.457031 237.5625 311.382812 211.785156 311.382812 179.988281 C 311.378906 148.191406 293.457031 122.417969 271.351562 122.417969 Z M 271.351562 122.417969 " style=" stroke:none;fill-rule:nonzero;fill:rgb(8.627451%,56.862745%,29.019608%);fill-opacity:1;" />
<path d="M 88.46875 152.375 L 345.9375 152.375 L 345.9375 361.046875 L 88.46875 361.046875 Z M 88.46875 152.375 " style=" stroke:none;fill-rule:nonzero;fill:rgb(99.607843%,41.568627%,8.627451%);fill-opacity:1;" />
<path d="M 88.46875 255.308594 L 345.9375 255.308594 L 345.9375 361.046875 L 88.46875 361.046875 Z M 88.46875 255.308594 " style=" stroke:none;fill-rule:nonzero;fill:rgb(94.901961%,27.058824%,0%);fill-opacity:1;" />
<path d="M 67 218.460938 L 166.0625 218.460938 L 166.0625 294.957031 L 67 294.957031 Z M 67 218.460938 " style=" stroke:none;fill-rule:nonzero;fill:rgb(94.901961%,27.058824%,0%);fill-opacity:1;" />
<path d="M 67 255.308594 L 166.0625 255.308594 L 166.0625 294.960938 L 67 294.960938 Z M 67 255.308594 " style=" stroke:none;fill-rule:nonzero;fill:rgb(81.960784%,20.392157%,0%);fill-opacity:1;" />
<path d="M 155 255.75 C 155 268.039062 145.039062 278 132.75 278 C 120.460938 278 110.5 268.039062 110.5 255.75 C 110.5 243.460938 120.460938 233.5 132.75 233.5 C 145.039062 233.5 155 243.460938 155 255.75 Z M 155 255.75 " style=" stroke:none;fill-rule:nonzero;fill:rgb(76.862745%,18.431373%,7.058824%);fill-opacity:1;" />
<path d="M 110.511719 255.308594 C 110.507812 255.457031 110.5 255.601562 110.5 255.75 C 110.5 268.039062 120.460938 278 132.75 278 C 145.039062 278 155 268.039062 155 255.75 C 155 255.601562 154.992188 255.457031 154.988281 255.308594 Z M 110.511719 255.308594 " style=" stroke:none;fill-rule:nonzero;fill:rgb(67.843137%,18.431373%,8.235294%);fill-opacity:1;" />
<path d="M 397.988281 345.351562 L 377.074219 345.351562 L 377.074219 244.640625 C 377.074219 222.800781 359.308594 205.035156 337.472656 205.035156 C 315.636719 205.035156 297.871094 222.800781 297.871094 244.640625 L 297.871094 345.351562 L 276.957031 345.351562 L 276.957031 244.640625 C 276.957031 211.269531 304.101562 184.121094 337.472656 184.121094 C 370.839844 184.121094 397.988281 211.269531 397.988281 244.640625 Z M 397.988281 345.351562 " style=" stroke:none;fill-rule:nonzero;fill:rgb(100%,100%,100%);fill-opacity:1;" />
<path d="M 337.472656 184.121094 C 337.417969 184.121094 337.363281 184.128906 337.308594 184.128906 L 337.308594 205.039062 C 337.363281 205.039062 337.417969 205.035156 337.472656 205.035156 C 359.308594 205.035156 377.074219 222.800781 377.074219 244.640625 L 377.074219 345.351562 L 397.988281 345.351562 L 397.988281 244.640625 C 397.988281 211.269531 370.839844 184.121094 337.472656 184.121094 Z M 337.472656 184.121094 " style=" stroke:none;fill-rule:nonzero;fill:rgb(91.372549%,92.941176%,96.078431%);fill-opacity:1;" />
<path d="M 375.046875 399.808594 L 299.898438 399.808594 C 277.574219 399.808594 259.476562 381.707031 259.476562 359.382812 L 259.476562 305.164062 C 259.476562 282.835938 277.574219 264.738281 299.898438 264.738281 L 375.046875 264.738281 C 397.371094 264.738281 415.46875 282.839844 415.46875 305.164062 L 415.46875 359.382812 C 415.46875 381.707031 397.371094 399.808594 375.046875 399.808594 Z M 375.046875 399.808594 " style=" stroke:none;fill-rule:nonzero;fill:rgb(33.333333%,35.294118%,40%);fill-opacity:1;" />
<path d="M 375.046875 264.738281 L 337.308594 264.738281 L 337.308594 399.804688 L 375.046875 399.804688 C 397.371094 399.804688 415.46875 381.707031 415.46875 359.382812 L 415.46875 305.160156 C 415.46875 282.835938 397.371094 264.738281 375.046875 264.738281 Z M 375.046875 264.738281 " style=" stroke:none;fill-rule:nonzero;fill:rgb(25.490196%,28.627451%,32.156863%);fill-opacity:1;" />
<path d="M 357.871094 316.632812 C 357.871094 305.367188 348.738281 296.234375 337.472656 296.234375 C 326.207031 296.234375 317.074219 305.363281 317.074219 316.632812 C 317.074219 321.085938 318.507812 325.203125 320.929688 328.558594 L 320.929688 364.296875 L 354.015625 364.296875 L 354.015625 328.558594 C 356.4375 325.203125 357.871094 321.085938 357.871094 316.632812 Z M 357.871094 316.632812 " style=" stroke:none;fill-rule:nonzero;fill:rgb(20%,22.352941%,25.098039%);fill-opacity:1;" />
<path d="M 337.472656 296.234375 C 337.417969 296.234375 337.363281 296.242188 337.308594 296.242188 L 337.308594 364.296875 L 354.015625 364.296875 L 354.015625 328.558594 C 356.4375 325.203125 357.867188 321.085938 357.867188 316.628906 C 357.871094 305.363281 348.738281 296.234375 337.472656 296.234375 Z M 337.472656 296.234375 " style=" stroke:none;fill-rule:nonzero;fill:rgb(13.72549%,15.294118%,16.862745%);fill-opacity:1;" />
</g>
</svg>