<svg xmlns="http://www.w3.org/2000/svg" height="512pt" version="1.1" viewBox="0 0 512 512" width="512pt">
<g id="surface1">
<path d="M 512 256 C 512 397.386719 397.386719 512 256 512 C 114.613281 512 0 397.386719 0 256 C 0 114.613281 114.613281 0 256 0 C 397.386719 0 512 114.613281 512 256 Z M 512 256 " style=" stroke:none;fill-rule:nonzero;fill:rgb(25.490196%,28.627451%,32.156863%);fill-opacity:1;" />
<path d="M 165.039062 386.960938 L 289.132812 509.867188 C 414.867188 493.617188 512 386.15625 512 256 C 512 247.902344 511.605469 239.898438 510.871094 231.996094 L 405.960938 127.085938 Z M 165.039062 386.960938 " style=" stroke:none;fill-rule:nonzero;fill:rgb(20%,22.352941%,25.098039%);fill-opacity:1;" />
<path d="M 328.847656 402.371094 L 256 455.03125 L 183.152344 402.371094 C 147.390625 376.515625 124.734375 336.300781 121.160156 292.3125 L 106.039062 127.085938 C 106.039062 127.085938 217.027344 68.96875 256 68.96875 C 294.96875 68.96875 405.960938 127.085938 405.960938 127.085938 L 390.839844 292.3125 C 387.265625 336.300781 364.609375 376.515625 328.847656 402.371094 Z M 328.847656 402.371094 " style=" stroke:none;fill-rule:nonzero;fill:rgb(3.529412%,80.784314%,40.392157%);fill-opacity:1;" />
<path d="M 256 68.96875 L 256 455.03125 L 328.847656 402.371094 C 364.609375 376.515625 387.265625 336.300781 390.839844 292.3125 L 405.960938 127.085938 C 405.960938 127.085938 294.96875 68.96875 256 68.96875 Z M 256 68.96875 " style=" stroke:none;fill-rule:nonzero;fill:rgb(10.196078%,67.843137%,36.078431%);fill-opacity:1;" />
<path d="M 316.011719 372.878906 L 256 416.261719 L 195.988281 372.878906 C 166.523438 351.578125 147.859375 318.449219 144.914062 282.210938 L 132.457031 146.09375 C 132.457031 146.09375 223.894531 98.214844 256 98.214844 C 288.105469 98.214844 379.542969 146.09375 379.542969 146.09375 L 367.085938 282.210938 C 364.140625 318.449219 345.476562 351.578125 316.011719 372.878906 Z M 316.011719 372.878906 " style=" stroke:none;fill-rule:nonzero;fill:rgb(8.235294%,90.980392%,45.490196%);fill-opacity:1;" />
<path d="M 256 98.214844 L 256 416.261719 L 316.011719 372.878906 C 345.476562 351.578125 364.140625 318.449219 367.085938 282.210938 L 379.542969 146.09375 C 379.542969 146.09375 288.105469 98.214844 256 98.214844 Z M 256 98.214844 " style=" stroke:none;fill-rule:nonzero;fill:rgb(3.529412%,80.784314%,40.392157%);fill-opacity:1;" />
<path d="M 333 244 C 333 286.527344 298.527344 321 256 321 C 213.472656 321 179 286.527344 179 244 C 179 201.472656 213.472656 167 256 167 C 298.527344 167 333 201.472656 333 244 Z M 333 244 " style=" stroke:none;fill-rule:nonzero;fill:rgb(69.019608%,100%,81.568627%);fill-opacity:1;" />
<path d="M 256 167 L 256 321 C 298.527344 321 333 286.527344 333 244 C 333 201.472656 298.527344 167 256 167 Z M 256 167 " style=" stroke:none;fill-rule:nonzero;fill:rgb(8.235294%,90.980392%,45.490196%);fill-opacity:1;" />
<path d="M 238.25 287.976562 L 202.765625 252.492188 L 219.734375 235.523438 L 238.25 254.035156 L 292.265625 200.023438 L 309.234375 216.992188 Z M 238.25 287.976562 " style=" stroke:none;fill-rule:nonzero;fill:rgb(99.607843%,41.568627%,8.627451%);fill-opacity:1;" />
<path d="M 292.265625 200.023438 L 256 236.285156 L 256 270.226562 L 309.234375 216.992188 Z M 292.265625 200.023438 " style=" stroke:none;fill-rule:nonzero;fill:rgb(94.901961%,27.058824%,0%);fill-opacity:1;" />
</g>
</svg>