<svg xmlns="http://www.w3.org/2000/svg" height="512pt" version="1.1" viewBox="0 0 512 512" width="512pt">
<g id="surface1">
<path d="M 512 256 C 512 397.386719 397.386719 512 256 512 C 114.613281 512 0 397.386719 0 256 C 0 114.613281 114.613281 0 256 0 C 397.386719 0 512 114.613281 512 256 Z M 512 256 " style=" stroke:none;fill-rule:nonzero;fill:rgb(3.529412%,80.784314%,40.392157%);fill-opacity:1;" />
<path d="M 512 256 C 512 248.535156 511.660156 241.152344 511.035156 233.851562 L 403.078125 125.890625 L 373.378906 155.589844 L 399.351562 181.5625 L 389.019531 181.019531 L 268 60 L 244 102 L 319.363281 177.363281 L 187.414062 170.441406 L 155.589844 138.621094 L 138.617188 155.589844 L 160.417969 177.390625 L 101.53125 219.820312 L 220.257812 338.546875 L 127.660156 405.507812 L 233.125 510.972656 C 240.660156 511.640625 248.289062 512 256 512 C 397.386719 512 512 397.386719 512 256 Z M 512 256 " style=" stroke:none;fill-rule:nonzero;fill:rgb(10.196078%,67.843137%,36.078431%);fill-opacity:1;" />
<path d="M 244 60 L 268 60 L 268 102 L 244 102 Z M 244 60 " style=" stroke:none;fill-rule:nonzero;fill:rgb(100%,90.588235%,20%);fill-opacity:1;" />
<path d="M 255.761719 60 L 268 60 L 268 102 L 255.761719 102 Z M 255.761719 60 " style=" stroke:none;fill-rule:nonzero;fill:rgb(94.901961%,84.705882%,7.45098%);fill-opacity:1;" />
<path d="M 356.40625 138.621094 L 386.105469 108.921875 L 403.074219 125.894531 L 373.375 155.59375 Z M 356.40625 138.621094 " style=" stroke:none;fill-rule:nonzero;fill:rgb(94.901961%,84.705882%,7.45098%);fill-opacity:1;" />
<path d="M 108.921875 125.890625 L 125.890625 108.917969 L 155.585938 138.617188 L 138.617188 155.585938 Z M 108.921875 125.890625 " style=" stroke:none;fill-rule:nonzero;fill:rgb(100%,90.588235%,20%);fill-opacity:1;" />
<path d="M 384.339844 405.507812 L 127.660156 405.507812 L 127.660156 194.25 L 256 140.171875 L 384.339844 194.25 Z M 384.339844 405.507812 " style=" stroke:none;fill-rule:nonzero;fill:rgb(100%,100%,100%);fill-opacity:1;" />
<path d="M 255.761719 405.507812 L 384.339844 405.507812 L 384.339844 194.25 L 256 140.171875 Z M 255.761719 405.507812 " style=" stroke:none;fill-rule:nonzero;fill:rgb(91.372549%,92.941176%,96.078431%);fill-opacity:1;" />
<path d="M 410.46875 219.820312 L 256 154.734375 L 101.53125 219.820312 L 86 182.960938 L 256 111.328125 L 426 182.960938 Z M 410.46875 219.820312 " style=" stroke:none;fill-rule:nonzero;fill:rgb(25.490196%,28.627451%,32.156863%);fill-opacity:1;" />
<path d="M 256 154.734375 L 410.46875 219.820312 L 426 182.960938 L 256 111.328125 Z M 256 154.734375 " style=" stroke:none;fill-rule:nonzero;fill:rgb(20%,22.352941%,25.098039%);fill-opacity:1;" />
<path d="M 216.972656 305.113281 L 295.027344 305.113281 L 295.027344 405.507812 L 216.972656 405.507812 Z M 216.972656 305.113281 " style=" stroke:none;fill-rule:nonzero;fill:rgb(56.862745%,58.823529%,66.666667%);fill-opacity:1;" />
<path d="M 255.761719 305.113281 L 295.027344 305.113281 L 295.027344 405.507812 L 255.761719 405.507812 Z M 255.761719 305.113281 " style=" stroke:none;fill-rule:nonzero;fill:rgb(49.411765%,52.156863%,58.823529%);fill-opacity:1;" />
<path d="M 150.574219 219.667969 L 221.878906 219.667969 L 221.878906 279 L 150.574219 279 Z M 150.574219 219.667969 " style=" stroke:none;fill-rule:nonzero;fill:rgb(9.803922%,81.176471%,98.823529%);fill-opacity:1;" />
<path d="M 290.121094 219.667969 L 361.425781 219.667969 L 361.425781 279 L 290.121094 279 Z M 290.121094 219.667969 " style=" stroke:none;fill-rule:nonzero;fill:rgb(29.019608%,72.156863%,96.862745%);fill-opacity:1;" />
<path d="M 400.25 371.113281 L 372.203125 391.390625 L 344.15625 371.113281 C 330.382812 361.160156 321.660156 345.675781 320.285156 328.738281 L 314.464844 265.121094 C 314.464844 265.121094 357.199219 242.742188 372.203125 242.742188 C 387.207031 242.742188 429.941406 265.121094 429.941406 265.121094 L 424.121094 328.738281 C 422.742188 345.675781 414.023438 361.160156 400.25 371.113281 Z M 400.25 371.113281 " style=" stroke:none;fill-rule:nonzero;fill:rgb(100%,83.137255%,0%);fill-opacity:1;" />
<path d="M 372.203125 242.742188 C 372.199219 242.742188 372.191406 242.742188 372.1875 242.742188 L 372.1875 391.378906 L 372.203125 391.390625 L 400.25 371.113281 C 414.023438 361.15625 422.742188 345.675781 424.121094 328.738281 L 429.941406 265.121094 C 429.941406 265.121094 387.207031 242.742188 372.203125 242.742188 Z M 372.203125 242.742188 " style=" stroke:none;fill-rule:nonzero;fill:rgb(99.215686%,72.941176%,7.058824%);fill-opacity:1;" />
</g>
</svg>