<svg xmlns="http://www.w3.org/2000/svg" height="512pt" version="1.1" viewBox="0 0 512 512" width="512pt">
<g id="surface1">
<path d="M 512 256 C 512 397.386719 397.386719 512 256 512 C 114.613281 512 0 397.386719 0 256 C 0 114.613281 114.613281 0 256 0 C 397.386719 0 512 114.613281 512 256 Z M 512 256 " style=" stroke:none;fill-rule:nonzero;fill:rgb(99.607843%,41.568627%,8.627451%);fill-opacity:1;" />
<path d="M 512 256 C 512 254.378906 511.96875 252.765625 511.9375 251.148438 L 446.6875 185.898438 L 442.949219 211.496094 L 364.121094 132.667969 L 149.214844 137.453125 L 105.238281 374.96875 L 241.875 511.605469 C 246.550781 511.859375 251.261719 512 256 512 C 397.386719 512 512 397.386719 512 256 Z M 512 256 " style=" stroke:none;fill-rule:nonzero;fill:rgb(94.901961%,27.058824%,0%);fill-opacity:1;" />
<path d="M 113.675781 255.429688 C 113.675781 258.800781 113.898438 262.113281 114.289062 265.375 L 114.289062 245.488281 C 113.898438 248.75 113.675781 252.0625 113.675781 255.429688 Z M 113.675781 255.429688 " style=" stroke:none;fill-rule:nonzero;fill:rgb(100%,100%,100%);fill-opacity:1;" />
<path d="M 114.289062 265.375 L 114.289062 321.863281 L 141.269531 321.863281 L 141.269531 317.136719 C 126.660156 304.054688 116.742188 285.863281 114.289062 265.375 Z M 114.289062 265.375 " style=" stroke:none;fill-rule:nonzero;fill:rgb(100%,83.137255%,0%);fill-opacity:1;" />
<path d="M 377.367188 150.570312 C 360.25 120.984375 328.261719 101.074219 291.621094 101.074219 C 267.988281 101.074219 246.300781 109.367188 229.28125 123.1875 C 221.914062 129.167969 215.414062 136.175781 210.019531 144.011719 C 204.074219 152.648438 199.464844 162.28125 196.488281 172.601562 C 175.269531 172.605469 155.921875 180.597656 141.269531 193.722656 L 141.269531 317.136719 C 155.925781 330.265625 175.277344 338.257812 196.5 338.257812 L 373.21875 338.257812 C 425.074219 338.257812 467.113281 296.21875 467.113281 244.363281 C 467.113281 193.902344 427.296875 152.742188 377.367188 150.570312 Z M 377.367188 150.570312 " style=" stroke:none;fill-rule:nonzero;fill:rgb(100%,100%,100%);fill-opacity:1;" />
<path d="M 377.367188 150.570312 C 360.25 120.984375 328.261719 101.074219 291.621094 101.074219 C 291.574219 101.074219 291.523438 101.078125 291.476562 101.078125 L 291.476562 338.257812 L 373.222656 338.257812 C 425.074219 338.257812 467.113281 296.21875 467.113281 244.363281 C 467.113281 193.902344 427.296875 152.742188 377.367188 150.570312 Z M 377.367188 150.570312 " style=" stroke:none;fill-rule:nonzero;fill:rgb(91.372549%,92.941176%,96.078431%);fill-opacity:1;" />
<path d="M 192.355469 113.882812 C 149.308594 113.882812 114.289062 148.902344 114.289062 191.945312 L 114.289062 265.375 C 116.742188 285.863281 126.660156 304.054688 141.269531 317.136719 L 141.269531 191.945312 C 141.269531 163.777344 164.183594 140.859375 192.355469 140.859375 C 198.5625 140.859375 204.511719 141.976562 210.019531 144.011719 C 215.414062 136.175781 221.914062 129.167969 229.28125 123.1875 C 218.277344 117.253906 205.703125 113.882812 192.355469 113.882812 Z M 192.355469 113.882812 " style=" stroke:none;fill-rule:nonzero;fill:rgb(100%,83.137255%,0%);fill-opacity:1;" />
<path d="M 192.355469 113.882812 C 192.058594 113.882812 191.769531 113.898438 191.476562 113.902344 L 191.476562 140.882812 C 191.769531 140.878906 192.058594 140.859375 192.355469 140.859375 C 198.5625 140.859375 204.511719 141.976562 210.019531 144.011719 C 215.414062 136.179688 221.914062 129.171875 229.28125 123.1875 C 218.277344 117.253906 205.703125 113.882812 192.355469 113.882812 Z M 192.355469 113.882812 " style=" stroke:none;fill-rule:nonzero;fill:rgb(99.215686%,72.941176%,7.058824%);fill-opacity:1;" />
<path d="M 240.820312 392.109375 L 143.886719 392.109375 C 115.085938 392.109375 91.738281 368.761719 91.738281 339.960938 L 91.738281 270.019531 C 91.738281 241.21875 115.085938 217.871094 143.886719 217.871094 L 240.820312 217.871094 C 269.621094 217.871094 292.96875 241.21875 292.96875 270.019531 L 292.96875 339.960938 C 292.96875 368.761719 269.621094 392.109375 240.820312 392.109375 Z M 240.820312 392.109375 " style=" stroke:none;fill-rule:nonzero;fill:rgb(33.333333%,35.294118%,40%);fill-opacity:1;" />
<path d="M 240.820312 217.871094 L 191.476562 217.871094 L 191.476562 392.109375 L 240.820312 392.109375 C 269.621094 392.109375 292.96875 368.761719 292.96875 339.964844 L 292.96875 270.019531 C 292.96875 241.21875 269.621094 217.871094 240.820312 217.871094 Z M 240.820312 217.871094 " style=" stroke:none;fill-rule:nonzero;fill:rgb(25.490196%,28.627451%,32.156863%);fill-opacity:1;" />
<path d="M 218.664062 284.8125 C 218.664062 270.28125 206.886719 258.5 192.351562 258.5 C 177.820312 258.5 166.039062 270.28125 166.039062 284.8125 C 166.039062 290.558594 167.886719 295.871094 171.011719 300.199219 L 171.011719 346.300781 L 213.691406 346.300781 L 213.691406 300.199219 C 216.820312 295.871094 218.664062 290.558594 218.664062 284.8125 Z M 218.664062 284.8125 " style=" stroke:none;fill-rule:nonzero;fill:rgb(20%,22.352941%,25.098039%);fill-opacity:1;" />
<path d="M 192.355469 258.5 C 192.058594 258.5 191.769531 258.511719 191.476562 258.523438 L 191.476562 346.300781 L 213.691406 346.300781 L 213.691406 300.199219 C 216.816406 295.871094 218.664062 290.558594 218.664062 284.8125 C 218.664062 270.28125 206.886719 258.5 192.355469 258.5 Z M 192.355469 258.5 " style=" stroke:none;fill-rule:nonzero;fill:rgb(13.72549%,15.294118%,16.862745%);fill-opacity:1;" />
</g>
</svg>