<svg xmlns="http://www.w3.org/2000/svg" height="512pt" version="1.1" viewBox="0 0 512 512" width="512pt">
<g id="surface1">
<path d="M 512 256 C 512 397.386719 397.386719 512 256 512 C 114.613281 512 0 397.386719 0 256 C 0 114.613281 114.613281 0 256 0 C 397.386719 0 512 114.613281 512 256 Z M 512 256 " style=" stroke:none;fill-rule:nonzero;fill:rgb(9.803922%,81.176471%,98.823529%);fill-opacity:1;" />
<path d="M 512 256 C 512 250.113281 511.78125 244.277344 511.390625 238.488281 L 425.039062 152.132812 L 87.546875 360.539062 L 238.390625 511.386719 C 244.210938 511.78125 250.078125 512 256 512 C 397.386719 512 512 397.386719 512 256 Z M 512 256 " style=" stroke:none;fill-rule:nonzero;fill:rgb(29.019608%,72.156863%,96.862745%);fill-opacity:1;" />
<path d="M 406.25 368.667969 L 105.75 368.667969 C 92.242188 368.667969 81.289062 357.71875 81.289062 344.207031 L 81.289062 167.792969 C 81.289062 154.28125 92.242188 143.332031 105.75 143.332031 L 406.25 143.332031 C 419.757812 143.332031 430.710938 154.28125 430.710938 167.792969 L 430.710938 344.207031 C 430.710938 357.71875 419.757812 368.667969 406.25 368.667969 Z M 406.25 368.667969 " style=" stroke:none;fill-rule:nonzero;fill:rgb(20%,22.352941%,25.098039%);fill-opacity:1;" />
<path d="M 81.289062 255.90625 L 81.289062 344.207031 C 81.289062 357.71875 92.242188 368.667969 105.75 368.667969 L 406.25 368.667969 C 419.757812 368.667969 430.710938 357.71875 430.710938 344.207031 L 430.710938 255.90625 Z M 81.289062 255.90625 " style=" stroke:none;fill-rule:nonzero;fill:rgb(13.72549%,15.294118%,16.862745%);fill-opacity:1;" />
<path d="M 99 163 L 413 163 L 413 349 L 99 349 Z M 99 163 " style=" stroke:none;fill-rule:nonzero;fill:rgb(33.333333%,35.294118%,40%);fill-opacity:1;" />
<path d="M 99 255.90625 L 413 255.90625 L 413 349 L 99 349 Z M 99 255.90625 " style=" stroke:none;fill-rule:nonzero;fill:rgb(25.490196%,28.627451%,32.156863%);fill-opacity:1;" />
<path d="M 385.675781 313.21875 L 278.421875 313.21875 L 278.421875 224.945312 L 332.046875 186.78125 L 385.675781 224.945312 Z M 385.675781 313.21875 " style=" stroke:none;fill-rule:nonzero;fill:rgb(100%,100%,100%);fill-opacity:1;" />
<path d="M 331.953125 313.21875 L 385.675781 313.21875 L 385.675781 224.945312 L 332.046875 186.78125 Z M 331.953125 313.21875 " style=" stroke:none;fill-rule:nonzero;fill:rgb(91.372549%,92.941176%,96.078431%);fill-opacity:1;" />
<path d="M 311.546875 262 L 352.546875 262 L 352.546875 313.21875 L 311.546875 313.21875 Z M 311.546875 262 " style=" stroke:none;fill-rule:nonzero;fill:rgb(80.392157%,82.352941%,88.235294%);fill-opacity:1;" />
<path d="M 331.953125 262 L 352.546875 262 L 352.546875 313.21875 L 331.953125 313.21875 Z M 331.953125 262 " style=" stroke:none;fill-rule:nonzero;fill:rgb(74.509804%,76.470588%,82.352941%);fill-opacity:1;" />
<path d="M 155.550781 204.5 C 155.550781 214.59375 147.371094 222.777344 137.277344 222.777344 C 127.183594 222.777344 119 214.59375 119 204.5 C 119 194.40625 127.183594 186.222656 137.277344 186.222656 C 147.371094 186.222656 155.550781 194.40625 155.550781 204.5 Z M 155.550781 204.5 " style=" stroke:none;fill-rule:nonzero;fill:rgb(3.529412%,80.784314%,40.392157%);fill-opacity:1;" />
<path d="M 202.777344 204.5 C 202.777344 214.59375 194.59375 222.777344 184.5 222.777344 C 174.40625 222.777344 166.222656 214.59375 166.222656 204.5 C 166.222656 194.40625 174.40625 186.222656 184.5 186.222656 C 194.59375 186.222656 202.777344 194.40625 202.777344 204.5 Z M 202.777344 204.5 " style=" stroke:none;fill-rule:nonzero;fill:rgb(3.529412%,80.784314%,40.392157%);fill-opacity:1;" />
<path d="M 250 204.5 C 250 214.59375 241.816406 222.777344 231.722656 222.777344 C 221.628906 222.777344 213.449219 214.59375 213.449219 204.5 C 213.449219 194.40625 221.628906 186.222656 231.722656 186.222656 C 241.816406 186.222656 250 194.40625 250 204.5 Z M 250 204.5 " style=" stroke:none;fill-rule:nonzero;fill:rgb(3.529412%,80.784314%,40.392157%);fill-opacity:1;" />
<path d="M 155.550781 256 C 155.550781 266.09375 147.371094 274.277344 137.277344 274.277344 C 127.183594 274.277344 119 266.09375 119 256 C 119 245.90625 127.183594 237.722656 137.277344 237.722656 C 147.371094 237.722656 155.550781 245.90625 155.550781 256 Z M 155.550781 256 " style=" stroke:none;fill-rule:nonzero;fill:rgb(3.529412%,80.784314%,40.392157%);fill-opacity:1;" />
<path d="M 119.003906 255.90625 C 119.003906 255.9375 119 255.96875 119 256 C 119 266.09375 127.183594 274.277344 137.277344 274.277344 C 147.371094 274.277344 155.550781 266.09375 155.550781 256 C 155.550781 255.96875 155.546875 255.9375 155.546875 255.90625 Z M 119.003906 255.90625 " style=" stroke:none;fill-rule:nonzero;fill:rgb(10.196078%,67.843137%,36.078431%);fill-opacity:1;" />
<path d="M 202.777344 256 C 202.777344 266.09375 194.59375 274.277344 184.5 274.277344 C 174.40625 274.277344 166.222656 266.09375 166.222656 256 C 166.222656 245.90625 174.40625 237.722656 184.5 237.722656 C 194.59375 237.722656 202.777344 245.90625 202.777344 256 Z M 202.777344 256 " style=" stroke:none;fill-rule:nonzero;fill:rgb(3.529412%,80.784314%,40.392157%);fill-opacity:1;" />
<path d="M 166.230469 255.90625 C 166.230469 255.9375 166.222656 255.96875 166.222656 256 C 166.222656 266.09375 174.40625 274.277344 184.5 274.277344 C 194.59375 274.277344 202.777344 266.09375 202.777344 256 C 202.777344 255.96875 202.769531 255.9375 202.769531 255.90625 Z M 166.230469 255.90625 " style=" stroke:none;fill-rule:nonzero;fill:rgb(10.196078%,67.843137%,36.078431%);fill-opacity:1;" />
<path d="M 250 256 C 250 266.09375 241.816406 274.277344 231.722656 274.277344 C 221.628906 274.277344 213.449219 266.09375 213.449219 256 C 213.449219 245.90625 221.628906 237.722656 231.722656 237.722656 C 241.816406 237.722656 250 245.90625 250 256 Z M 250 256 " style=" stroke:none;fill-rule:nonzero;fill:rgb(3.529412%,80.784314%,40.392157%);fill-opacity:1;" />
<path d="M 213.453125 255.90625 C 213.453125 255.9375 213.449219 255.96875 213.449219 256 C 213.449219 266.09375 221.628906 274.277344 231.722656 274.277344 C 241.816406 274.277344 250 266.09375 250 256 C 250 255.96875 249.996094 255.9375 249.996094 255.90625 Z M 213.453125 255.90625 " style=" stroke:none;fill-rule:nonzero;fill:rgb(10.196078%,67.843137%,36.078431%);fill-opacity:1;" />
<path d="M 155.550781 307.5 C 155.550781 317.59375 147.371094 325.777344 137.277344 325.777344 C 127.183594 325.777344 119 317.59375 119 307.5 C 119 297.40625 127.183594 289.222656 137.277344 289.222656 C 147.371094 289.222656 155.550781 297.40625 155.550781 307.5 Z M 155.550781 307.5 " style=" stroke:none;fill-rule:nonzero;fill:rgb(10.196078%,67.843137%,36.078431%);fill-opacity:1;" />
<path d="M 202.777344 307.5 C 202.777344 317.59375 194.59375 325.777344 184.5 325.777344 C 174.40625 325.777344 166.222656 317.59375 166.222656 307.5 C 166.222656 297.40625 174.40625 289.222656 184.5 289.222656 C 194.59375 289.222656 202.777344 297.40625 202.777344 307.5 Z M 202.777344 307.5 " style=" stroke:none;fill-rule:nonzero;fill:rgb(10.196078%,67.843137%,36.078431%);fill-opacity:1;" />
<path d="M 250 307.5 C 250 317.59375 241.816406 325.777344 231.722656 325.777344 C 221.628906 325.777344 213.449219 317.59375 213.449219 307.5 C 213.449219 297.40625 221.628906 289.222656 231.722656 289.222656 C 241.816406 289.222656 250 297.40625 250 307.5 Z M 250 307.5 " style=" stroke:none;fill-rule:nonzero;fill:rgb(10.196078%,67.843137%,36.078431%);fill-opacity:1;" />
</g>
</svg>