<svg xmlns="http://www.w3.org/2000/svg" height="512pt" version="1.1" viewBox="0 0 512 512" width="512pt">
<g id="surface1">
<path d="M 512 256 C 512 397.386719 397.386719 512 256 512 C 114.613281 512 0 397.386719 0 256 C 0 114.613281 114.613281 0 256 0 C 397.386719 0 512 114.613281 512 256 Z M 512 256 " style=" stroke:none;fill-rule:nonzero;fill:rgb(9.803922%,81.176471%,98.823529%);fill-opacity:1;" />
<path d="M 512 256 C 512 251.875 511.894531 247.777344 511.699219 243.699219 L 367 99 L 108.871094 405 L 212.109375 508.238281 C 226.371094 510.703125 241.03125 512 256 512 C 397.386719 512 512 397.386719 512 256 Z M 512 256 " style=" stroke:none;fill-rule:nonzero;fill:rgb(29.019608%,72.156863%,96.862745%);fill-opacity:1;" />
<path d="M 128 99 L 367 99 L 367 405 L 128 405 Z M 128 99 " style=" stroke:none;fill-rule:nonzero;fill:rgb(99.607843%,41.568627%,8.627451%);fill-opacity:1;" />
<path d="M 255.761719 99 L 367 99 L 367 405 L 255.761719 405 Z M 255.761719 99 " style=" stroke:none;fill-rule:nonzero;fill:rgb(94.901961%,27.058824%,0%);fill-opacity:1;" />
<path d="M 108.871094 99 L 150 99 L 150 405 L 108.871094 405 Z M 108.871094 99 " style=" stroke:none;fill-rule:nonzero;fill:rgb(94.901961%,27.058824%,0%);fill-opacity:1;" />
<path d="M 182 166 L 341 166 L 341 238.675781 L 182 238.675781 Z M 182 166 " style=" stroke:none;fill-rule:nonzero;fill:rgb(100%,83.137255%,0%);fill-opacity:1;" />
<path d="M 255.761719 166 L 341 166 L 341 238.675781 L 255.761719 238.675781 Z M 255.761719 166 " style=" stroke:none;fill-rule:nonzero;fill:rgb(99.215686%,72.941176%,7.058824%);fill-opacity:1;" />
<path d="M 428.78125 287.796875 L 407.867188 287.796875 L 407.867188 187.082031 C 407.867188 165.246094 390.105469 147.480469 368.265625 147.480469 C 346.429688 147.480469 328.664062 165.246094 328.664062 187.082031 L 328.664062 287.796875 L 307.75 287.796875 L 307.75 187.082031 C 307.75 153.714844 334.898438 126.566406 368.265625 126.566406 C 401.636719 126.566406 428.78125 153.714844 428.78125 187.082031 Z M 428.78125 287.796875 " style=" stroke:none;fill-rule:nonzero;fill:rgb(100%,100%,100%);fill-opacity:1;" />
<path d="M 368.265625 126.566406 C 368.066406 126.566406 367.867188 126.578125 367.664062 126.582031 L 367.664062 147.496094 C 367.867188 147.492188 368.066406 147.480469 368.265625 147.480469 C 390.105469 147.480469 407.867188 165.246094 407.867188 187.082031 L 407.867188 287.796875 L 428.78125 287.796875 L 428.78125 187.082031 C 428.78125 153.714844 401.636719 126.566406 368.265625 126.566406 Z M 368.265625 126.566406 " style=" stroke:none;fill-rule:nonzero;fill:rgb(91.372549%,92.941176%,96.078431%);fill-opacity:1;" />
<path d="M 405.839844 342.25 L 330.695312 342.25 C 308.367188 342.25 290.269531 324.148438 290.269531 301.824219 L 290.269531 247.605469 C 290.269531 225.277344 308.367188 207.179688 330.695312 207.179688 L 405.839844 207.179688 C 428.164062 207.179688 446.265625 225.28125 446.265625 247.605469 L 446.265625 301.824219 C 446.265625 324.152344 428.164062 342.25 405.839844 342.25 Z M 405.839844 342.25 " style=" stroke:none;fill-rule:nonzero;fill:rgb(33.333333%,35.294118%,40%);fill-opacity:1;" />
<path d="M 405.839844 207.179688 L 367.667969 207.179688 L 367.667969 342.25 L 405.839844 342.25 C 428.164062 342.25 446.265625 324.148438 446.265625 301.824219 L 446.265625 247.605469 C 446.265625 225.277344 428.164062 207.179688 405.839844 207.179688 Z M 405.839844 207.179688 " style=" stroke:none;fill-rule:nonzero;fill:rgb(25.490196%,28.627451%,32.156863%);fill-opacity:1;" />
<path d="M 388.664062 259.074219 C 388.664062 247.808594 379.53125 238.675781 368.265625 238.675781 C 357.003906 238.675781 347.867188 247.808594 347.867188 259.074219 C 347.867188 263.527344 349.300781 267.644531 351.722656 271 L 351.722656 306.738281 L 384.808594 306.738281 L 384.808594 271 C 387.234375 267.644531 388.664062 263.527344 388.664062 259.074219 Z M 388.664062 259.074219 " style=" stroke:none;fill-rule:nonzero;fill:rgb(20%,22.352941%,25.098039%);fill-opacity:1;" />
<path d="M 368.265625 238.675781 C 368.0625 238.675781 367.867188 238.699219 367.664062 238.707031 L 367.664062 306.738281 L 384.808594 306.738281 L 384.808594 271 C 387.230469 267.644531 388.664062 263.527344 388.664062 259.074219 C 388.664062 247.808594 379.53125 238.675781 368.265625 238.675781 Z M 368.265625 238.675781 " style=" stroke:none;fill-rule:nonzero;fill:rgb(13.72549%,15.294118%,16.862745%);fill-opacity:1;" />
</g>
</svg>