<svg xmlns="http://www.w3.org/2000/svg" height="512pt" version="1.1" viewBox="0 0 512 512" width="512pt">
<g id="surface1">
<path d="M 512 256 C 512 397.386719 397.386719 512 256 512 C 114.613281 512 0 397.386719 0 256 C 0 114.613281 114.613281 0 256 0 C 397.386719 0 512 114.613281 512 256 Z M 512 256 " style=" stroke:none;fill-rule:nonzero;fill:rgb(25.490196%,28.627451%,32.156863%);fill-opacity:1;" />
<path d="M 511.941406 260.769531 L 348.085938 96.914062 L 162.257812 288.101562 L 242.171875 368.011719 L 297.574219 508.621094 C 417.660156 489.007812 509.652344 385.855469 511.941406 260.769531 Z M 511.941406 260.769531 " style=" stroke:none;fill-rule:nonzero;fill:rgb(20%,22.352941%,25.098039%);fill-opacity:1;" />
<path d="M 215.667969 269.667969 L 296.335938 269.667969 L 296.335938 422.335938 L 215.667969 422.335938 Z M 215.667969 269.667969 " style=" stroke:none;fill-rule:nonzero;fill:rgb(80.392157%,82.352941%,88.235294%);fill-opacity:1;" />
<path d="M 255.761719 269.667969 L 296.332031 269.667969 L 296.332031 422.335938 L 255.761719 422.335938 Z M 255.761719 269.667969 " style=" stroke:none;fill-rule:nonzero;fill:rgb(74.509804%,76.470588%,82.352941%);fill-opacity:1;" />
<path d="M 389.316406 193.316406 C 389.316406 266.945312 329.628906 326.632812 256 326.632812 C 182.371094 326.632812 122.683594 266.945312 122.683594 193.316406 C 122.683594 119.6875 182.371094 60 256 60 C 329.628906 60 389.316406 119.6875 389.316406 193.316406 Z M 389.316406 193.316406 " style=" stroke:none;fill-rule:nonzero;fill:rgb(100%,100%,100%);fill-opacity:1;" />
<path d="M 256 60 C 255.921875 60 255.84375 60.003906 255.761719 60.003906 L 255.761719 326.628906 C 255.84375 326.628906 255.921875 326.632812 256 326.632812 C 329.628906 326.632812 389.316406 266.945312 389.316406 193.316406 C 389.316406 119.6875 329.628906 60 256 60 Z M 256 60 " style=" stroke:none;fill-rule:nonzero;fill:rgb(91.372549%,92.941176%,96.078431%);fill-opacity:1;" />
<path d="M 333.019531 193.316406 C 333.019531 235.855469 298.539062 270.335938 256 270.335938 C 213.460938 270.335938 178.980469 235.855469 178.980469 193.316406 C 178.980469 150.777344 213.460938 116.296875 256 116.296875 C 298.539062 116.296875 333.019531 150.777344 333.019531 193.316406 Z M 333.019531 193.316406 " style=" stroke:none;fill-rule:nonzero;fill:rgb(80.392157%,82.352941%,88.235294%);fill-opacity:1;" />
<path d="M 256 116.296875 C 255.921875 116.296875 255.84375 116.300781 255.761719 116.300781 L 255.761719 270.332031 C 255.84375 270.332031 255.921875 270.335938 256 270.335938 C 298.539062 270.335938 333.019531 235.855469 333.019531 193.316406 C 333.019531 150.777344 298.539062 116.296875 256 116.296875 Z M 256 116.296875 " style=" stroke:none;fill-rule:nonzero;fill:rgb(74.509804%,76.470588%,82.352941%);fill-opacity:1;" />
<path d="M 318.785156 193.316406 C 318.785156 227.992188 290.675781 256.101562 256 256.101562 C 221.324219 256.101562 193.214844 227.992188 193.214844 193.316406 C 193.214844 158.640625 221.324219 130.527344 256 130.527344 C 290.675781 130.527344 318.785156 158.640625 318.785156 193.316406 Z M 318.785156 193.316406 " style=" stroke:none;fill-rule:nonzero;fill:rgb(25.490196%,28.627451%,32.156863%);fill-opacity:1;" />
<path d="M 256 130.527344 C 255.921875 130.527344 255.84375 130.535156 255.761719 130.535156 L 255.761719 256.097656 C 255.84375 256.097656 255.921875 256.105469 256 256.105469 C 290.675781 256.105469 318.785156 227.992188 318.785156 193.316406 C 318.785156 158.640625 290.675781 130.527344 256 130.527344 Z M 256 130.527344 " style=" stroke:none;fill-rule:nonzero;fill:rgb(20%,22.352941%,25.098039%);fill-opacity:1;" />
<path d="M 299.289062 193.316406 C 299.289062 217.226562 279.910156 236.605469 256 236.605469 C 232.089844 236.605469 212.710938 217.226562 212.710938 193.316406 C 212.710938 169.40625 232.089844 150.023438 256 150.023438 C 279.910156 150.023438 299.289062 169.40625 299.289062 193.316406 Z M 299.289062 193.316406 " style=" stroke:none;fill-rule:nonzero;fill:rgb(9.803922%,81.176471%,98.823529%);fill-opacity:1;" />
<path d="M 256 150.027344 C 255.921875 150.027344 255.84375 150.03125 255.761719 150.03125 L 255.761719 236.601562 C 255.84375 236.601562 255.921875 236.605469 256 236.605469 C 279.910156 236.605469 299.289062 217.226562 299.289062 193.316406 C 299.289062 169.40625 279.910156 150.027344 256 150.027344 Z M 256 150.027344 " style=" stroke:none;fill-rule:nonzero;fill:rgb(29.019608%,72.156863%,96.862745%);fill-opacity:1;" />
<path d="M 256.425781 181.113281 C 256.425781 187.851562 250.964844 193.316406 244.226562 193.316406 C 237.484375 193.316406 232.023438 187.851562 232.023438 181.113281 C 232.023438 174.375 237.484375 168.910156 244.226562 168.910156 C 250.964844 168.910156 256.425781 174.375 256.425781 181.113281 Z M 256.425781 181.113281 " style=" stroke:none;fill-rule:nonzero;fill:rgb(100%,100%,100%);fill-opacity:1;" />
<path d="M 256 512 C 285.347656 512 313.53125 507.046875 339.785156 497.957031 L 329.4375 415.175781 C 327.472656 399.460938 314.113281 387.667969 298.277344 387.667969 L 213.722656 387.667969 C 197.882812 387.667969 184.523438 399.460938 182.5625 415.175781 L 172.214844 497.957031 C 198.46875 507.046875 226.652344 512 256 512 Z M 256 512 " style=" stroke:none;fill-rule:nonzero;fill:rgb(74.509804%,76.470588%,82.352941%);fill-opacity:1;" />
<path d="M 339.785156 497.957031 L 329.4375 415.175781 C 327.472656 399.460938 314.113281 387.667969 298.277344 387.667969 L 255.761719 387.667969 L 255.761719 511.996094 C 255.839844 511.996094 255.917969 512 256 512 C 285.347656 512 313.53125 507.046875 339.785156 497.957031 Z M 339.785156 497.957031 " style=" stroke:none;fill-rule:nonzero;fill:rgb(68.627451%,70.588235%,78.431373%);fill-opacity:1;" />
</g>
</svg>