<svg xmlns="http://www.w3.org/2000/svg" height="512pt" version="1.1" viewBox="0 0 512 512" width="512pt">
<g id="surface1">
<path d="M 512 256 C 512 397.386719 397.386719 512 256 512 C 114.613281 512 0 397.386719 0 256 C 0 114.613281 114.613281 0 256 0 C 397.386719 0 512 114.613281 512 256 Z M 512 256 " style=" stroke:none;fill-rule:nonzero;fill:rgb(25.490196%,28.627451%,32.156863%);fill-opacity:1;" />
<path d="M 512 256 C 512 253.421875 511.949219 250.855469 511.875 248.292969 L 403.589844 140.007812 L 77.414062 350.355469 L 238.449219 511.390625 C 244.25 511.78125 250.097656 512 256 512 C 397.386719 512 512 397.386719 512 256 Z M 512 256 " style=" stroke:none;fill-rule:nonzero;fill:rgb(20%,22.352941%,25.098039%);fill-opacity:1;" />
<path d="M 373.949219 332.5 L 150.050781 332.5 C 129.3125 332.5 112.5 315.6875 112.5 294.949219 L 112.5 163.050781 C 112.5 142.3125 129.3125 125.5 150.050781 125.5 L 373.949219 125.5 C 394.6875 125.5 411.5 142.3125 411.5 163.050781 L 411.5 294.949219 C 411.5 315.6875 394.6875 332.5 373.949219 332.5 Z M 373.949219 332.5 " style=" stroke:none;fill-rule:nonzero;fill:rgb(99.607843%,41.568627%,8.627451%);fill-opacity:1;" />
<path d="M 373.949219 125.5 L 255.761719 125.5 L 255.761719 332.5 L 373.949219 332.5 C 394.6875 332.5 411.5 315.6875 411.5 294.949219 L 411.5 163.050781 C 411.5 142.3125 394.6875 125.5 373.949219 125.5 Z M 373.949219 125.5 " style=" stroke:none;fill-rule:nonzero;fill:rgb(94.901961%,27.058824%,0%);fill-opacity:1;" />
<path d="M 331.449219 365.5 L 107.550781 365.5 C 86.8125 365.5 70 348.6875 70 327.949219 L 70 196.050781 C 70 175.3125 86.8125 158.5 107.550781 158.5 L 331.449219 158.5 C 352.1875 158.5 369 175.3125 369 196.050781 L 369 327.949219 C 369 348.6875 352.1875 365.5 331.449219 365.5 Z M 331.449219 365.5 " style=" stroke:none;fill-rule:nonzero;fill:rgb(100%,100%,100%);fill-opacity:1;" />
<path d="M 331.449219 158.5 L 217.667969 158.5 L 217.667969 365.5 L 331.449219 365.5 C 352.1875 365.5 369 348.6875 369 327.949219 L 369 196.050781 C 369 175.3125 352.1875 158.5 331.449219 158.5 Z M 331.449219 158.5 " style=" stroke:none;fill-rule:nonzero;fill:rgb(91.372549%,92.941176%,96.078431%);fill-opacity:1;" />
<path d="M 70 206.5 L 369 206.5 L 369 262 L 70 262 Z M 70 206.5 " style=" stroke:none;fill-rule:nonzero;fill:rgb(49.411765%,52.156863%,58.823529%);fill-opacity:1;" />
<path d="M 217.667969 206.5 L 369 206.5 L 369 262 L 217.667969 262 Z M 217.667969 206.5 " style=" stroke:none;fill-rule:nonzero;fill:rgb(43.921569%,46.666667%,53.72549%);fill-opacity:1;" />
<path d="M 396.460938 391.339844 L 348.578125 425.953125 L 300.691406 391.339844 C 277.183594 374.34375 262.289062 347.90625 259.941406 318.992188 L 250 210.382812 C 250 210.382812 322.960938 172.179688 348.578125 172.179688 C 374.195312 172.179688 447.152344 210.382812 447.152344 210.382812 L 437.214844 318.992188 C 434.863281 347.90625 419.972656 374.34375 396.460938 391.339844 Z M 396.460938 391.339844 " style=" stroke:none;fill-rule:nonzero;fill:rgb(3.529412%,80.784314%,40.392157%);fill-opacity:1;" />
<path d="M 348.578125 172.179688 C 348.550781 172.179688 348.523438 172.179688 348.5 172.179688 L 348.5 425.898438 L 348.578125 425.953125 L 396.460938 391.335938 C 419.972656 374.34375 434.863281 347.90625 437.214844 318.992188 L 447.152344 210.378906 C 447.152344 210.382812 374.195312 172.179688 348.578125 172.179688 Z M 348.578125 172.179688 " style=" stroke:none;fill-rule:nonzero;fill:rgb(10.196078%,67.843137%,36.078431%);fill-opacity:1;" />
<path d="M 383.695312 363.613281 L 348.578125 389 L 313.457031 363.613281 C 296.214844 351.148438 285.289062 331.757812 283.566406 310.550781 L 276.277344 230.890625 C 276.277344 230.890625 329.789062 202.871094 348.578125 202.871094 C 367.367188 202.871094 420.878906 230.890625 420.878906 230.890625 L 413.585938 310.550781 C 411.863281 331.757812 400.941406 351.148438 383.695312 363.613281 Z M 383.695312 363.613281 " style=" stroke:none;fill-rule:nonzero;fill:rgb(8.235294%,90.980392%,45.490196%);fill-opacity:1;" />
<path d="M 348.578125 202.871094 C 348.550781 202.871094 348.523438 202.871094 348.5 202.871094 L 348.5 388.945312 L 348.578125 389 L 383.699219 363.609375 C 400.941406 351.144531 411.863281 331.757812 413.585938 310.550781 L 420.878906 230.890625 C 420.878906 230.890625 367.363281 202.871094 348.578125 202.871094 Z M 348.578125 202.871094 " style=" stroke:none;fill-rule:nonzero;fill:rgb(3.529412%,80.784314%,40.392157%);fill-opacity:1;" />
</g>
</svg>