<svg xmlns="http://www.w3.org/2000/svg" height="512pt" version="1.1" viewBox="0 0 512 512" width="512pt">
<g id="surface1">
<path d="M 512 256 C 512 397.386719 397.386719 512 256 512 C 114.613281 512 0 397.386719 0 256 C 0 114.613281 114.613281 0 256 0 C 397.386719 0 512 114.613281 512 256 Z M 512 256 " style=" stroke:none;fill-rule:nonzero;fill:rgb(9.803922%,81.176471%,98.823529%);fill-opacity:1;" />
<path d="M 512 256 C 512 241.007812 510.699219 226.320312 508.226562 212.03125 L 448.191406 152 L 412.191406 188 L 376.191406 152 L 273.839844 187.839844 L 237 151 L 74.816406 333.675781 L 253.101562 511.964844 C 254.070312 511.972656 255.03125 512 256 512 C 397.386719 512 512 397.386719 512 256 Z M 512 256 " style=" stroke:none;fill-rule:nonzero;fill:rgb(29.019608%,72.156863%,96.862745%);fill-opacity:1;" />
<path d="M 344.375 333.675781 L 185.511719 333.675781 L 147.488281 389.449219 L 112.84375 333.675781 L 74.816406 333.675781 L 74.816406 152 L 344.375 152 Z M 344.375 333.675781 " style=" stroke:none;fill-rule:nonzero;fill:rgb(25.490196%,28.627451%,32.156863%);fill-opacity:1;" />
<path d="M 74.816406 242.90625 L 74.816406 333.675781 L 112.84375 333.675781 L 147.488281 389.449219 L 185.511719 333.675781 L 344.375 333.675781 L 344.375 242.90625 Z M 74.816406 242.90625 " style=" stroke:none;fill-rule:nonzero;fill:rgb(20%,22.352941%,25.098039%);fill-opacity:1;" />
<path d="M 340.191406 152 L 376.191406 152 L 376.191406 188 L 340.191406 188 Z M 340.191406 152 " style=" stroke:none;fill-rule:nonzero;fill:rgb(25.490196%,28.627451%,32.156863%);fill-opacity:1;" />
<path d="M 340.191406 298 L 376.191406 298 L 376.191406 334 L 340.191406 334 Z M 340.191406 298 " style=" stroke:none;fill-rule:nonzero;fill:rgb(20%,22.352941%,25.098039%);fill-opacity:1;" />
<path d="M 412.191406 298 L 448.191406 298 L 448.191406 334 L 412.191406 334 Z M 412.191406 298 " style=" stroke:none;fill-rule:nonzero;fill:rgb(20%,22.352941%,25.098039%);fill-opacity:1;" />
<path d="M 340.191406 224 L 376.191406 224 L 376.191406 260 L 340.191406 260 Z M 340.191406 224 " style=" stroke:none;fill-rule:nonzero;fill:rgb(25.490196%,28.627451%,32.156863%);fill-opacity:1;" />
<path d="M 340.191406 242.90625 L 376.191406 242.90625 L 376.191406 260 L 340.191406 260 Z M 340.191406 242.90625 " style=" stroke:none;fill-rule:nonzero;fill:rgb(20%,22.352941%,25.098039%);fill-opacity:1;" />
<path d="M 376.191406 188 L 412.191406 188 L 412.191406 224 L 376.191406 224 Z M 376.191406 188 " style=" stroke:none;fill-rule:nonzero;fill:rgb(25.490196%,28.627451%,32.156863%);fill-opacity:1;" />
<path d="M 412.191406 152 L 448.191406 152 L 448.191406 188 L 412.191406 188 Z M 412.191406 152 " style=" stroke:none;fill-rule:nonzero;fill:rgb(25.490196%,28.627451%,32.156863%);fill-opacity:1;" />
<path d="M 412.191406 224 L 448.191406 224 L 448.191406 260 L 412.191406 260 Z M 412.191406 224 " style=" stroke:none;fill-rule:nonzero;fill:rgb(25.490196%,28.627451%,32.156863%);fill-opacity:1;" />
<path d="M 412.191406 242.90625 L 448.191406 242.90625 L 448.191406 260 L 412.191406 260 Z M 412.191406 242.90625 " style=" stroke:none;fill-rule:nonzero;fill:rgb(20%,22.352941%,25.098039%);fill-opacity:1;" />
<path d="M 308.375 224 L 344.375 224 L 344.375 260 L 308.375 260 Z M 308.375 224 " style=" stroke:none;fill-rule:nonzero;fill:rgb(9.803922%,81.176471%,98.823529%);fill-opacity:1;" />
<path d="M 308.375 242.90625 L 344.375 242.90625 L 344.375 260 L 308.375 260 Z M 308.375 242.90625 " style=" stroke:none;fill-rule:nonzero;fill:rgb(29.019608%,72.156863%,96.862745%);fill-opacity:1;" />
<path d="M 273.375 188 L 309.375 188 L 309.375 224 L 273.375 224 Z M 273.375 188 " style=" stroke:none;fill-rule:nonzero;fill:rgb(9.803922%,81.176471%,98.823529%);fill-opacity:1;" />
<path d="M 272.375 298.9375 L 308.375 298.9375 L 308.375 334.9375 L 272.375 334.9375 Z M 272.375 298.9375 " style=" stroke:none;fill-rule:nonzero;fill:rgb(9.803922%,81.176471%,98.823529%);fill-opacity:1;" />
<path d="M 237 151 L 273 151 L 273 187 L 237 187 Z M 237 151 " style=" stroke:none;fill-rule:nonzero;fill:rgb(9.803922%,81.176471%,98.823529%);fill-opacity:1;" />
<path d="M 110.332031 202.871094 L 237 202.871094 L 237 229 L 110.332031 229 Z M 110.332031 202.871094 " style=" stroke:none;fill-rule:nonzero;fill:rgb(38.823529%,41.176471%,47.058824%);fill-opacity:1;" />
<path d="M 110.332031 262 L 237 262 L 237 288.128906 L 110.332031 288.128906 Z M 110.332031 262 " style=" stroke:none;fill-rule:nonzero;fill:rgb(33.333333%,35.294118%,40%);fill-opacity:1;" />
</g>
</svg>