<svg xmlns="http://www.w3.org/2000/svg" height="512pt" version="1.1" viewBox="0 0 512 512" width="512pt">
<g id="surface1">
<path d="M 512 256 C 512 397.386719 397.386719 512 256 512 C 114.613281 512 0 397.386719 0 256 C 0 114.613281 114.613281 0 256 0 C 397.386719 0 512 114.613281 512 256 Z M 512 256 " style=" stroke:none;fill-rule:nonzero;fill:rgb(3.529412%,80.784314%,40.392157%);fill-opacity:1;" />
<path d="M 512 256 C 512 248.535156 511.660156 241.152344 511.035156 233.851562 L 419.53125 142.347656 L 395.757812 164.488281 L 291.269531 60 L 60 291.269531 L 151.890625 383.160156 L 142.347656 419.53125 L 233.851562 511.035156 C 241.152344 511.660156 248.535156 512 256 512 C 397.386719 512 512 397.386719 512 256 Z M 512 256 " style=" stroke:none;fill-rule:nonzero;fill:rgb(10.196078%,67.843137%,36.078431%);fill-opacity:1;" />
<path d="M 452 291.269531 L 452 220.730469 L 405.085938 215.84375 C 401.578125 202.792969 396.414062 190.421875 389.8125 178.976562 L 419.53125 142.347656 L 369.652344 92.46875 L 333.023438 122.1875 C 321.578125 115.585938 309.210938 110.421875 296.15625 106.914062 L 291.269531 60 L 220.730469 60 L 215.84375 106.914062 C 202.792969 110.421875 190.421875 115.585938 178.976562 122.1875 L 142.347656 92.46875 L 92.46875 142.347656 L 122.1875 178.976562 C 115.566406 190.457031 110.386719 202.871094 106.878906 215.96875 L 60 220.730469 L 60 291.269531 L 106.878906 296.027344 C 110.398438 309.171875 115.601562 321.621094 122.253906 333.136719 L 92.46875 369.652344 L 142.347656 419.53125 L 178.863281 389.746094 C 190.375 396.398438 202.828125 401.601562 215.96875 405.121094 L 220.730469 452 L 291.269531 452 L 296.027344 405.121094 C 309.171875 401.601562 321.621094 396.398438 333.136719 389.746094 L 369.652344 419.53125 L 419.53125 369.652344 L 389.746094 333.136719 C 396.378906 321.660156 401.566406 309.253906 405.085938 296.15625 Z M 256 344.679688 C 207.023438 344.679688 167.320312 304.976562 167.320312 256 C 167.320312 207.023438 207.023438 167.320312 256 167.320312 C 304.976562 167.320312 344.679688 207.023438 344.679688 256 C 344.679688 304.976562 304.976562 344.679688 256 344.679688 Z M 256 344.679688 " style=" stroke:none;fill-rule:nonzero;fill:rgb(25.490196%,28.627451%,32.156863%);fill-opacity:1;" />
<path d="M 452 291.269531 L 452 220.730469 L 405.085938 215.84375 C 401.578125 202.792969 396.410156 190.421875 389.8125 178.976562 L 419.53125 142.347656 L 369.652344 92.46875 L 333.019531 122.1875 C 321.578125 115.585938 309.207031 110.421875 296.15625 106.914062 L 291.269531 60 L 255.761719 60 L 255.761719 167.324219 C 255.839844 167.324219 255.921875 167.320312 256 167.320312 C 304.976562 167.320312 344.679688 207.023438 344.679688 256 C 344.679688 304.976562 304.976562 344.679688 256 344.679688 C 255.921875 344.679688 255.839844 344.675781 255.761719 344.675781 L 255.761719 452 L 291.269531 452 L 296.027344 405.121094 C 309.171875 401.601562 321.621094 396.398438 333.132812 389.746094 L 369.652344 419.53125 L 419.53125 369.652344 L 389.746094 333.132812 C 396.375 321.660156 401.566406 309.25 405.085938 296.15625 Z M 452 291.269531 " style=" stroke:none;fill-rule:nonzero;fill:rgb(20%,22.352941%,25.098039%);fill-opacity:1;" />
<path d="M 326.179688 298.160156 L 301.925781 298.160156 L 301.925781 181.359375 C 301.925781 156.035156 281.324219 135.433594 256 135.433594 C 230.675781 135.433594 210.074219 156.035156 210.074219 181.359375 L 210.074219 298.160156 L 185.820312 298.160156 L 185.820312 181.359375 C 185.820312 142.664062 217.300781 111.179688 256 111.179688 C 294.699219 111.179688 326.179688 142.664062 326.179688 181.359375 Z M 326.179688 298.160156 " style=" stroke:none;fill-rule:nonzero;fill:rgb(100%,100%,100%);fill-opacity:1;" />
<path d="M 256 111.179688 C 255.921875 111.179688 255.84375 111.1875 255.761719 111.1875 L 255.761719 135.441406 C 255.84375 135.441406 255.921875 135.433594 256 135.433594 C 281.324219 135.433594 301.925781 156.035156 301.925781 181.359375 L 301.925781 298.160156 L 326.179688 298.160156 L 326.179688 181.359375 C 326.179688 142.664062 294.699219 111.179688 256 111.179688 Z M 256 111.179688 " style=" stroke:none;fill-rule:nonzero;fill:rgb(91.372549%,92.941176%,96.078431%);fill-opacity:1;" />
<path d="M 157.515625 204.085938 L 354.484375 204.085938 L 354.484375 368.820312 L 157.515625 368.820312 Z M 157.515625 204.085938 " style=" stroke:none;fill-rule:nonzero;fill:rgb(100%,83.137255%,0%);fill-opacity:1;" />
<path d="M 255.761719 204.085938 L 354.484375 204.085938 L 354.484375 368.820312 L 255.761719 368.820312 Z M 255.761719 204.085938 " style=" stroke:none;fill-rule:nonzero;fill:rgb(99.215686%,72.941176%,7.058824%);fill-opacity:1;" />
<path d="M 208.128906 272.289062 L 197.132812 278.636719 L 197.132812 265.941406 L 184.589844 265.941406 L 184.589844 278.636719 L 173.59375 272.289062 L 167.320312 283.152344 L 178.316406 289.5 L 167.320312 295.847656 L 173.59375 306.710938 L 184.589844 300.363281 L 184.589844 313.058594 L 197.132812 313.058594 L 197.132812 300.363281 L 208.128906 306.710938 L 214.398438 295.847656 L 203.402344 289.5 L 214.398438 283.152344 Z M 208.128906 272.289062 " style=" stroke:none;fill-rule:nonzero;fill:rgb(99.607843%,41.568627%,8.627451%);fill-opacity:1;" />
<path d="M 273.269531 272.289062 L 262.269531 278.636719 L 262.269531 265.941406 L 249.730469 265.941406 L 249.730469 278.636719 L 238.730469 272.289062 L 232.460938 283.152344 L 243.457031 289.5 L 232.460938 295.847656 L 238.734375 306.710938 L 249.730469 300.363281 L 249.730469 313.058594 L 262.269531 313.058594 L 262.269531 300.363281 L 273.265625 306.710938 L 279.539062 295.847656 L 268.542969 289.5 L 279.539062 283.152344 Z M 273.269531 272.289062 " style=" stroke:none;fill-rule:nonzero;fill:rgb(99.607843%,41.568627%,8.627451%);fill-opacity:1;" />
<path d="M 279.539062 283.152344 L 273.269531 272.289062 L 262.269531 278.636719 L 262.269531 265.941406 L 255.761719 265.941406 L 255.761719 313.058594 L 262.269531 313.058594 L 262.269531 300.363281 L 273.265625 306.710938 L 279.539062 295.847656 L 268.542969 289.5 Z M 279.539062 283.152344 " style=" stroke:none;fill-rule:nonzero;fill:rgb(94.901961%,27.058824%,0%);fill-opacity:1;" />
<path d="M 344.679688 283.152344 L 338.40625 272.289062 L 327.410156 278.636719 L 327.410156 265.941406 L 314.867188 265.941406 L 314.867188 278.636719 L 303.871094 272.289062 L 297.601562 283.152344 L 308.597656 289.5 L 297.601562 295.847656 L 303.871094 306.710938 L 314.867188 300.363281 L 314.867188 313.058594 L 327.410156 313.058594 L 327.410156 300.363281 L 338.40625 306.710938 L 344.679688 295.847656 L 333.683594 289.5 Z M 344.679688 283.152344 " style=" stroke:none;fill-rule:nonzero;fill:rgb(94.901961%,27.058824%,0%);fill-opacity:1;" />
</g>
</svg>