<svg xmlns="http://www.w3.org/2000/svg" height="512pt" version="1.1" viewBox="0 0 512 512" width="512pt">
<g id="surface1">
<path d="M 512 256 C 512 397.386719 397.386719 512 256 512 C 114.613281 512 0 397.386719 0 256 C 0 114.613281 114.613281 0 256 0 C 397.386719 0 512 114.613281 512 256 Z M 512 256 " style=" stroke:none;fill-rule:nonzero;fill:rgb(100%,83.137255%,0%);fill-opacity:1;" />
<path d="M 155.585938 373.378906 L 125.886719 403.074219 L 233.84375 511.035156 C 241.148438 511.660156 248.535156 512 256 512 C 268.121094 512 280.039062 511.136719 291.714844 509.507812 Z M 155.585938 373.378906 " style=" stroke:none;fill-rule:nonzero;fill:rgb(99.215686%,72.941176%,7.058824%);fill-opacity:1;" />
<path d="M 373.378906 155.589844 L 509.507812 291.71875 C 511.136719 280.042969 512 268.125 512 256 C 512 248.535156 511.660156 241.152344 511.035156 233.851562 L 403.078125 125.890625 Z M 373.378906 155.589844 " style=" stroke:none;fill-rule:nonzero;fill:rgb(99.215686%,72.941176%,7.058824%);fill-opacity:1;" />
<path d="M 508.230469 299.945312 L 268 60 L 244 102 L 370.789062 228.789062 L 279.441406 262.472656 L 155.589844 138.621094 L 138.617188 155.589844 L 254.644531 271.613281 L 114.664062 323.226562 L 299.707031 508.269531 C 405.984375 489.984375 489.847656 406.191406 508.230469 299.945312 Z M 508.230469 299.945312 " style=" stroke:none;fill-rule:nonzero;fill:rgb(99.215686%,72.941176%,7.058824%);fill-opacity:1;" />
<path d="M 455.410156 256 C 455.410156 256 366.132812 391.078125 256 391.078125 C 145.867188 391.078125 56.589844 256 56.589844 256 C 56.589844 256 145.871094 120.921875 256 120.921875 C 366.128906 120.921875 455.410156 256 455.410156 256 Z M 455.410156 256 " style=" stroke:none;fill-rule:nonzero;fill:rgb(100%,100%,100%);fill-opacity:1;" />
<path d="M 256 120.921875 C 255.921875 120.921875 255.84375 120.925781 255.761719 120.925781 L 255.761719 391.074219 C 255.84375 391.074219 255.921875 391.082031 256 391.082031 C 366.128906 391.078125 455.410156 256 455.410156 256 C 455.410156 256 366.128906 120.921875 256 120.921875 Z M 256 120.921875 " style=" stroke:none;fill-rule:nonzero;fill:rgb(91.372549%,92.941176%,96.078431%);fill-opacity:1;" />
<path d="M 366.683594 256 C 366.683594 317.128906 317.128906 366.683594 256 366.683594 C 194.871094 366.683594 145.316406 317.128906 145.316406 256 C 145.316406 194.871094 194.871094 145.316406 256 145.316406 C 317.128906 145.316406 366.683594 194.871094 366.683594 256 Z M 366.683594 256 " style=" stroke:none;fill-rule:nonzero;fill:rgb(9.803922%,81.176471%,98.823529%);fill-opacity:1;" />
<path d="M 256 145.316406 C 255.921875 145.316406 255.84375 145.316406 255.761719 145.316406 L 255.761719 366.683594 C 255.84375 366.683594 255.921875 366.683594 256 366.683594 C 317.128906 366.683594 366.683594 317.128906 366.683594 256 C 366.683594 194.871094 317.128906 145.316406 256 145.316406 Z M 256 145.316406 " style=" stroke:none;fill-rule:nonzero;fill:rgb(29.019608%,72.156863%,96.862745%);fill-opacity:1;" />
<path d="M 306.164062 256 C 306.164062 283.703125 283.703125 306.164062 256 306.164062 C 228.296875 306.164062 205.835938 283.703125 205.835938 256 C 205.835938 228.296875 228.296875 205.835938 256 205.835938 C 283.703125 205.835938 306.164062 228.296875 306.164062 256 Z M 306.164062 256 " style=" stroke:none;fill-rule:nonzero;fill:rgb(25.490196%,28.627451%,32.156863%);fill-opacity:1;" />
<path d="M 205.835938 256 C 205.835938 283.625 228.167969 306.027344 255.761719 306.15625 L 255.761719 205.84375 C 228.167969 205.972656 205.835938 228.375 205.835938 256 Z M 205.835938 256 " style=" stroke:none;fill-rule:nonzero;fill:rgb(25.490196%,28.627451%,32.156863%);fill-opacity:1;" />
<path d="M 256 205.835938 C 255.921875 205.835938 255.84375 205.84375 255.761719 205.84375 L 255.761719 306.15625 C 255.84375 306.15625 255.921875 306.160156 256 306.160156 C 283.703125 306.160156 306.164062 283.703125 306.164062 256 C 306.164062 228.296875 283.703125 205.835938 256 205.835938 Z M 256 205.835938 " style=" stroke:none;fill-rule:nonzero;fill:rgb(20%,22.352941%,25.098039%);fill-opacity:1;" />
<path d="M 244 60 L 268 60 L 268 102 L 244 102 Z M 244 60 " style=" stroke:none;fill-rule:nonzero;fill:rgb(25.490196%,28.627451%,32.156863%);fill-opacity:1;" />
<path d="M 255.761719 60 L 268 60 L 268 102 L 255.761719 102 Z M 255.761719 60 " style=" stroke:none;fill-rule:nonzero;fill:rgb(20%,22.352941%,25.098039%);fill-opacity:1;" />
<path d="M 244 410 L 268 410 L 268 452 L 244 452 Z M 244 410 " style=" stroke:none;fill-rule:nonzero;fill:rgb(25.490196%,28.627451%,32.156863%);fill-opacity:1;" />
<path d="M 255.761719 410 L 268 410 L 268 452 L 255.761719 452 Z M 255.761719 410 " style=" stroke:none;fill-rule:nonzero;fill:rgb(20%,22.352941%,25.098039%);fill-opacity:1;" />
<path d="M 356.40625 138.621094 L 386.101562 108.921875 L 403.074219 125.894531 L 373.375 155.59375 Z M 356.40625 138.621094 " style=" stroke:none;fill-rule:nonzero;fill:rgb(20%,22.352941%,25.098039%);fill-opacity:1;" />
<path d="M 108.910156 386.105469 L 138.609375 356.40625 L 155.578125 373.375 L 125.882812 403.074219 Z M 108.910156 386.105469 " style=" stroke:none;fill-rule:nonzero;fill:rgb(25.490196%,28.627451%,32.156863%);fill-opacity:1;" />
<path d="M 108.921875 125.890625 L 125.890625 108.917969 L 155.589844 138.617188 L 138.617188 155.585938 Z M 108.921875 125.890625 " style=" stroke:none;fill-rule:nonzero;fill:rgb(25.490196%,28.627451%,32.156863%);fill-opacity:1;" />
<path d="M 356.394531 373.371094 L 373.363281 356.398438 L 403.0625 386.097656 L 386.089844 403.066406 Z M 356.394531 373.371094 " style=" stroke:none;fill-rule:nonzero;fill:rgb(20%,22.352941%,25.098039%);fill-opacity:1;" />
</g>
</svg>