<svg xmlns="http://www.w3.org/2000/svg" height="512pt" version="1.1" viewBox="0 0 512 512" width="512pt">
<g id="surface1">
<path d="M 512 256 C 512 397.386719 397.386719 512 256 512 C 114.613281 512 0 397.386719 0 256 C 0 114.613281 114.613281 0 256 0 C 397.386719 0 512 114.613281 512 256 Z M 512 256 " style=" stroke:none;fill-rule:nonzero;fill:rgb(25.490196%,28.627451%,32.156863%);fill-opacity:1;" />
<path d="M 310.597656 506.144531 C 402.066406 486.273438 475.28125 417.523438 501.535156 328.609375 L 390.589844 217.660156 L 356.96875 257.308594 L 223.289062 123.628906 L 111.457031 123.628906 L 78 222.625 L 211.371094 355.996094 L 189.933594 385.480469 Z M 310.597656 506.144531 " style=" stroke:none;fill-rule:nonzero;fill:rgb(20%,22.352941%,25.098039%);fill-opacity:1;" />
<path d="M 243.449219 315.371094 L 214.859375 315.371094 L 214.859375 177.695312 C 214.859375 147.84375 190.574219 123.558594 160.726562 123.558594 C 130.875 123.558594 106.589844 147.84375 106.589844 177.695312 L 106.589844 222.625 L 78 222.625 L 78 177.695312 C 78 132.082031 115.109375 94.96875 160.726562 94.96875 C 206.339844 94.96875 243.449219 132.078125 243.449219 177.695312 Z M 243.449219 315.371094 " style=" stroke:none;fill-rule:nonzero;fill:rgb(100%,100%,100%);fill-opacity:1;" />
<path d="M 160.726562 94.972656 C 160.65625 94.972656 160.589844 94.976562 160.523438 94.976562 L 160.523438 123.566406 C 160.589844 123.566406 160.65625 123.558594 160.726562 123.558594 C 190.574219 123.558594 214.859375 147.84375 214.859375 177.695312 L 214.859375 315.371094 L 243.449219 315.371094 L 243.449219 177.695312 C 243.449219 132.082031 206.339844 94.972656 160.726562 94.972656 Z M 160.726562 94.972656 " style=" stroke:none;fill-rule:nonzero;fill:rgb(91.372549%,92.941176%,96.078431%);fill-opacity:1;" />
<path d="M 189.933594 217.660156 L 390.589844 217.660156 L 390.589844 385.480469 L 189.933594 385.480469 Z M 189.933594 217.660156 " style=" stroke:none;fill-rule:nonzero;fill:rgb(99.607843%,41.568627%,8.627451%);fill-opacity:1;" />
<path d="M 287.308594 217.660156 L 390.589844 217.660156 L 390.589844 385.480469 L 287.308594 385.480469 Z M 287.308594 217.660156 " style=" stroke:none;fill-rule:nonzero;fill:rgb(94.901961%,27.058824%,0%);fill-opacity:1;" />
<path d="M 343.328125 238.554688 L 408 238.554688 L 408 270.886719 L 343.328125 270.886719 Z M 343.328125 238.554688 " style=" stroke:none;fill-rule:nonzero;fill:rgb(100%,83.137255%,0%);fill-opacity:1;" />
<path d="M 343.328125 285.40625 L 408 285.40625 L 408 317.738281 L 343.328125 317.738281 Z M 343.328125 285.40625 " style=" stroke:none;fill-rule:nonzero;fill:rgb(100%,83.137255%,0%);fill-opacity:1;" />
<path d="M 343.328125 332.253906 L 408 332.253906 L 408 364.589844 L 343.328125 364.589844 Z M 343.328125 332.253906 " style=" stroke:none;fill-rule:nonzero;fill:rgb(100%,83.137255%,0%);fill-opacity:1;" />
</g>
</svg>