<svg xmlns="http://www.w3.org/2000/svg" height="512pt" version="1.1" viewBox="0 0 512 512" width="512pt">
<g id="surface1">
<path d="M 512 256 C 512 397.386719 397.386719 512 256 512 C 114.613281 512 0 397.386719 0 256 C 0 114.613281 114.613281 0 256 0 C 397.386719 0 512 114.613281 512 256 Z M 512 256 " style=" stroke:none;fill-rule:nonzero;fill:rgb(9.803922%,81.176471%,98.823529%);fill-opacity:1;" />
<path d="M 512 256 C 512 225.34375 506.605469 195.949219 496.722656 168.707031 L 419.5 91.484375 L 92.5 389.183594 L 211.445312 508.128906 C 225.914062 510.667969 240.800781 512 256 512 C 397.386719 512 512 397.386719 512 256 Z M 512 256 " style=" stroke:none;fill-rule:nonzero;fill:rgb(29.019608%,72.156863%,96.862745%);fill-opacity:1;" />
<path d="M 92.5 91.484375 L 419.5 91.484375 L 419.5 389.183594 L 92.5 389.183594 Z M 92.5 91.484375 " style=" stroke:none;fill-rule:nonzero;fill:rgb(100%,100%,100%);fill-opacity:1;" />
<path d="M 255.761719 91.484375 L 419.5 91.484375 L 419.5 389.183594 L 255.761719 389.183594 Z M 255.761719 91.484375 " style=" stroke:none;fill-rule:nonzero;fill:rgb(91.372549%,92.941176%,96.078431%);fill-opacity:1;" />
<path d="M 92.5 91.484375 L 419.5 91.484375 L 419.5 132.984375 L 92.5 132.984375 Z M 92.5 91.484375 " style=" stroke:none;fill-rule:nonzero;fill:rgb(25.490196%,28.627451%,32.156863%);fill-opacity:1;" />
<path d="M 255.761719 91.484375 L 419.5 91.484375 L 419.5 132.984375 L 255.761719 132.984375 Z M 255.761719 91.484375 " style=" stroke:none;fill-rule:nonzero;fill:rgb(20%,22.352941%,25.098039%);fill-opacity:1;" />
<path d="M 115.25 111.859375 C 115.25 115.519531 112.285156 118.484375 108.625 118.484375 C 104.964844 118.484375 102 115.519531 102 111.859375 C 102 108.199219 104.964844 105.234375 108.625 105.234375 C 112.285156 105.234375 115.25 108.199219 115.25 111.859375 Z M 115.25 111.859375 " style=" stroke:none;fill-rule:nonzero;fill:rgb(68.627451%,70.588235%,78.431373%);fill-opacity:1;" />
<path d="M 156 111.859375 C 156 115.519531 153.035156 118.484375 149.375 118.484375 C 145.714844 118.484375 142.75 115.519531 142.75 111.859375 C 142.75 108.199219 145.714844 105.234375 149.375 105.234375 C 153.035156 105.234375 156 108.199219 156 111.859375 Z M 156 111.859375 " style=" stroke:none;fill-rule:nonzero;fill:rgb(68.627451%,70.588235%,78.431373%);fill-opacity:1;" />
<path d="M 136 111.859375 C 136 115.519531 133.035156 118.484375 129.375 118.484375 C 125.714844 118.484375 122.75 115.519531 122.75 111.859375 C 122.75 108.199219 125.714844 105.234375 129.375 105.234375 C 133.035156 105.234375 136 108.199219 136 111.859375 Z M 136 111.859375 " style=" stroke:none;fill-rule:nonzero;fill:rgb(68.627451%,70.588235%,78.431373%);fill-opacity:1;" />
<path d="M 122.75 172.984375 L 196.332031 172.984375 L 196.332031 221.984375 L 122.75 221.984375 Z M 122.75 172.984375 " style=" stroke:none;fill-rule:nonzero;fill:rgb(8.235294%,90.980392%,45.490196%);fill-opacity:1;" />
<path d="M 122.75 249.054688 L 196.332031 249.054688 L 196.332031 298.054688 L 122.75 298.054688 Z M 122.75 249.054688 " style=" stroke:none;fill-rule:nonzero;fill:rgb(99.607843%,41.568627%,8.627451%);fill-opacity:1;" />
<path d="M 213.207031 172.984375 L 373.117188 172.984375 L 373.117188 221.984375 L 213.207031 221.984375 Z M 213.207031 172.984375 " style=" stroke:none;fill-rule:nonzero;fill:rgb(74.509804%,76.470588%,82.352941%);fill-opacity:1;" />
<path d="M 255.761719 172.984375 L 373.117188 172.984375 L 373.117188 221.984375 L 255.761719 221.984375 Z M 255.761719 172.984375 " style=" stroke:none;fill-rule:nonzero;fill:rgb(68.627451%,70.588235%,78.431373%);fill-opacity:1;" />
<path d="M 213.207031 249.054688 L 373.117188 249.054688 L 373.117188 298.054688 L 213.207031 298.054688 Z M 213.207031 249.054688 " style=" stroke:none;fill-rule:nonzero;fill:rgb(74.509804%,76.470588%,82.352941%);fill-opacity:1;" />
<path d="M 255.761719 249.054688 L 373.117188 249.054688 L 373.117188 298.054688 L 255.761719 298.054688 Z M 255.761719 249.054688 " style=" stroke:none;fill-rule:nonzero;fill:rgb(68.627451%,70.588235%,78.431373%);fill-opacity:1;" />
<path d="M 311.667969 325.128906 L 383.117188 325.128906 L 383.117188 359.054688 L 311.667969 359.054688 Z M 311.667969 325.128906 " style=" stroke:none;fill-rule:nonzero;fill:rgb(100%,83.137255%,0%);fill-opacity:1;" />
<path d="M 252.171875 197.484375 C 252.171875 205.675781 245.53125 212.316406 237.339844 212.316406 C 229.144531 212.316406 222.503906 205.675781 222.503906 197.484375 C 222.503906 189.292969 229.144531 182.652344 237.339844 182.652344 C 245.53125 182.652344 252.171875 189.292969 252.171875 197.484375 Z M 252.171875 197.484375 " style=" stroke:none;fill-rule:nonzero;fill:rgb(25.490196%,28.627451%,32.156863%);fill-opacity:1;" />
<path d="M 289.449219 197.484375 C 289.449219 205.675781 282.808594 212.316406 274.613281 212.316406 C 266.421875 212.316406 259.78125 205.675781 259.78125 197.484375 C 259.78125 189.292969 266.421875 182.652344 274.613281 182.652344 C 282.808594 182.652344 289.449219 189.292969 289.449219 197.484375 Z M 289.449219 197.484375 " style=" stroke:none;fill-rule:nonzero;fill:rgb(20%,22.352941%,25.098039%);fill-opacity:1;" />
<path d="M 326.722656 197.484375 C 326.722656 205.675781 320.082031 212.316406 311.890625 212.316406 C 303.699219 212.316406 297.058594 205.675781 297.058594 197.484375 C 297.058594 189.292969 303.699219 182.652344 311.890625 182.652344 C 320.082031 182.652344 326.722656 189.292969 326.722656 197.484375 Z M 326.722656 197.484375 " style=" stroke:none;fill-rule:nonzero;fill:rgb(20%,22.352941%,25.098039%);fill-opacity:1;" />
<path d="M 364 197.484375 C 364 205.675781 357.359375 212.316406 349.167969 212.316406 C 340.976562 212.316406 334.335938 205.675781 334.335938 197.484375 C 334.335938 189.292969 340.976562 182.652344 349.167969 182.652344 C 357.359375 182.652344 364 189.292969 364 197.484375 Z M 364 197.484375 " style=" stroke:none;fill-rule:nonzero;fill:rgb(20%,22.352941%,25.098039%);fill-opacity:1;" />
<path d="M 252.171875 273.554688 C 252.171875 281.746094 245.53125 288.390625 237.339844 288.390625 C 229.144531 288.390625 222.503906 281.746094 222.503906 273.554688 C 222.503906 265.363281 229.144531 258.722656 237.339844 258.722656 C 245.53125 258.722656 252.171875 265.363281 252.171875 273.554688 Z M 252.171875 273.554688 " style=" stroke:none;fill-rule:nonzero;fill:rgb(25.490196%,28.627451%,32.156863%);fill-opacity:1;" />
<path d="M 289.449219 273.554688 C 289.449219 281.746094 282.808594 288.390625 274.613281 288.390625 C 266.421875 288.390625 259.78125 281.746094 259.78125 273.554688 C 259.78125 265.363281 266.421875 258.722656 274.613281 258.722656 C 282.808594 258.722656 289.449219 265.363281 289.449219 273.554688 Z M 289.449219 273.554688 " style=" stroke:none;fill-rule:nonzero;fill:rgb(20%,22.352941%,25.098039%);fill-opacity:1;" />
<path d="M 326.722656 273.554688 C 326.722656 281.746094 320.082031 288.390625 311.890625 288.390625 C 303.699219 288.390625 297.058594 281.746094 297.058594 273.554688 C 297.058594 265.363281 303.699219 258.722656 311.890625 258.722656 C 320.082031 258.722656 326.722656 265.363281 326.722656 273.554688 Z M 326.722656 273.554688 " style=" stroke:none;fill-rule:nonzero;fill:rgb(20%,22.352941%,25.098039%);fill-opacity:1;" />
</g>
</svg>