<svg xmlns="http://www.w3.org/2000/svg" height="512pt" version="1.1" viewBox="0 0 512 512" width="512pt">
<g id="surface1">
<path d="M 512 256 C 512 397.386719 397.386719 512 256 512 C 114.613281 512 0 397.386719 0 256 C 0 114.613281 114.613281 0 256 0 C 397.386719 0 512 114.613281 512 256 Z M 512 256 " style=" stroke:none;fill-rule:nonzero;fill:rgb(100%,83.137255%,0%);fill-opacity:1;" />
<path d="M 512 256 C 512 250.46875 511.804688 244.984375 511.457031 239.539062 L 362.003906 90.085938 L 83.25 376.5 L 215.558594 508.808594 C 228.734375 510.898438 242.238281 512 256 512 C 397.386719 512 512 397.386719 512 256 Z M 512 256 " style=" stroke:none;fill-rule:nonzero;fill:rgb(99.215686%,72.941176%,7.058824%);fill-opacity:1;" />
<path d="M 97.433594 161.617188 L 414.566406 161.617188 L 414.566406 363.761719 L 97.433594 363.761719 Z M 97.433594 161.617188 " style=" stroke:none;fill-rule:nonzero;fill:rgb(25.490196%,28.627451%,32.156863%);fill-opacity:1;" />
<path d="M 255.761719 161.617188 L 414.566406 161.617188 L 414.566406 363.761719 L 255.761719 363.761719 Z M 255.761719 161.617188 " style=" stroke:none;fill-rule:nonzero;fill:rgb(20%,22.352941%,25.098039%);fill-opacity:1;" />
<path d="M 112.332031 174.519531 L 399.664062 174.519531 L 399.664062 350.863281 L 112.332031 350.863281 Z M 112.332031 174.519531 " style=" stroke:none;fill-rule:nonzero;fill:rgb(99.607843%,41.568627%,8.627451%);fill-opacity:1;" />
<path d="M 255.761719 174.519531 L 399.667969 174.519531 L 399.667969 350.863281 L 255.761719 350.863281 Z M 255.761719 174.519531 " style=" stroke:none;fill-rule:nonzero;fill:rgb(94.901961%,27.058824%,0%);fill-opacity:1;" />
<path d="M 83.25 337.636719 L 428.75 337.636719 L 428.75 376.5 L 83.25 376.5 Z M 83.25 337.636719 " style=" stroke:none;fill-rule:nonzero;fill:rgb(20%,22.352941%,25.098039%);fill-opacity:1;" />
<path d="M 255.761719 337.636719 L 428.75 337.636719 L 428.75 376.5 L 255.761719 376.5 Z M 255.761719 337.636719 " style=" stroke:none;fill-rule:nonzero;fill:rgb(13.72549%,15.294118%,16.862745%);fill-opacity:1;" />
<path d="M 206 337.636719 L 306 337.636719 L 306 352 L 206 352 Z M 206 337.636719 " style=" stroke:none;fill-rule:nonzero;fill:rgb(43.921569%,46.666667%,53.72549%);fill-opacity:1;" />
<path d="M 255.761719 337.636719 L 306 337.636719 L 306 352 L 255.761719 352 Z M 255.761719 337.636719 " style=" stroke:none;fill-rule:nonzero;fill:rgb(38.823529%,41.176471%,47.058824%);fill-opacity:1;" />
<path d="M 374.648438 232.421875 L 272.847656 285.53125 C 272.847656 285.535156 374.648438 322.242188 374.648438 232.421875 Z M 374.648438 232.421875 " style=" stroke:none;fill-rule:nonzero;fill:rgb(13.72549%,15.294118%,16.862745%);fill-opacity:1;" />
<path d="M 144.574219 232.421875 L 246.378906 285.53125 C 246.375 285.535156 144.574219 322.242188 144.574219 232.421875 Z M 144.574219 232.421875 " style=" stroke:none;fill-rule:nonzero;fill:rgb(20%,22.352941%,25.098039%);fill-opacity:1;" />
<path d="M 362.003906 206.144531 L 237.058594 206.144531 L 207.152344 250.007812 L 179.902344 206.144531 L 149.996094 206.144531 L 149.996094 90.085938 L 362.003906 90.085938 Z M 362.003906 206.144531 " style=" stroke:none;fill-rule:nonzero;fill:rgb(100%,100%,100%);fill-opacity:1;" />
<path d="M 255.761719 90.085938 L 362.003906 90.085938 L 362.003906 206.144531 L 255.761719 206.144531 Z M 255.761719 90.085938 " style=" stroke:none;fill-rule:nonzero;fill:rgb(91.372549%,92.941176%,96.078431%);fill-opacity:1;" />
<path d="M 171.046875 125.519531 L 340.953125 125.519531 L 340.953125 174.519531 L 171.046875 174.519531 Z M 171.046875 125.519531 " style=" stroke:none;fill-rule:nonzero;fill:rgb(74.509804%,76.470588%,82.352941%);fill-opacity:1;" />
<path d="M 255.761719 125.519531 L 340.953125 125.519531 L 340.953125 174.519531 L 255.761719 174.519531 Z M 255.761719 125.519531 " style=" stroke:none;fill-rule:nonzero;fill:rgb(68.627451%,70.588235%,78.431373%);fill-opacity:1;" />
<path d="M 215.007812 150.019531 C 215.007812 158.210938 208.367188 164.851562 200.175781 164.851562 C 191.984375 164.851562 185.34375 158.210938 185.34375 150.019531 C 185.34375 141.824219 191.984375 135.183594 200.175781 135.183594 C 208.367188 135.183594 215.007812 141.824219 215.007812 150.019531 Z M 215.007812 150.019531 " style=" stroke:none;fill-rule:nonzero;fill:rgb(25.490196%,28.627451%,32.156863%);fill-opacity:1;" />
<path d="M 252.285156 150.019531 C 252.285156 158.210938 245.644531 164.851562 237.453125 164.851562 C 229.261719 164.851562 222.617188 158.210938 222.617188 150.019531 C 222.617188 141.824219 229.261719 135.183594 237.453125 135.183594 C 245.644531 135.183594 252.285156 141.824219 252.285156 150.019531 Z M 252.285156 150.019531 " style=" stroke:none;fill-rule:nonzero;fill:rgb(25.490196%,28.627451%,32.156863%);fill-opacity:1;" />
<path d="M 289.5625 150.019531 C 289.5625 158.210938 282.921875 164.851562 274.730469 164.851562 C 266.535156 164.851562 259.894531 158.210938 259.894531 150.019531 C 259.894531 141.824219 266.535156 135.183594 274.730469 135.183594 C 282.921875 135.183594 289.5625 141.824219 289.5625 150.019531 Z M 289.5625 150.019531 " style=" stroke:none;fill-rule:nonzero;fill:rgb(20%,22.352941%,25.098039%);fill-opacity:1;" />
<path d="M 326.839844 150.019531 C 326.839844 158.210938 320.199219 164.851562 312.007812 164.851562 C 303.8125 164.851562 297.171875 158.210938 297.171875 150.019531 C 297.171875 141.824219 303.8125 135.183594 312.007812 135.183594 C 320.199219 135.183594 326.839844 141.824219 326.839844 150.019531 Z M 326.839844 150.019531 " style=" stroke:none;fill-rule:nonzero;fill:rgb(20%,22.352941%,25.098039%);fill-opacity:1;" />
</g>
</svg>