<svg xmlns="http://www.w3.org/2000/svg" height="512pt" version="1.1" viewBox="0 0 512 512" width="512pt">
<g id="surface1">
<path d="M 512 256 C 512 397.386719 397.386719 512 256 512 C 114.613281 512 0 397.386719 0 256 C 0 114.613281 114.613281 0 256 0 C 397.386719 0 512 114.613281 512 256 Z M 512 256 " style=" stroke:none;fill-rule:nonzero;fill:rgb(25.490196%,28.627451%,32.156863%);fill-opacity:1;" />
<path d="M 512 256 C 512 252.113281 511.898438 248.253906 511.726562 244.410156 L 365.082031 97.765625 L 48.832031 359.78125 L 193.300781 504.253906 C 213.367188 509.304688 234.367188 512 256 512 C 397.386719 512 512 397.386719 512 256 Z M 512 256 " style=" stroke:none;fill-rule:nonzero;fill:rgb(20%,22.352941%,25.098039%);fill-opacity:1;" />
<path d="M 48.832031 239.585938 L 245.003906 239.585938 L 245.003906 359.78125 L 48.832031 359.78125 Z M 48.832031 239.585938 " style=" stroke:none;fill-rule:nonzero;fill:rgb(100%,100%,100%);fill-opacity:1;" />
<path d="M 48.832031 359.78125 L 146.917969 283.242188 L 245.003906 359.78125 Z M 48.832031 359.78125 " style=" stroke:none;fill-rule:nonzero;fill:rgb(80.392157%,82.352941%,88.235294%);fill-opacity:1;" />
<path d="M 245.003906 239.585938 L 146.917969 299.683594 L 48.832031 239.585938 Z M 245.003906 239.585938 " style=" stroke:none;fill-rule:nonzero;fill:rgb(99.607843%,41.568627%,8.627451%);fill-opacity:1;" />
<path d="M 266.996094 239.585938 L 463.167969 239.585938 L 463.167969 359.78125 L 266.996094 359.78125 Z M 266.996094 239.585938 " style=" stroke:none;fill-rule:nonzero;fill:rgb(91.372549%,92.941176%,96.078431%);fill-opacity:1;" />
<path d="M 266.996094 359.78125 L 365.082031 283.242188 L 463.167969 359.78125 Z M 266.996094 359.78125 " style=" stroke:none;fill-rule:nonzero;fill:rgb(74.509804%,76.470588%,82.352941%);fill-opacity:1;" />
<path d="M 463.167969 239.585938 L 365.082031 299.683594 L 266.996094 239.585938 Z M 463.167969 239.585938 " style=" stroke:none;fill-rule:nonzero;fill:rgb(94.901961%,27.058824%,0%);fill-opacity:1;" />
<path d="M 308.988281 298.007812 L 256 336.3125 L 203.011719 298.007812 C 176.996094 279.199219 160.519531 249.945312 157.914062 217.949219 L 146.917969 97.765625 C 146.917969 97.765625 227.652344 55.488281 256 55.488281 C 284.347656 55.488281 365.082031 97.765625 365.082031 97.765625 L 354.082031 217.949219 C 351.480469 249.945312 335.003906 279.199219 308.988281 298.007812 Z M 308.988281 298.007812 " style=" stroke:none;fill-rule:nonzero;fill:rgb(3.529412%,80.784314%,40.392157%);fill-opacity:1;" />
<path d="M 256 336.3125 L 308.988281 298.007812 C 335.003906 279.199219 351.480469 249.945312 354.082031 217.949219 L 365.082031 97.765625 C 365.082031 97.765625 284.347656 55.492188 256 55.492188 C 255.972656 55.492188 255.941406 55.492188 255.914062 55.492188 Z M 256 336.3125 " style=" stroke:none;fill-rule:nonzero;fill:rgb(10.196078%,67.843137%,36.078431%);fill-opacity:1;" />
<path d="M 294.863281 267.324219 L 256 295.421875 L 217.136719 267.324219 C 198.054688 253.53125 185.96875 232.078125 184.0625 208.609375 L 175.992188 120.460938 C 175.992188 120.460938 235.207031 89.453125 256 89.453125 C 276.789062 89.453125 336.003906 120.460938 336.003906 120.460938 L 327.9375 208.609375 C 326.03125 232.078125 313.945312 253.53125 294.863281 267.324219 Z M 294.863281 267.324219 " style=" stroke:none;fill-rule:nonzero;fill:rgb(8.235294%,90.980392%,45.490196%);fill-opacity:1;" />
<path d="M 256 295.421875 L 294.863281 267.324219 C 313.945312 253.53125 326.03125 232.078125 327.9375 208.609375 L 336.007812 120.460938 C 336.007812 120.460938 276.789062 89.457031 256 89.457031 C 255.972656 89.457031 255.945312 89.457031 255.917969 89.457031 Z M 256 295.421875 " style=" stroke:none;fill-rule:nonzero;fill:rgb(3.529412%,80.784314%,40.392157%);fill-opacity:1;" />
</g>
</svg>