<svg xmlns="http://www.w3.org/2000/svg" height="512pt" version="1.1" viewBox="0 0 512 512" width="512pt">
<g id="surface1">
<path d="M 512 256 C 512 397.386719 397.386719 512 256 512 C 114.613281 512 0 397.386719 0 256 C 0 114.613281 114.613281 0 256 0 C 397.386719 0 512 114.613281 512 256 Z M 512 256 " style=" stroke:none;fill-rule:nonzero;fill:rgb(25.490196%,28.627451%,32.156863%);fill-opacity:1;" />
<path d="M 272.238281 511.472656 C 399.660156 503.492188 501.808594 402.316406 511.277344 275.304688 L 377.265625 141.292969 L 354.902344 195.210938 L 284.839844 125.148438 L 134.402344 286.175781 L 212.070312 363.847656 L 155.066406 394.300781 Z M 272.238281 511.472656 " style=" stroke:none;fill-rule:nonzero;fill:rgb(20%,22.352941%,25.098039%);fill-opacity:1;" />
<path d="M 414.609375 189.882812 L 155.066406 189.882812 L 192.410156 141.292969 L 377.265625 141.292969 Z M 414.609375 189.882812 " style=" stroke:none;fill-rule:nonzero;fill:rgb(99.215686%,72.941176%,7.058824%);fill-opacity:1;" />
<path d="M 315.648438 189.882812 L 254.027344 189.882812 L 262.894531 141.292969 L 306.78125 141.292969 Z M 315.648438 189.882812 " style=" stroke:none;fill-rule:nonzero;fill:rgb(100%,100%,100%);fill-opacity:1;" />
<path d="M 306.78125 141.292969 L 284.332031 141.292969 L 284.332031 189.882812 L 315.648438 189.882812 Z M 306.78125 141.292969 " style=" stroke:none;fill-rule:nonzero;fill:rgb(91.372549%,92.941176%,96.078431%);fill-opacity:1;" />
<path d="M 155.066406 189.882812 L 414.609375 189.882812 L 414.609375 394.300781 L 155.066406 394.300781 Z M 155.066406 189.882812 " style=" stroke:none;fill-rule:nonzero;fill:rgb(100%,83.137255%,0%);fill-opacity:1;" />
<path d="M 284.332031 189.882812 L 414.609375 189.882812 L 414.609375 394.300781 L 284.332031 394.300781 Z M 284.332031 189.882812 " style=" stroke:none;fill-rule:nonzero;fill:rgb(99.215686%,72.941176%,7.058824%);fill-opacity:1;" />
<path d="M 315.648438 330.8125 L 396.871094 330.8125 L 396.871094 371.894531 L 315.648438 371.894531 Z M 315.648438 330.8125 " style=" stroke:none;fill-rule:nonzero;fill:rgb(91.372549%,92.941176%,96.078431%);fill-opacity:1;" />
<path d="M 236.875 296.359375 L 191.566406 329.113281 L 146.261719 296.359375 C 124.015625 280.28125 109.925781 255.269531 107.703125 227.910156 L 98.300781 125.144531 C 98.300781 125.144531 167.332031 89 191.566406 89 C 215.804688 89 284.835938 125.144531 284.835938 125.144531 L 275.433594 227.910156 C 273.210938 255.269531 259.121094 280.28125 236.875 296.359375 Z M 236.875 296.359375 " style=" stroke:none;fill-rule:nonzero;fill:rgb(3.529412%,80.784314%,40.392157%);fill-opacity:1;" />
<path d="M 191.566406 329.113281 L 236.875 296.359375 C 259.121094 280.28125 273.210938 255.269531 275.433594 227.910156 L 284.839844 125.144531 C 284.839844 125.144531 215.804688 89 191.566406 89 C 191.464844 89 191.355469 89.007812 191.25 89.007812 Z M 191.566406 329.113281 " style=" stroke:none;fill-rule:nonzero;fill:rgb(10.196078%,67.843137%,36.078431%);fill-opacity:1;" />
<path d="M 224.796875 270.128906 L 191.566406 294.148438 L 158.339844 270.128906 C 142.023438 258.335938 131.6875 239.988281 130.058594 219.925781 L 123.160156 144.554688 C 123.160156 144.554688 173.789062 118.042969 191.566406 118.042969 C 209.34375 118.042969 259.976562 144.554688 259.976562 144.554688 L 253.078125 219.925781 C 251.445312 239.988281 241.113281 258.335938 224.796875 270.128906 Z M 224.796875 270.128906 " style=" stroke:none;fill-rule:nonzero;fill:rgb(8.235294%,90.980392%,45.490196%);fill-opacity:1;" />
<path d="M 191.566406 294.148438 L 224.796875 270.128906 C 241.113281 258.335938 251.445312 239.988281 253.078125 219.921875 L 259.976562 144.550781 C 259.976562 144.550781 209.34375 118.039062 191.566406 118.039062 C 191.464844 118.039062 191.355469 118.046875 191.25 118.046875 Z M 191.566406 294.148438 " style=" stroke:none;fill-rule:nonzero;fill:rgb(3.529412%,80.784314%,40.392157%);fill-opacity:1;" />
</g>
</svg>