<svg xmlns="http://www.w3.org/2000/svg" height="512pt" version="1.1" viewBox="0 0 512 512" width="512pt">
<g id="surface1">
<path d="M 512 256 C 512 397.386719 397.386719 512 256 512 C 114.613281 512 0 397.386719 0 256 C 0 114.613281 114.613281 0 256 0 C 397.386719 0 512 114.613281 512 256 Z M 512 256 " style=" stroke:none;fill-rule:nonzero;fill:rgb(9.803922%,81.176471%,98.823529%);fill-opacity:1;" />
<path d="M 512 256 C 512 246.097656 511.417969 236.335938 510.324219 226.726562 L 411.828125 128.230469 L 381.777344 164.125 L 345.882812 128.230469 L 318.707031 167 L 279.941406 128.230469 L 270.507812 184.742188 L 213.996094 128.230469 L 200.210938 180.390625 L 148.050781 128.230469 L 77 203.386719 L 141.179688 267.570312 L 77 339 L 114.484375 376.484375 L 100.171875 382.429688 L 228.238281 510.496094 C 237.359375 511.480469 246.617188 512 256 512 C 397.386719 512 512 397.386719 512 256 Z M 512 256 " style=" stroke:none;fill-rule:nonzero;fill:rgb(29.019608%,72.156863%,96.862745%);fill-opacity:1;" />
<path d="M 148.050781 382.429688 L 100.171875 382.429688 L 100.171875 128.230469 L 124.113281 109.570312 L 148.050781 128.230469 Z M 148.050781 382.429688 " style=" stroke:none;fill-rule:nonzero;fill:rgb(25.490196%,28.627451%,32.156863%);fill-opacity:1;" />
<path d="M 213.996094 382.429688 L 166.117188 382.429688 L 166.117188 128.230469 L 190.054688 109.570312 L 213.996094 128.230469 Z M 213.996094 382.429688 " style=" stroke:none;fill-rule:nonzero;fill:rgb(25.490196%,28.627451%,32.156863%);fill-opacity:1;" />
<path d="M 279.941406 382.429688 L 232.058594 382.429688 L 232.058594 128.230469 L 256 109.570312 L 279.941406 128.230469 Z M 279.941406 382.429688 " style=" stroke:none;fill-rule:nonzero;fill:rgb(25.490196%,28.627451%,32.156863%);fill-opacity:1;" />
<path d="M 279.941406 128.230469 L 256 109.570312 L 255.761719 109.753906 L 255.761719 382.429688 L 279.941406 382.429688 Z M 279.941406 128.230469 " style=" stroke:none;fill-rule:nonzero;fill:rgb(20%,22.352941%,25.098039%);fill-opacity:1;" />
<path d="M 345.882812 382.429688 L 298.003906 382.429688 L 298.003906 128.230469 L 321.945312 109.570312 L 345.882812 128.230469 Z M 345.882812 382.429688 " style=" stroke:none;fill-rule:nonzero;fill:rgb(20%,22.352941%,25.098039%);fill-opacity:1;" />
<path d="M 411.828125 382.429688 L 363.949219 382.429688 L 363.949219 128.230469 L 387.886719 109.570312 L 411.828125 128.230469 Z M 411.828125 382.429688 " style=" stroke:none;fill-rule:nonzero;fill:rgb(20%,22.352941%,25.098039%);fill-opacity:1;" />
<path d="M 77 171.664062 L 435 171.664062 L 435 203.386719 L 77 203.386719 Z M 77 171.664062 " style=" stroke:none;fill-rule:nonzero;fill:rgb(38.823529%,41.176471%,47.058824%);fill-opacity:1;" />
<path d="M 255.761719 171.664062 L 435 171.664062 L 435 203.386719 L 255.761719 203.386719 Z M 255.761719 171.664062 " style=" stroke:none;fill-rule:nonzero;fill:rgb(33.333333%,35.294118%,40%);fill-opacity:1;" />
<path d="M 77 307.273438 L 435 307.273438 L 435 339 L 77 339 Z M 77 307.273438 " style=" stroke:none;fill-rule:nonzero;fill:rgb(38.823529%,41.176471%,47.058824%);fill-opacity:1;" />
<path d="M 255.761719 307.273438 L 435 307.273438 L 435 339 L 255.761719 339 Z M 255.761719 307.273438 " style=" stroke:none;fill-rule:nonzero;fill:rgb(33.333333%,35.294118%,40%);fill-opacity:1;" />
</g>
</svg>