<svg xmlns="http://www.w3.org/2000/svg" height="512pt" version="1.1" viewBox="0 0 512 512" width="512pt">
<g id="surface1">
<path d="M 512 256 C 512 397.386719 397.386719 512 256 512 C 114.613281 512 0 397.386719 0 256 C 0 114.613281 114.613281 0 256 0 C 397.386719 0 512 114.613281 512 256 Z M 512 256 " style=" stroke:none;fill-rule:nonzero;fill:rgb(25.490196%,28.627451%,32.156863%);fill-opacity:1;" />
<path d="M 176.566406 423.820312 L 264.585938 511.839844 C 401.996094 507.308594 512 394.511719 512 256 C 512 254.90625 511.972656 253.820312 511.960938 252.730469 L 360.769531 101.539062 Z M 176.566406 423.820312 " style=" stroke:none;fill-rule:nonzero;fill:rgb(20%,22.352941%,25.098039%);fill-opacity:1;" />
<path d="M 388.265625 397.929688 L 324 397.929688 L 324 366.929688 L 388.265625 366.929688 C 404.070312 366.929688 416.925781 354.074219 416.925781 338.269531 L 416.925781 246 L 447.925781 246 L 447.925781 338.269531 C 447.925781 371.167969 421.160156 397.929688 388.265625 397.929688 Z M 388.265625 397.929688 " style=" stroke:none;fill-rule:nonzero;fill:rgb(74.509804%,76.470588%,82.352941%);fill-opacity:1;" />
<path d="M 305.851562 436.597656 L 206.148438 436.597656 C 183.6875 436.597656 165.480469 418.390625 165.480469 395.929688 L 165.480469 246 L 346.519531 246 L 346.519531 395.929688 C 346.519531 418.390625 328.3125 436.597656 305.851562 436.597656 Z M 305.851562 436.597656 " style=" stroke:none;fill-rule:nonzero;fill:rgb(100%,100%,100%);fill-opacity:1;" />
<path d="M 255.761719 246 L 255.761719 436.597656 L 305.851562 436.597656 C 328.3125 436.597656 346.519531 418.390625 346.519531 395.929688 L 346.519531 246 Z M 255.761719 246 " style=" stroke:none;fill-rule:nonzero;fill:rgb(91.372549%,92.941176%,96.078431%);fill-opacity:1;" />
<path d="M 391.535156 187.527344 C 391.535156 262.378906 330.855469 323.0625 256 323.0625 C 181.144531 323.0625 120.464844 262.378906 120.464844 187.527344 C 120.464844 112.671875 181.144531 51.992188 256 51.992188 C 330.855469 51.992188 391.535156 112.671875 391.535156 187.527344 Z M 391.535156 187.527344 " style=" stroke:none;fill-rule:nonzero;fill:rgb(100%,83.137255%,0%);fill-opacity:1;" />
<path d="M 256 51.992188 C 255.921875 51.992188 255.84375 51.992188 255.761719 51.992188 L 255.761719 323.058594 C 255.84375 323.058594 255.921875 323.0625 256 323.0625 C 330.855469 323.0625 391.535156 262.378906 391.535156 187.527344 C 391.535156 112.671875 330.855469 51.992188 256 51.992188 Z M 256 51.992188 " style=" stroke:none;fill-rule:nonzero;fill:rgb(99.215686%,72.941176%,7.058824%);fill-opacity:1;" />
<path d="M 306.898438 187.527344 C 306.898438 215.636719 284.109375 238.425781 256 238.425781 C 227.890625 238.425781 205.101562 215.636719 205.101562 187.527344 C 205.101562 159.414062 227.890625 136.625 256 136.625 C 284.109375 136.625 306.898438 159.414062 306.898438 187.527344 Z M 306.898438 187.527344 " style=" stroke:none;fill-rule:nonzero;fill:rgb(100%,64.313725%,14.901961%);fill-opacity:1;" />
<path d="M 256 136.625 C 255.921875 136.625 255.84375 136.628906 255.761719 136.632812 L 255.761719 238.421875 C 255.84375 238.421875 255.921875 238.425781 256 238.425781 C 284.109375 238.425781 306.898438 215.636719 306.898438 187.527344 C 306.898438 159.414062 284.109375 136.625 256 136.625 Z M 256 136.625 " style=" stroke:none;fill-rule:nonzero;fill:rgb(100%,58.431373%,0%);fill-opacity:1;" />
<path d="M 466.132812 238.371094 C 466.132812 256.988281 451.042969 272.078125 432.425781 272.078125 C 413.8125 272.078125 398.722656 256.988281 398.722656 238.371094 C 398.722656 219.757812 413.8125 204.667969 432.425781 204.667969 C 451.042969 204.667969 466.132812 219.757812 466.132812 238.371094 Z M 466.132812 238.371094 " style=" stroke:none;fill-rule:nonzero;fill:rgb(99.607843%,41.568627%,8.627451%);fill-opacity:1;" />
</g>
</svg>