<svg xmlns="http://www.w3.org/2000/svg" height="512pt" version="1.1" viewBox="0 0 512 512" width="512pt">
<g id="surface1">
<path d="M 512 256 C 512 397.386719 397.386719 512 256 512 C 114.613281 512 0 397.386719 0 256 C 0 114.613281 114.613281 0 256 0 C 397.386719 0 512 114.613281 512 256 Z M 512 256 " style=" stroke:none;fill-rule:nonzero;fill:rgb(25.490196%,28.627451%,32.156863%);fill-opacity:1;" />
<path d="M 508.292969 299.546875 L 285.746094 77 L 266.699219 322.4375 L 122.546875 397.597656 L 236.191406 511.242188 C 242.730469 511.742188 249.335938 512 256 512 C 382.539062 512 487.617188 420.1875 508.292969 299.546875 Z M 508.292969 299.546875 " style=" stroke:none;fill-rule:nonzero;fill:rgb(20%,22.352941%,25.098039%);fill-opacity:1;" />
<path d="M 365.746094 397.597656 L 146.253906 397.597656 L 226.253906 77 L 285.746094 77 Z M 365.746094 397.597656 " style=" stroke:none;fill-rule:nonzero;fill:rgb(100%,63.921569%,0%);fill-opacity:1;" />
<path d="M 285.746094 77 L 255.761719 77 L 255.761719 397.597656 L 365.746094 397.597656 Z M 285.746094 77 " style=" stroke:none;fill-rule:nonzero;fill:rgb(100%,58.431373%,0%);fill-opacity:1;" />
<path d="M 122.546875 351.390625 L 389.453125 351.390625 L 389.453125 397.597656 L 122.546875 397.597656 Z M 122.546875 351.390625 " style=" stroke:none;fill-rule:nonzero;fill:rgb(100%,83.137255%,0%);fill-opacity:1;" />
<path d="M 255.761719 351.390625 L 389.453125 351.390625 L 389.453125 397.597656 L 255.761719 397.597656 Z M 255.761719 351.390625 " style=" stroke:none;fill-rule:nonzero;fill:rgb(99.215686%,72.941176%,7.058824%);fill-opacity:1;" />
<path d="M 171.554688 296.210938 L 340.445312 296.210938 L 328.914062 250 L 183.085938 250 Z M 171.554688 296.210938 " style=" stroke:none;fill-rule:nonzero;fill:rgb(100%,100%,100%);fill-opacity:1;" />
<path d="M 328.914062 250 L 255.761719 250 L 255.761719 296.210938 L 340.445312 296.210938 Z M 328.914062 250 " style=" stroke:none;fill-rule:nonzero;fill:rgb(91.372549%,92.941176%,96.078431%);fill-opacity:1;" />
<path d="M 196.855469 194.820312 L 315.144531 194.820312 L 303.617188 148.609375 L 208.382812 148.609375 Z M 196.855469 194.820312 " style=" stroke:none;fill-rule:nonzero;fill:rgb(100%,100%,100%);fill-opacity:1;" />
<path d="M 303.617188 148.609375 L 255.761719 148.609375 L 255.761719 194.820312 L 315.144531 194.820312 Z M 303.617188 148.609375 " style=" stroke:none;fill-rule:nonzero;fill:rgb(91.372549%,92.941176%,96.078431%);fill-opacity:1;" />
</g>
</svg>