<svg xmlns="http://www.w3.org/2000/svg" height="512pt" version="1.1" viewBox="0 0 512 512" width="512pt">
<g id="surface1">
<path d="M 512 256 C 512 397.386719 397.386719 512 256 512 C 114.613281 512 0 397.386719 0 256 C 0 114.613281 114.613281 0 256 0 C 397.386719 0 512 114.613281 512 256 Z M 512 256 " style=" stroke:none;fill-rule:nonzero;fill:rgb(100%,83.137255%,0%);fill-opacity:1;" />
<path d="M 512 256 C 512 249.707031 511.761719 243.46875 511.316406 237.289062 L 361.984375 87.960938 L 149.273438 423 L 237.609375 511.335938 C 243.683594 511.769531 249.816406 512 256 512 C 397.386719 512 512 397.386719 512 256 Z M 512 256 " style=" stroke:none;fill-rule:nonzero;fill:rgb(99.215686%,72.941176%,7.058824%);fill-opacity:1;" />
<path d="M 343.367188 433.332031 L 168.632812 433.332031 C 155.765625 433.332031 145.332031 422.902344 145.332031 410.03125 L 145.332031 101.96875 C 145.332031 89.097656 155.765625 78.664062 168.632812 78.664062 L 343.367188 78.664062 C 356.234375 78.664062 366.667969 89.097656 366.667969 101.96875 L 366.667969 410.03125 C 366.667969 422.902344 356.234375 433.332031 343.367188 433.332031 Z M 343.367188 433.332031 " style=" stroke:none;fill-rule:nonzero;fill:rgb(25.490196%,28.627451%,32.156863%);fill-opacity:1;" />
<path d="M 343.367188 78.667969 L 255.167969 78.667969 L 255.167969 433.335938 L 343.367188 433.335938 C 356.234375 433.335938 366.667969 422.902344 366.667969 410.03125 L 366.667969 101.96875 C 366.667969 89.097656 356.234375 78.667969 343.367188 78.667969 Z M 343.367188 78.667969 " style=" stroke:none;fill-rule:nonzero;fill:rgb(20%,22.352941%,25.098039%);fill-opacity:1;" />
<path d="M 163.332031 96.332031 L 348.664062 96.332031 L 348.664062 394.332031 L 163.332031 394.332031 Z M 163.332031 96.332031 " style=" stroke:none;fill-rule:nonzero;fill:rgb(3.529412%,80.784314%,40.392157%);fill-opacity:1;" />
<path d="M 255.167969 96.332031 L 348.667969 96.332031 L 348.667969 394.332031 L 255.167969 394.332031 Z M 255.167969 96.332031 " style=" stroke:none;fill-rule:nonzero;fill:rgb(10.196078%,67.843137%,36.078431%);fill-opacity:1;" />
<path d="M 266.75 412.25 C 266.75 418.1875 261.9375 423 256 423 C 250.0625 423 245.25 418.1875 245.25 412.25 C 245.25 406.3125 250.0625 401.5 256 401.5 C 261.9375 401.5 266.75 406.3125 266.75 412.25 Z M 266.75 412.25 " style=" stroke:none;fill-rule:nonzero;fill:rgb(38.823529%,41.176471%,47.058824%);fill-opacity:1;" />
<path d="M 245.25 412.25 C 245.25 417.90625 249.621094 422.53125 255.167969 422.957031 L 255.167969 401.542969 C 249.621094 401.96875 245.25 406.59375 245.25 412.25 Z M 245.25 412.25 " style=" stroke:none;fill-rule:nonzero;fill:rgb(38.823529%,41.176471%,47.058824%);fill-opacity:1;" />
<path d="M 256 401.5 C 255.71875 401.5 255.441406 401.519531 255.167969 401.542969 L 255.167969 422.957031 C 255.441406 422.980469 255.71875 423 256 423 C 261.9375 423 266.75 418.1875 266.75 412.25 C 266.75 406.3125 261.9375 401.5 256 401.5 Z M 256 401.5 " style=" stroke:none;fill-rule:nonzero;fill:rgb(38.823529%,41.176471%,47.058824%);fill-opacity:1;" />
<path d="M 313 312.582031 L 256 312.582031 L 256 293.582031 L 292.15625 293.582031 L 191.828125 178.148438 L 199 162.417969 L 256 162.417969 L 256 181.417969 L 219.84375 181.417969 L 320.171875 296.851562 Z M 313 312.582031 " style=" stroke:none;fill-rule:nonzero;fill:rgb(100%,100%,100%);fill-opacity:1;" />
<path d="M 255.167969 162.417969 L 256 162.417969 L 256 181.417969 L 255.167969 181.417969 Z M 255.167969 162.417969 " style=" stroke:none;fill-rule:nonzero;fill:rgb(100%,100%,100%);fill-opacity:1;" />
<path d="M 255.167969 222.058594 L 255.167969 251.023438 L 292.15625 293.582031 L 256 293.582031 L 256 312.582031 L 313 312.582031 L 320.171875 296.851562 Z M 255.167969 222.058594 " style=" stroke:none;fill-rule:nonzero;fill:rgb(91.372549%,92.941176%,96.078431%);fill-opacity:1;" />
<path d="M 220.417969 171.917969 C 220.417969 183.746094 210.828125 193.335938 199 193.335938 C 187.171875 193.335938 177.582031 183.746094 177.582031 171.917969 C 177.582031 160.089844 187.171875 150.5 199 150.5 C 210.828125 150.5 220.417969 160.089844 220.417969 171.917969 Z M 220.417969 171.917969 " style=" stroke:none;fill-rule:nonzero;fill:rgb(69.019608%,100%,81.568627%);fill-opacity:1;" />
<path d="M 334.417969 171.917969 C 334.417969 183.746094 324.828125 193.335938 313 193.335938 C 301.171875 193.335938 291.582031 183.746094 291.582031 171.917969 C 291.582031 160.089844 301.171875 150.5 313 150.5 C 324.828125 150.5 334.417969 160.089844 334.417969 171.917969 Z M 334.417969 171.917969 " style=" stroke:none;fill-rule:nonzero;fill:rgb(52.156863%,82.745098%,64.705882%);fill-opacity:1;" />
<path d="M 277.417969 171.917969 C 277.417969 183.746094 267.828125 193.335938 256 193.335938 C 244.171875 193.335938 234.582031 183.746094 234.582031 171.917969 C 234.582031 160.089844 244.171875 150.5 256 150.5 C 267.828125 150.5 277.417969 160.089844 277.417969 171.917969 Z M 277.417969 171.917969 " style=" stroke:none;fill-rule:nonzero;fill:rgb(69.019608%,100%,81.568627%);fill-opacity:1;" />
<path d="M 256 150.5 C 255.71875 150.5 255.445312 150.53125 255.167969 150.542969 L 255.167969 193.292969 C 255.445312 193.304688 255.71875 193.335938 256 193.335938 C 267.828125 193.335938 277.417969 183.746094 277.417969 171.917969 C 277.417969 160.089844 267.828125 150.5 256 150.5 Z M 256 150.5 " style=" stroke:none;fill-rule:nonzero;fill:rgb(52.156863%,82.745098%,64.705882%);fill-opacity:1;" />
<path d="M 220.417969 234.582031 C 220.417969 246.410156 210.828125 256 199 256 C 187.171875 256 177.582031 246.410156 177.582031 234.582031 C 177.582031 222.753906 187.171875 213.164062 199 213.164062 C 210.828125 213.164062 220.417969 222.753906 220.417969 234.582031 Z M 220.417969 234.582031 " style=" stroke:none;fill-rule:nonzero;fill:rgb(69.019608%,100%,81.568627%);fill-opacity:1;" />
<path d="M 334.417969 234.582031 C 334.417969 246.410156 324.828125 256 313 256 C 301.171875 256 291.582031 246.410156 291.582031 234.582031 C 291.582031 222.753906 301.171875 213.164062 313 213.164062 C 324.828125 213.164062 334.417969 222.753906 334.417969 234.582031 Z M 334.417969 234.582031 " style=" stroke:none;fill-rule:nonzero;fill:rgb(52.156863%,82.745098%,64.705882%);fill-opacity:1;" />
<path d="M 277.417969 234.582031 C 277.417969 246.410156 267.828125 256 256 256 C 244.171875 256 234.582031 246.410156 234.582031 234.582031 C 234.582031 222.753906 244.171875 213.164062 256 213.164062 C 267.828125 213.164062 277.417969 222.753906 277.417969 234.582031 Z M 277.417969 234.582031 " style=" stroke:none;fill-rule:nonzero;fill:rgb(69.019608%,100%,81.568627%);fill-opacity:1;" />
<path d="M 256 213.164062 C 255.71875 213.164062 255.445312 213.195312 255.167969 213.207031 L 255.167969 255.957031 C 255.445312 255.96875 255.71875 256 256 256 C 267.828125 256 277.417969 246.410156 277.417969 234.582031 C 277.417969 222.753906 267.828125 213.164062 256 213.164062 Z M 256 213.164062 " style=" stroke:none;fill-rule:nonzero;fill:rgb(52.156863%,82.745098%,64.705882%);fill-opacity:1;" />
<path d="M 220.417969 303.082031 C 220.417969 314.910156 210.828125 324.5 199 324.5 C 187.171875 324.5 177.582031 314.910156 177.582031 303.082031 C 177.582031 291.253906 187.171875 281.664062 199 281.664062 C 210.828125 281.664062 220.417969 291.253906 220.417969 303.082031 Z M 220.417969 303.082031 " style=" stroke:none;fill-rule:nonzero;fill:rgb(69.019608%,100%,81.568627%);fill-opacity:1;" />
<path d="M 334.417969 303.082031 C 334.417969 314.910156 324.828125 324.5 313 324.5 C 301.171875 324.5 291.582031 314.910156 291.582031 303.082031 C 291.582031 291.253906 301.171875 281.664062 313 281.664062 C 324.828125 281.664062 334.417969 291.253906 334.417969 303.082031 Z M 334.417969 303.082031 " style=" stroke:none;fill-rule:nonzero;fill:rgb(52.156863%,82.745098%,64.705882%);fill-opacity:1;" />
<path d="M 277.417969 303.082031 C 277.417969 314.910156 267.828125 324.5 256 324.5 C 244.171875 324.5 234.582031 314.910156 234.582031 303.082031 C 234.582031 291.253906 244.171875 281.664062 256 281.664062 C 267.828125 281.664062 277.417969 291.253906 277.417969 303.082031 Z M 277.417969 303.082031 " style=" stroke:none;fill-rule:nonzero;fill:rgb(69.019608%,100%,81.568627%);fill-opacity:1;" />
<path d="M 256 281.664062 C 255.71875 281.664062 255.445312 281.695312 255.167969 281.707031 L 255.167969 324.457031 C 255.445312 324.46875 255.71875 324.5 256 324.5 C 267.828125 324.5 277.417969 314.910156 277.417969 303.082031 C 277.417969 291.253906 267.828125 281.664062 256 281.664062 Z M 256 281.664062 " style=" stroke:none;fill-rule:nonzero;fill:rgb(52.156863%,82.745098%,64.705882%);fill-opacity:1;" />
</g>
</svg>