<svg xmlns="http://www.w3.org/2000/svg" height="512pt" version="1.1" viewBox="0 0 512 512" width="512pt">
<g id="surface1">
<path d="M 512 256 C 512 397.386719 397.386719 512 256 512 C 114.613281 512 0 397.386719 0 256 C 0 114.613281 114.613281 0 256 0 C 397.386719 0 512 114.613281 512 256 Z M 512 256 " style=" stroke:none;fill-rule:nonzero;fill:rgb(100%,83.137255%,0%);fill-opacity:1;" />
<path d="M 511.957031 259.40625 L 357.390625 104.839844 L 120.234375 412.25 L 217.039062 509.054688 C 229.742188 510.992188 242.753906 512 256 512 C 396.246094 512 510.128906 399.21875 511.957031 259.40625 Z M 511.957031 259.40625 " style=" stroke:none;fill-rule:nonzero;fill:rgb(99.215686%,72.941176%,7.058824%);fill-opacity:1;" />
<path d="M 375.15625 350.414062 L 136.84375 350.414062 L 136.84375 154.664062 C 136.84375 111.175781 172.097656 75.914062 215.59375 75.914062 L 296.40625 75.914062 C 339.898438 75.914062 375.15625 111.171875 375.15625 154.664062 Z M 375.15625 350.414062 " style=" stroke:none;fill-rule:nonzero;fill:rgb(99.607843%,41.568627%,8.627451%);fill-opacity:1;" />
<path d="M 375.15625 154.664062 C 375.15625 111.175781 339.898438 75.914062 296.40625 75.914062 L 255.167969 75.914062 L 255.167969 350.414062 L 375.15625 350.414062 Z M 375.15625 154.664062 " style=" stroke:none;fill-rule:nonzero;fill:rgb(94.901961%,27.058824%,0%);fill-opacity:1;" />
<path d="M 120.234375 344.25 L 391.765625 344.25 L 391.765625 412.25 L 120.234375 412.25 Z M 120.234375 344.25 " style=" stroke:none;fill-rule:nonzero;fill:rgb(25.490196%,28.627451%,32.156863%);fill-opacity:1;" />
<path d="M 255.167969 344.25 L 391.765625 344.25 L 391.765625 412.25 L 255.167969 412.25 Z M 255.167969 344.25 " style=" stroke:none;fill-rule:nonzero;fill:rgb(20%,22.352941%,25.098039%);fill-opacity:1;" />
<path d="M 316.5 142.5 L 277.824219 148.890625 C 271.910156 143.964844 264.300781 141 256 141 C 247.699219 141 240.089844 143.964844 234.175781 148.890625 L 195.5 142.5 L 195.5 207.5 L 233.929688 201.148438 C 236.628906 203.4375 239.675781 205.332031 243 206.703125 L 243 344.25 L 269 344.25 L 269 206.703125 C 272.324219 205.332031 275.371094 203.4375 278.070312 201.148438 L 316.5 207.5 Z M 316.5 142.5 " style=" stroke:none;fill-rule:nonzero;fill:rgb(85.098039%,20.784314%,10.980392%);fill-opacity:1;" />
<path d="M 277.824219 148.890625 C 271.910156 143.964844 264.300781 141 256 141 C 255.722656 141 255.445312 141.011719 255.167969 141.019531 L 255.167969 344.25 L 269 344.25 L 269 206.703125 C 272.324219 205.332031 275.371094 203.4375 278.070312 201.148438 L 316.5 207.5 L 316.5 142.5 Z M 277.824219 148.890625 " style=" stroke:none;fill-rule:nonzero;fill:rgb(76.862745%,18.431373%,7.058824%);fill-opacity:1;" />
</g>
</svg>