<svg xmlns="http://www.w3.org/2000/svg" height="512pt" version="1.1" viewBox="0 0 512 512" width="512pt">
<g id="surface1">
<path d="M 512 256 C 512 397.386719 397.386719 512 256 512 C 114.613281 512 0 397.386719 0 256 C 0 114.613281 114.613281 0 256 0 C 397.386719 0 512 114.613281 512 256 Z M 512 256 " style=" stroke:none;fill-rule:nonzero;fill:rgb(99.607843%,41.568627%,8.627451%);fill-opacity:1;" />
<path d="M 512 256 C 512 239.367188 510.394531 223.113281 507.367188 207.367188 L 419.5 119.5 L 92.5 392.5 L 207.367188 507.367188 C 223.113281 510.394531 239.367188 512 256 512 C 397.386719 512 512 397.386719 512 256 Z M 512 256 " style=" stroke:none;fill-rule:nonzero;fill:rgb(94.901961%,27.058824%,0%);fill-opacity:1;" />
<path d="M 92.5 119.5 L 419.5 119.5 L 419.5 392.5 L 92.5 392.5 Z M 92.5 119.5 " style=" stroke:none;fill-rule:nonzero;fill:rgb(100%,100%,100%);fill-opacity:1;" />
<path d="M 255.761719 119.5 L 419.5 119.5 L 419.5 392.5 L 255.761719 392.5 Z M 255.761719 119.5 " style=" stroke:none;fill-rule:nonzero;fill:rgb(91.372549%,92.941176%,96.078431%);fill-opacity:1;" />
<path d="M 92.5 119.5 L 419.5 119.5 L 419.5 161 L 92.5 161 Z M 92.5 119.5 " style=" stroke:none;fill-rule:nonzero;fill:rgb(25.490196%,28.627451%,32.156863%);fill-opacity:1;" />
<path d="M 255.761719 119.5 L 419.5 119.5 L 419.5 161 L 255.761719 161 Z M 255.761719 119.5 " style=" stroke:none;fill-rule:nonzero;fill:rgb(20%,22.352941%,25.098039%);fill-opacity:1;" />
<path d="M 115.25 139.875 C 115.25 143.535156 112.285156 146.5 108.625 146.5 C 104.964844 146.5 102 143.535156 102 139.875 C 102 136.214844 104.964844 133.25 108.625 133.25 C 112.285156 133.25 115.25 136.214844 115.25 139.875 Z M 115.25 139.875 " style=" stroke:none;fill-rule:nonzero;fill:rgb(68.627451%,70.588235%,78.431373%);fill-opacity:1;" />
<path d="M 156 139.875 C 156 143.535156 153.035156 146.5 149.375 146.5 C 145.714844 146.5 142.75 143.535156 142.75 139.875 C 142.75 136.214844 145.714844 133.25 149.375 133.25 C 153.035156 133.25 156 136.214844 156 139.875 Z M 156 139.875 " style=" stroke:none;fill-rule:nonzero;fill:rgb(68.627451%,70.588235%,78.431373%);fill-opacity:1;" />
<path d="M 136 139.875 C 136 143.535156 133.035156 146.5 129.375 146.5 C 125.714844 146.5 122.75 143.535156 122.75 139.875 C 122.75 136.214844 125.714844 133.25 129.375 133.25 C 133.035156 133.25 136 136.214844 136 139.875 Z M 136 139.875 " style=" stroke:none;fill-rule:nonzero;fill:rgb(68.627451%,70.588235%,78.431373%);fill-opacity:1;" />
<path d="M 143.050781 346.648438 L 238.132812 186.15625 C 246.175781 172.582031 265.824219 172.582031 273.867188 186.15625 L 368.949219 346.648438 C 377.148438 360.492188 367.171875 378 351.082031 378 L 160.921875 378 C 144.828125 378 134.851562 360.492188 143.050781 346.648438 Z M 143.050781 346.648438 " style=" stroke:none;fill-rule:nonzero;fill:rgb(100%,83.137255%,0%);fill-opacity:1;" />
<path d="M 368.949219 346.648438 L 273.867188 186.15625 C 269.796875 179.292969 262.761719 175.90625 255.761719 175.984375 L 255.761719 378 L 351.082031 378 C 367.171875 378 377.148438 360.492188 368.949219 346.648438 Z M 368.949219 346.648438 " style=" stroke:none;fill-rule:nonzero;fill:rgb(99.215686%,72.941176%,7.058824%);fill-opacity:1;" />
<path d="M 155.015625 352.191406 L 249.023438 193.515625 C 252.164062 188.214844 259.835938 188.214844 262.976562 193.515625 L 356.984375 352.191406 C 360.1875 357.597656 356.289062 364.4375 350.007812 364.4375 L 161.992188 364.4375 C 155.710938 364.4375 151.8125 357.597656 155.015625 352.191406 Z M 155.015625 352.191406 " style=" stroke:none;fill-rule:nonzero;fill:rgb(99.215686%,72.941176%,7.058824%);fill-opacity:1;" />
<path d="M 356.984375 352.191406 L 262.976562 193.515625 C 261.359375 190.785156 258.542969 189.472656 255.761719 189.554688 L 255.761719 364.433594 L 350.007812 364.433594 C 356.289062 364.4375 360.1875 357.597656 356.984375 352.191406 Z M 356.984375 352.191406 " style=" stroke:none;fill-rule:nonzero;fill:rgb(100%,63.921569%,0%);fill-opacity:1;" />
<path d="M 243 227.332031 L 270.332031 227.332031 L 270.332031 309.386719 L 243 309.386719 Z M 243 227.332031 " style=" stroke:none;fill-rule:nonzero;fill:rgb(25.490196%,28.627451%,32.156863%);fill-opacity:1;" />
<path d="M 255.761719 227.332031 L 270.332031 227.332031 L 270.332031 309.386719 L 255.761719 309.386719 Z M 255.761719 227.332031 " style=" stroke:none;fill-rule:nonzero;fill:rgb(20%,22.352941%,25.098039%);fill-opacity:1;" />
<path d="M 243 323.722656 L 270.332031 323.722656 L 270.332031 351.054688 L 243 351.054688 Z M 243 323.722656 " style=" stroke:none;fill-rule:nonzero;fill:rgb(25.490196%,28.627451%,32.156863%);fill-opacity:1;" />
<path d="M 255.761719 323.722656 L 270.332031 323.722656 L 270.332031 351.054688 L 255.761719 351.054688 Z M 255.761719 323.722656 " style=" stroke:none;fill-rule:nonzero;fill:rgb(20%,22.352941%,25.098039%);fill-opacity:1;" />
</g>
</svg>