<svg xmlns="http://www.w3.org/2000/svg" height="512pt" version="1.1" viewBox="0 0 512 512" width="512pt">
<g id="surface1">
<path d="M 512 256 C 512 397.386719 397.386719 512 256 512 C 114.613281 512 0 397.386719 0 256 C 0 114.613281 114.613281 0 256 0 C 397.386719 0 512 114.613281 512 256 Z M 512 256 " style=" stroke:none;fill-rule:nonzero;fill:rgb(25.490196%,28.627451%,32.156863%);fill-opacity:1;" />
<path d="M 509.117188 294.511719 L 283.027344 68.425781 L 267.761719 247.3125 L 163.199219 142.753906 L 95.886719 265.699219 L 163.578125 333.394531 L 79.5 352.421875 L 116.574219 389.496094 L 95.886719 395.574219 L 207.75 507.4375 C 223.378906 510.421875 239.503906 512 256 512 C 384.292969 512 490.539062 417.625 509.117188 294.511719 Z M 509.117188 294.511719 " style=" stroke:none;fill-rule:nonzero;fill:rgb(20%,22.352941%,25.098039%);fill-opacity:1;" />
<path d="M 372.285156 205.285156 C 372.285156 252.269531 332.324219 290.359375 283.027344 290.359375 C 233.730469 290.359375 193.769531 252.269531 193.769531 205.285156 C 193.769531 158.300781 283.027344 68.425781 283.027344 68.425781 C 283.027344 68.425781 372.285156 158.300781 372.285156 205.285156 Z M 372.285156 205.285156 " style=" stroke:none;fill-rule:nonzero;fill:rgb(99.607843%,41.568627%,8.627451%);fill-opacity:1;" />
<path d="M 282.832031 290.359375 C 282.898438 290.359375 282.964844 290.359375 283.027344 290.359375 C 332.324219 290.359375 372.285156 252.269531 372.285156 205.285156 C 372.285156 158.300781 283.027344 68.425781 283.027344 68.425781 Z M 282.832031 290.359375 " style=" stroke:none;fill-rule:nonzero;fill:rgb(94.901961%,27.058824%,0%);fill-opacity:1;" />
<path d="M 348.476562 221.476562 C 348.476562 255.929688 319.175781 283.859375 283.027344 283.859375 C 246.882812 283.859375 217.578125 255.929688 217.578125 221.476562 C 217.578125 187.023438 283.027344 121.125 283.027344 121.125 C 283.027344 121.125 348.476562 187.023438 348.476562 221.476562 Z M 348.476562 221.476562 " style=" stroke:none;fill-rule:nonzero;fill:rgb(100%,83.137255%,0%);fill-opacity:1;" />
<path d="M 282.832031 283.855469 C 282.898438 283.855469 282.964844 283.859375 283.027344 283.859375 C 319.175781 283.859375 348.476562 255.929688 348.476562 221.476562 C 348.476562 187.023438 283.027344 121.125 283.027344 121.125 Z M 282.832031 283.855469 " style=" stroke:none;fill-rule:nonzero;fill:rgb(99.215686%,72.941176%,7.058824%);fill-opacity:1;" />
<path d="M 217.578125 226.132812 C 217.578125 254.757812 193.234375 277.960938 163.199219 277.960938 C 133.167969 277.960938 108.824219 254.757812 108.824219 226.132812 C 108.824219 197.507812 163.199219 142.753906 163.199219 142.753906 C 163.199219 142.753906 217.578125 197.507812 217.578125 226.132812 Z M 217.578125 226.132812 " style=" stroke:none;fill-rule:nonzero;fill:rgb(99.607843%,41.568627%,8.627451%);fill-opacity:1;" />
<path d="M 163.167969 277.960938 C 163.179688 277.960938 163.1875 277.960938 163.199219 277.960938 C 193.230469 277.960938 217.578125 254.757812 217.578125 226.132812 C 217.578125 197.507812 163.199219 142.753906 163.199219 142.753906 Z M 163.167969 277.960938 " style=" stroke:none;fill-rule:nonzero;fill:rgb(94.901961%,27.058824%,0%);fill-opacity:1;" />
<path d="M 203.074219 235.996094 C 203.074219 256.984375 185.222656 274 163.199219 274 C 141.179688 274 123.328125 256.984375 123.328125 235.996094 C 123.328125 215.007812 163.199219 174.859375 163.199219 174.859375 C 163.199219 174.859375 203.074219 215.007812 203.074219 235.996094 Z M 203.074219 235.996094 " style=" stroke:none;fill-rule:nonzero;fill:rgb(100%,83.137255%,0%);fill-opacity:1;" />
<path d="M 163.167969 274 C 163.179688 274 163.1875 274 163.199219 274 C 185.222656 274 203.074219 256.984375 203.074219 235.996094 C 203.074219 215.007812 163.199219 174.859375 163.199219 174.859375 Z M 163.167969 274 " style=" stroke:none;fill-rule:nonzero;fill:rgb(99.215686%,72.941176%,7.058824%);fill-opacity:1;" />
<path d="M 95.886719 221.3125 L 209.722656 221.3125 L 209.722656 265.699219 L 95.886719 265.699219 Z M 95.886719 221.3125 " style=" stroke:none;fill-rule:nonzero;fill:rgb(86.27451%,88.235294%,92.156863%);fill-opacity:1;" />
<path d="M 300.277344 221.3125 L 414.113281 221.3125 L 414.113281 265.699219 L 300.277344 265.699219 Z M 300.277344 221.3125 " style=" stroke:none;fill-rule:nonzero;fill:rgb(80.392157%,82.352941%,88.235294%);fill-opacity:1;" />
<path d="M 198.082031 221.3125 L 311.917969 221.3125 L 311.917969 265.699219 L 198.082031 265.699219 Z M 198.082031 221.3125 " style=" stroke:none;fill-rule:nonzero;fill:rgb(100%,100%,100%);fill-opacity:1;" />
<path d="M 255.761719 221.3125 L 311.917969 221.3125 L 311.917969 265.699219 L 255.761719 265.699219 Z M 255.761719 221.3125 " style=" stroke:none;fill-rule:nonzero;fill:rgb(91.372549%,92.941176%,96.078431%);fill-opacity:1;" />
<path d="M 79.5 308.035156 L 193.339844 308.035156 L 193.339844 352.421875 L 79.5 352.421875 Z M 79.5 308.035156 " style=" stroke:none;fill-rule:nonzero;fill:rgb(86.27451%,88.235294%,92.156863%);fill-opacity:1;" />
<path d="M 283.890625 308.035156 L 397.730469 308.035156 L 397.730469 352.421875 L 283.890625 352.421875 Z M 283.890625 308.035156 " style=" stroke:none;fill-rule:nonzero;fill:rgb(80.392157%,82.352941%,88.235294%);fill-opacity:1;" />
<path d="M 181.695312 308.035156 L 295.53125 308.035156 L 295.53125 352.421875 L 181.695312 352.421875 Z M 181.695312 308.035156 " style=" stroke:none;fill-rule:nonzero;fill:rgb(100%,100%,100%);fill-opacity:1;" />
<path d="M 255.761719 308.035156 L 295.53125 308.035156 L 295.53125 352.421875 L 255.761719 352.421875 Z M 255.761719 308.035156 " style=" stroke:none;fill-rule:nonzero;fill:rgb(91.372549%,92.941176%,96.078431%);fill-opacity:1;" />
<path d="M 112.269531 264.058594 L 226.109375 264.058594 L 226.109375 308.445312 L 112.269531 308.445312 Z M 112.269531 264.058594 " style=" stroke:none;fill-rule:nonzero;fill:rgb(91.372549%,92.941176%,96.078431%);fill-opacity:1;" />
<path d="M 316.660156 264.058594 L 430.5 264.058594 L 430.5 308.445312 L 316.660156 308.445312 Z M 316.660156 264.058594 " style=" stroke:none;fill-rule:nonzero;fill:rgb(91.372549%,92.941176%,96.078431%);fill-opacity:1;" />
<path d="M 214.46875 264.058594 L 328.304688 264.058594 L 328.304688 308.445312 L 214.46875 308.445312 Z M 214.46875 264.058594 " style=" stroke:none;fill-rule:nonzero;fill:rgb(80.392157%,82.352941%,88.235294%);fill-opacity:1;" />
<path d="M 255.761719 264.058594 L 328.304688 264.058594 L 328.304688 308.445312 L 255.761719 308.445312 Z M 255.761719 264.058594 " style=" stroke:none;fill-rule:nonzero;fill:rgb(74.509804%,76.470588%,82.352941%);fill-opacity:1;" />
<path d="M 95.886719 351.1875 L 209.722656 351.1875 L 209.722656 395.574219 L 95.886719 395.574219 Z M 95.886719 351.1875 " style=" stroke:none;fill-rule:nonzero;fill:rgb(91.372549%,92.941176%,96.078431%);fill-opacity:1;" />
<path d="M 300.277344 351.1875 L 414.113281 351.1875 L 414.113281 395.574219 L 300.277344 395.574219 Z M 300.277344 351.1875 " style=" stroke:none;fill-rule:nonzero;fill:rgb(91.372549%,92.941176%,96.078431%);fill-opacity:1;" />
<path d="M 198.082031 351.1875 L 311.917969 351.1875 L 311.917969 395.574219 L 198.082031 395.574219 Z M 198.082031 351.1875 " style=" stroke:none;fill-rule:nonzero;fill:rgb(80.392157%,82.352941%,88.235294%);fill-opacity:1;" />
<path d="M 255.761719 351.1875 L 311.917969 351.1875 L 311.917969 395.574219 L 255.761719 395.574219 Z M 255.761719 351.1875 " style=" stroke:none;fill-rule:nonzero;fill:rgb(74.509804%,76.470588%,82.352941%);fill-opacity:1;" />
</g>
</svg>